<svg width="22" height="27" viewBox="0 0 22 27" fill="none" xmlns="http://www.w3.org/2000/svg">
<g id="apple">
<path id="XMLID_229_" d="M1.10541 9.63784C-1.11059 13.4838 0.298408 19.3198 2.74841 22.8578C3.97141 24.6268 5.21041 26.2148 6.90641 26.2148H7.00641C7.67718 26.1715 8.33292 25.9968 8.93641 25.7008C9.64809 25.351 10.4294 25.1657 11.2224 25.1588C11.9781 25.1658 12.7224 25.345 13.3984 25.6828C14.0442 26.0109 14.7581 26.1822 15.4824 26.1828C17.3934 26.1468 18.5664 24.4338 19.6014 22.9218C20.3748 21.7807 20.9809 20.5347 21.4014 19.2218L21.4084 19.1988C21.4435 19.0946 21.3943 18.9807 21.2944 18.9348L21.2784 18.9278C19.2709 18.0672 17.9666 16.0961 17.9594 13.9118C17.9853 11.9885 18.9899 10.211 20.6244 9.19684L20.6454 9.18384C20.6936 9.15241 20.7272 9.10298 20.7386 9.0466C20.7501 8.99022 20.7385 8.9316 20.7064 8.88384C19.5886 7.28228 17.7814 6.30108 15.8294 6.23584C15.6904 6.22184 15.5474 6.21484 15.4044 6.21484C14.3453 6.27626 13.3071 6.53539 12.3434 6.97884C11.8806 7.2004 11.3859 7.34819 10.8774 7.41684C10.3507 7.35401 9.83813 7.20431 9.36041 6.97384C8.52024 6.58086 7.61327 6.35047 6.68741 6.29484H6.62441C4.32563 6.36368 2.23112 7.63238 1.10541 9.63784Z" fill="white"/>
<path id="XMLID_230_" d="M15.8314 0.000167225C14.3032 0.144177 12.8888 0.869843 11.8804 2.02717C10.8613 3.16233 10.3485 4.66372 10.4604 6.18517C10.4741 6.28699 10.5579 6.36491 10.6604 6.37117C10.7514 6.37817 10.8454 6.38217 10.9384 6.38217C12.3998 6.31333 13.7599 5.61577 14.6684 4.46917C15.6759 3.28141 16.174 1.74406 16.0544 0.191167C16.0415 0.0789994 15.9443 -0.00424098 15.8314 0.000167225Z" fill="white"/>
</g>
</svg>
