<svg width="10" height="18" viewBox="0 0 10 18" fill="none" xmlns="http://www.w3.org/2000/svg">
<path d="M9.8399 8.53231C9.84084 8.69411 9.80983 8.85449 9.74865 9.00427C9.68747 9.15405 9.59733 9.29029 9.48339 9.40516L2.10723 16.7813C1.87574 17.0128 1.56177 17.1429 1.23439 17.1429C0.907009 17.1429 0.593037 17.0128 0.361544 16.7813C0.130051 16.5498 0 16.2358 0 15.9085C0 15.5811 0.130051 15.2671 0.361544 15.0356L6.87715 8.53231L0.373838 2.029C0.172437 1.79383 0.0671956 1.49131 0.0791464 1.18191C0.0910971 0.872511 0.21936 0.579014 0.438302 0.360071C0.657244 0.141129 0.95074 0.0128689 1.26014 0.000917435C1.56954 -0.0110321 1.87206 0.0942059 2.10723 0.295607L9.48339 7.67176C9.71051 7.90074 9.83855 8.2098 9.8399 8.53231Z" fill="#373737"/>
</svg>

