<svg width="10" height="18" viewBox="0 0 10 18" fill="none" xmlns="http://www.w3.org/2000/svg">
<path d="M0.00384617 8.53231C0.00291061 8.69411 0.0339212 8.85449 0.0951004 9.00427C0.156279 9.15405 0.246421 9.29029 0.36036 9.40516L7.73652 16.7813C7.96801 17.0128 8.28198 17.1429 8.60936 17.1429C8.93674 17.1429 9.25071 17.0128 9.48221 16.7813C9.7137 16.5498 9.84375 16.2358 9.84375 15.9085C9.84375 15.5811 9.7137 15.2671 9.48221 15.0356L2.9666 8.53231L9.46991 2.029C9.67131 1.79383 9.77655 1.49131 9.7646 1.18191C9.75265 0.872511 9.62439 0.579014 9.40545 0.360071C9.18651 0.141129 8.89301 0.0128689 8.58361 0.000917435C8.27421 -0.0110321 7.97169 0.0942059 7.73652 0.295607L0.36036 7.67176C0.133243 7.90074 0.0052042 8.2098 0.00384617 8.53231Z" fill="#373737"/>
</svg>

