<svg width="36" height="36" viewBox="0 0 36 36" fill="none" xmlns="http://www.w3.org/2000/svg">
<path fill-rule="evenodd" clip-rule="evenodd" d="M32.0803 17.9983C32.0803 25.7738 25.7852 32.0715 18.0085 32.0715C17.1161 32.0715 16.2308 31.9878 15.3628 31.8223L15.8317 32.3595C16.0864 32.6524 15.8846 33.1192 15.4853 33.1192C15.3593 33.1192 15.2333 33.0667 15.1423 32.9631L13.669 31.2732C13.6608 31.2466 13.5467 31.0759 13.6235 30.8858C13.6585 30.7812 13.7285 30.6972 13.8159 30.6426V30.6419C13.8265 30.6359 13.8369 30.6304 13.844 30.6255L15.7652 29.618C15.9892 29.5008 16.2656 29.5869 16.3811 29.8112C16.5001 30.0354 16.4126 30.3123 16.1886 30.4296L15.3277 30.8821C16.2061 31.0637 17.102 31.1554 18.0084 31.1554C25.2629 31.1554 31.1632 25.2534 31.1632 17.9985C31.1632 16.7002 30.9742 15.4165 30.5997 14.1826C30.5297 13.9401 30.6662 13.6845 30.9077 13.6111C31.1492 13.5379 31.4046 13.6747 31.4781 13.9166C31.8773 15.2368 32.0803 16.61 32.0803 17.9983ZM4.53522 22.0799C4.59469 22.2779 4.77671 22.4057 4.97269 22.4057C5.27754 22.4057 5.50405 22.1124 5.41362 21.8143C5.03915 20.581 4.85022 19.2967 4.85022 17.9983C4.85022 10.743 10.7505 4.84206 18.0086 4.84206C18.9115 4.84206 19.8074 4.93307 20.6858 5.11501L19.8249 5.56717C19.6009 5.68439 19.5134 5.96188 19.6324 6.18558C19.7479 6.40957 20.0278 6.49561 20.2518 6.3784L22.1696 5.3709C22.432 5.22985 22.4977 4.88375 22.2956 4.65666L20.8713 3.03285C20.7069 2.84385 20.4163 2.82289 20.2274 2.99087C20.0349 3.15885 20.0175 3.44584 20.1819 3.63829L20.6544 4.17376C16.0603 3.30306 11.3788 4.72636 8.05595 8.04707C4.35961 11.7407 3.03683 17.122 4.53522 22.0799ZM12.4477 25.1658L25.1757 12.4375C25.5501 12.0616 26.0471 11.8912 26.5755 11.957L28.6472 12.2163C28.8957 12.2468 29.1092 12.1729 29.2841 11.9968L30.705 10.5757C30.866 10.4158 30.9395 10.2282 30.9324 10.0021L30.8555 8.12209L28.8887 10.0892C28.7977 10.1791 28.6752 10.2274 28.5492 10.2233L26.299 10.1487C26.0575 10.1407 25.8651 9.94715 25.8581 9.70638L25.7811 7.45689C25.7776 7.32988 25.8266 7.20669 25.9176 7.11777L27.8844 5.14993L26.0051 5.07297C25.7777 5.06598 25.5887 5.13949 25.4312 5.29905L24.0104 6.72054C23.8319 6.89658 23.7584 7.11143 23.7899 7.35853L24.0489 9.43026C24.1153 9.9573 23.9439 10.4546 23.5694 10.8304L10.838 23.5591C10.4635 23.9349 9.96654 24.1054 9.43813 24.0393L7.3664 23.7803C7.12146 23.7498 6.90445 23.8237 6.72949 23.9998L5.30864 25.421C5.14765 25.5809 5.07414 25.7684 5.08465 25.9945L5.15816 27.8745L7.12844 25.907C7.21592 25.8178 7.3384 25.7695 7.4644 25.7733L9.71461 25.8478C9.9561 25.8559 10.1486 26.0494 10.1591 26.2902L10.2326 28.5397C10.2361 28.6667 10.1871 28.7896 10.0996 28.8795L8.13284 30.8459L10.0121 30.9219C10.2361 30.9317 10.425 30.8579 10.586 30.6975L12.0069 29.2761C12.1818 29.1 12.2553 28.8855 12.2239 28.6381L11.9649 26.5663C11.9018 26.0389 12.0698 25.5416 12.4477 25.1658ZM13.3926 19.7121L19.7198 13.3817C19.1739 13.1801 18.5929 13.0744 18.0085 13.0744C14.5665 13.0744 12.2056 16.5213 13.3926 19.7121ZM10.299 19.5231C10.4635 20.3682 10.7644 21.1686 11.1913 21.9108L12.6891 20.4134C12.3462 19.6596 12.1677 18.8316 12.1677 17.9983C12.1677 14.7781 14.7854 12.1583 18.0085 12.1583C18.8414 12.1583 19.6673 12.3378 20.4232 12.6801L21.921 11.1826C21.1791 10.7546 20.3777 10.4543 19.5308 10.2881C19.3698 10.2563 19.2368 10.1384 19.1843 9.9802L18.7784 8.7333H17.2351L16.8291 9.98092C16.7767 10.1384 16.6437 10.2563 16.4827 10.2885C15.4608 10.4897 14.502 10.8862 13.6341 11.4689C13.4976 11.5613 13.3191 11.5722 13.1721 11.4966L12.0033 10.9009L10.9079 11.9932L11.5063 13.1627C11.5798 13.3104 11.5693 13.4875 11.4783 13.6257C10.8939 14.4932 10.4984 15.4514 10.2954 16.4733C10.264 16.6364 10.1485 16.769 9.98749 16.8205L8.7416 17.2254V18.7712L9.98749 19.1765C10.1485 19.2274 10.264 19.3607 10.299 19.5231ZM22.6244 16.2852L16.2937 22.6145C16.8397 22.8161 17.4206 22.9218 18.0085 22.9218C21.4085 22.9218 23.8135 19.5354 22.6244 16.2852ZM25.7181 16.4732C25.5501 15.6292 25.2491 14.8281 24.8222 14.0859L23.3243 15.5833C23.6673 16.3372 23.8458 17.1651 23.8458 17.9983C23.8458 21.2187 21.2281 23.8384 18.0085 23.8384C17.1756 23.8384 16.3462 23.6588 15.5938 23.3166L14.096 24.8134C14.8378 25.2417 15.6393 25.5416 16.4827 25.7078C16.6437 25.7403 16.7767 25.8583 16.8291 26.0158L17.2351 27.2634H18.7784L19.1843 26.0158C19.2368 25.8583 19.3698 25.7403 19.5343 25.7078C20.5526 25.5069 21.5115 25.1104 22.3794 24.5274C22.5159 24.4354 22.6944 24.4242 22.8414 24.5002L24.0137 25.0965L25.1056 24.0032L24.5107 22.834C24.4337 22.6863 24.4442 22.5089 24.5387 22.3707C25.1196 21.5031 25.5151 20.5453 25.7181 19.5231C25.7495 19.36 25.8685 19.2274 26.026 19.1763L27.2719 18.771V17.2252L26.026 16.8203C25.8685 16.7689 25.7496 16.636 25.7181 16.4732ZM12.8747 26.4526C12.8432 26.2052 12.9167 25.9903 13.0952 25.8142L13.4276 25.4824C14.236 25.9805 15.1143 26.3388 16.0382 26.5509L16.4652 27.8632C16.5282 28.0522 16.7031 28.1799 16.9027 28.1799H19.1144C19.3103 28.1799 19.4853 28.0522 19.5483 27.8632L19.9753 26.5509C20.9272 26.3321 21.8301 25.9584 22.6629 25.4366L23.8948 26.0633C24.0698 26.154 24.2832 26.1196 24.4267 25.9797L25.9875 24.4164C26.1275 24.2757 26.1625 24.0609 26.0716 23.8841L25.4452 22.6536C25.9666 21.8222 26.3411 20.9203 26.5615 19.966L27.8739 19.5397C28.0629 19.4778 28.1889 19.3018 28.1889 19.1033V16.893C28.1889 16.6942 28.0629 16.5182 27.8739 16.4566L26.5615 16.03C26.3481 15.1047 25.9911 14.2277 25.4907 13.4172L25.8232 13.0854C25.9981 12.9087 26.2151 12.8349 26.4601 12.866L28.5353 13.1249C29.0603 13.1911 29.5572 13.0207 29.9316 12.6448L31.3559 11.2236C31.6953 10.8821 31.8668 10.447 31.8459 9.9645L31.7304 7.03993C31.7112 6.64465 31.2297 6.45198 30.9465 6.73372L28.3813 9.30066L26.7575 9.24673L26.705 7.62472L29.2702 5.05885C29.5572 4.77179 29.3602 4.29414 28.9658 4.27492L26.04 4.15965C25.5606 4.13869 25.1232 4.31013 24.7802 4.65313L23.3593 6.07254C22.9849 6.44838 22.8134 6.94497 22.8799 7.47201L23.1389 9.54445C23.1704 9.7912 23.0969 10.0064 22.9184 10.1824L22.5894 10.5142C21.7776 10.0163 20.9026 9.65757 19.9753 9.44545L19.5483 8.13311C19.4853 7.94447 19.3103 7.81674 19.1144 7.81674H16.9027C16.7032 7.81674 16.5282 7.94447 16.4652 8.13311L16.0382 9.44545C15.0864 9.66419 14.1834 10.0383 13.3505 10.5601L12.1222 9.93297C11.9437 9.84268 11.7303 9.87695 11.5903 10.0173L10.026 11.5802C9.88604 11.7209 9.85105 11.9357 9.94199 12.1125L10.5684 13.3429C10.047 14.1743 9.67249 15.0762 9.45556 16.0302L8.14321 16.4568C7.95421 16.5184 7.82476 16.6944 7.82476 16.8932V19.1035C7.82476 19.302 7.95421 19.478 8.14321 19.5399L9.45556 19.9662C9.66551 20.8925 10.026 21.7685 10.523 22.5793L10.1905 22.911C10.0155 23.0874 9.79849 23.1609 9.55355 23.1305L7.48182 22.8712C6.95341 22.8053 6.45647 22.9758 6.082 23.3516L4.66122 24.7724C4.31828 25.114 4.15031 25.5489 4.1678 26.0315L4.28675 28.9564C4.30266 29.3581 4.78679 29.5416 5.06716 29.2623L7.63237 26.6957L9.25619 26.7496L9.30868 28.3717L6.74346 30.9376C6.46338 31.2173 6.65202 31.7038 7.04795 31.7197L9.9736 31.8377C10.4603 31.8511 10.884 31.6939 11.2335 31.3453L12.6543 29.9241C13.0288 29.5483 13.2002 29.0517 13.1337 28.5243L12.8747 26.4526Z" fill="#373737"/>
</svg>

