<svg width="242" height="85" viewBox="0 0 242 85" fill="none" xmlns="http://www.w3.org/2000/svg">
<g id="BATCH">
<path id="Path_33" d="M188.677 16H0L17.689 43.006L0 69.652H193.623L188.677 16Z" fill="#D5EFFB"/>
<g id="Total_Satisfaction_backed_by_the_GreenPal_Guarantee_" clip-path="url(#clip0_627_6650)">
<path id="Total Satisfaction backed by" d="M29.3253 39.8711H27.8953V34.4511H25.9453V33.2011H31.2653V34.4511H29.3253V39.8711ZM33.4091 39.9911C31.8191 39.9911 30.8591 38.8311 30.8591 37.4511C30.8591 36.0811 31.8191 34.9211 33.4091 34.9211C35.0091 34.9211 35.9691 36.0811 35.9691 37.4511C35.9691 38.8311 35.0091 39.9911 33.4091 39.9911ZM33.4091 38.8611C34.1991 38.8611 34.6491 38.2111 34.6491 37.4511C34.6491 36.7011 34.1991 36.0511 33.4091 36.0511C32.6191 36.0511 32.1791 36.7011 32.1791 37.4511C32.1791 38.2111 32.6191 38.8611 33.4091 38.8611ZM38.5313 39.9911C37.6413 39.9911 37.1613 39.5311 37.1613 38.6711V36.1511H36.3613V35.0411H37.1613V33.7211H38.4413V35.0411H39.4213V36.1511H38.4413V38.3311C38.4413 38.6311 38.6013 38.8611 38.8813 38.8611C39.0713 38.8611 39.2513 38.7911 39.3213 38.7211L39.5913 39.6811C39.4013 39.8511 39.0613 39.9911 38.5313 39.9911ZM44.4602 39.8711H43.1902V39.3711C42.8602 39.7611 42.2902 39.9911 41.6602 39.9911C40.8902 39.9911 39.9802 39.4711 39.9802 38.3911C39.9802 37.2611 40.8902 36.8311 41.6602 36.8311C42.3002 36.8311 42.8702 37.0411 43.1902 37.4211V36.7711C43.1902 36.2811 42.7702 35.9611 42.1302 35.9611C41.6102 35.9611 41.1302 36.1511 40.7202 36.5311L40.2402 35.6811C40.8302 35.1611 41.5902 34.9211 42.3502 34.9211C43.4502 34.9211 44.4602 35.3611 44.4602 36.7511V39.8711ZM42.1702 39.1311C42.5802 39.1311 42.9802 38.9911 43.1902 38.7111V38.1111C42.9802 37.8311 42.5802 37.6911 42.1702 37.6911C41.6702 37.6911 41.2602 37.9511 41.2602 38.4211C41.2602 38.8711 41.6702 39.1311 42.1702 39.1311ZM46.9898 39.8711H45.7198V33.2011H46.9898V39.8711ZM53.2077 39.9911C51.9277 39.9911 51.0077 39.5611 50.3877 38.9311L51.1577 37.8511C51.6277 38.3411 52.3577 38.7511 53.2777 38.7511C54.0577 38.7511 54.4377 38.3911 54.4377 38.0111C54.4377 36.8311 50.5977 37.6411 50.5977 35.1311C50.5977 34.0211 51.5577 33.1011 53.1277 33.1011C54.1877 33.1011 55.0677 33.4211 55.7277 34.0311L54.9377 35.0711C54.3977 34.5711 53.6777 34.3411 52.9977 34.3411C52.3877 34.3411 52.0477 34.6111 52.0477 35.0111C52.0477 36.0711 55.8777 35.3611 55.8777 37.8511C55.8777 39.0711 55.0077 39.9911 53.2077 39.9911ZM60.9738 39.8711H59.7038V39.3711C59.3738 39.7611 58.8038 39.9911 58.1738 39.9911C57.4038 39.9911 56.4938 39.4711 56.4938 38.3911C56.4938 37.2611 57.4038 36.8311 58.1738 36.8311C58.8138 36.8311 59.3838 37.0411 59.7038 37.4211V36.7711C59.7038 36.2811 59.2838 35.9611 58.6438 35.9611C58.1238 35.9611 57.6438 36.1511 57.2338 36.5311L56.7538 35.6811C57.3438 35.1611 58.1038 34.9211 58.8638 34.9211C59.9638 34.9211 60.9738 35.3611 60.9738 36.7511V39.8711ZM58.6838 39.1311C59.0938 39.1311 59.4938 38.9911 59.7038 38.7111V38.1111C59.4938 37.8311 59.0938 37.6911 58.6838 37.6911C58.1838 37.6911 57.7738 37.9511 57.7738 38.4211C57.7738 38.8711 58.1838 39.1311 58.6838 39.1311ZM63.8535 39.9911C62.9635 39.9911 62.4835 39.5311 62.4835 38.6711V36.1511H61.6835V35.0411H62.4835V33.7211H63.7635V35.0411H64.7435V36.1511H63.7635V38.3311C63.7635 38.6311 63.9235 38.8611 64.2035 38.8611C64.3935 38.8611 64.5735 38.7911 64.6435 38.7211L64.9135 39.6811C64.7235 39.8511 64.3835 39.9911 63.8535 39.9911ZM66.2424 34.5211C65.8324 34.5211 65.4824 34.1811 65.4824 33.7611C65.4824 33.3411 65.8324 33.0111 66.2424 33.0111C66.6624 33.0111 67.0024 33.3411 67.0024 33.7611C67.0024 34.1811 66.6624 34.5211 66.2424 34.5211ZM66.8824 39.8711H65.6124V35.0411H66.8824V39.8711ZM69.8817 39.9911C69.0417 39.9911 68.2317 39.7111 67.7217 39.2411L68.2717 38.3511C68.6217 38.6811 69.3417 39.0111 69.9417 39.0111C70.4917 39.0111 70.7517 38.7911 70.7517 38.4911C70.7517 37.6911 67.8817 38.3411 67.8817 36.4411C67.8817 35.6311 68.5917 34.9211 69.8617 34.9211C70.6817 34.9211 71.3317 35.2011 71.8117 35.5811L71.3017 36.4511C71.0117 36.1411 70.4617 35.8911 69.8717 35.8911C69.4117 35.8911 69.1117 36.1011 69.1117 36.3711C69.1117 37.0911 71.9717 36.4911 71.9717 38.4411C71.9717 39.3211 71.2217 39.9911 69.8817 39.9911ZM74.4673 39.8711H73.1873V36.1511H72.3873V35.0411H73.1873V34.7811C73.1873 33.7511 73.8473 33.1011 74.8173 33.1011C75.2773 33.1011 75.7673 33.2211 76.0773 33.5511L75.5973 34.3011C75.4673 34.1711 75.2973 34.1011 75.0673 34.1011C74.7173 34.1011 74.4673 34.3311 74.4673 34.7811V35.0411H75.4473V36.1511H74.4673V39.8711ZM80.3488 39.8711H79.0788V39.3711C78.7488 39.7611 78.1788 39.9911 77.5488 39.9911C76.7788 39.9911 75.8688 39.4711 75.8688 38.3911C75.8688 37.2611 76.7788 36.8311 77.5488 36.8311C78.1888 36.8311 78.7588 37.0411 79.0788 37.4211V36.7711C79.0788 36.2811 78.6588 35.9611 78.0188 35.9611C77.4988 35.9611 77.0188 36.1511 76.6088 36.5311L76.1288 35.6811C76.7188 35.1611 77.4788 34.9211 78.2388 34.9211C79.3388 34.9211 80.3488 35.3611 80.3488 36.7511V39.8711ZM78.0588 39.1311C78.4688 39.1311 78.8688 38.9911 79.0788 38.7111V38.1111C78.8688 37.8311 78.4688 37.6911 78.0588 37.6911C77.5588 37.6911 77.1488 37.9511 77.1488 38.4211C77.1488 38.8711 77.5588 39.1311 78.0588 39.1311ZM83.8585 39.9911C82.3685 39.9911 81.2985 38.9411 81.2985 37.4511C81.2985 35.9711 82.3685 34.9211 83.8585 34.9211C84.8485 34.9211 85.4485 35.3511 85.7685 35.7911L84.9385 36.5711C84.7085 36.2311 84.3585 36.0511 83.9185 36.0511C83.1485 36.0511 82.6085 36.6111 82.6085 37.4511C82.6085 38.2911 83.1485 38.8611 83.9185 38.8611C84.3585 38.8611 84.7085 38.6611 84.9385 38.3411L85.7685 39.1111C85.4485 39.5611 84.8485 39.9911 83.8585 39.9911ZM88.2188 39.9911C87.3288 39.9911 86.8488 39.5311 86.8488 38.6711V36.1511H86.0488V35.0411H86.8488V33.7211H88.1288V35.0411H89.1088V36.1511H88.1288V38.3311C88.1288 38.6311 88.2888 38.8611 88.5688 38.8611C88.7588 38.8611 88.9388 38.7911 89.0088 38.7211L89.2788 39.6811C89.0888 39.8511 88.7488 39.9911 88.2188 39.9911ZM90.6077 34.5211C90.1977 34.5211 89.8477 34.1811 89.8477 33.7611C89.8477 33.3411 90.1977 33.0111 90.6077 33.0111C91.0277 33.0111 91.3677 33.3411 91.3677 33.7611C91.3677 34.1811 91.0277 34.5211 90.6077 34.5211ZM91.2477 39.8711H89.9777V35.0411H91.2477V39.8711ZM94.747 39.9911C93.157 39.9911 92.197 38.8311 92.197 37.4511C92.197 36.0811 93.157 34.9211 94.747 34.9211C96.347 34.9211 97.307 36.0811 97.307 37.4511C97.307 38.8311 96.347 39.9911 94.747 39.9911ZM94.747 38.8611C95.537 38.8611 95.987 38.2111 95.987 37.4511C95.987 36.7011 95.537 36.0511 94.747 36.0511C93.957 36.0511 93.517 36.7011 93.517 37.4511C93.517 38.2111 93.957 38.8611 94.747 38.8611ZM102.779 39.8711H101.509V36.9511C101.509 36.2811 101.159 36.0511 100.619 36.0511C100.119 36.0511 99.7291 36.3311 99.5191 36.6211V39.8711H98.2491V35.0411H99.5191V35.6711C99.8291 35.3011 100.419 34.9211 101.209 34.9211C102.269 34.9211 102.779 35.5211 102.779 36.4611V39.8711ZM107.869 38.3211C108.079 38.6311 108.549 38.8611 108.959 38.8611C109.699 38.8611 110.189 38.3011 110.189 37.4611C110.189 36.6211 109.699 36.0511 108.959 36.0511C108.549 36.0511 108.079 36.2911 107.869 36.6111V38.3211ZM107.869 39.8711H106.599V33.2011H107.869V35.6611C108.249 35.1711 108.789 34.9211 109.359 34.9211C110.589 34.9211 111.499 35.8811 111.499 37.4611C111.499 39.0711 110.579 39.9911 109.359 39.9911C108.779 39.9911 108.249 39.7311 107.869 39.2511V39.8711ZM116.628 39.8711H115.358V39.3711C115.028 39.7611 114.458 39.9911 113.828 39.9911C113.058 39.9911 112.148 39.4711 112.148 38.3911C112.148 37.2611 113.058 36.8311 113.828 36.8311C114.468 36.8311 115.038 37.0411 115.358 37.4211V36.7711C115.358 36.2811 114.938 35.9611 114.298 35.9611C113.778 35.9611 113.298 36.1511 112.888 36.5311L112.408 35.6811C112.998 35.1611 113.758 34.9211 114.518 34.9211C115.618 34.9211 116.628 35.3611 116.628 36.7511V39.8711ZM114.338 39.1311C114.748 39.1311 115.148 38.9911 115.358 38.7111V38.1111C115.148 37.8311 114.748 37.6911 114.338 37.6911C113.838 37.6911 113.428 37.9511 113.428 38.4211C113.428 38.8711 113.838 39.1311 114.338 39.1311ZM120.138 39.9911C118.648 39.9911 117.578 38.9411 117.578 37.4511C117.578 35.9711 118.648 34.9211 120.138 34.9211C121.128 34.9211 121.728 35.3511 122.048 35.7911L121.218 36.5711C120.988 36.2311 120.638 36.0511 120.198 36.0511C119.428 36.0511 118.888 36.6111 118.888 37.4511C118.888 38.2911 119.428 38.8611 120.198 38.8611C120.638 38.8611 120.988 38.6611 121.218 38.3411L122.048 39.1111C121.728 39.5611 121.128 39.9911 120.138 39.9911ZM127.598 39.8711H126.008L124.728 38.0111L124.148 38.6311V39.8711H122.878V33.2011H124.148V37.1911L125.978 35.0411H127.538L125.628 37.2311L127.598 39.8711ZM130.441 39.9911C128.971 39.9911 127.861 39.0011 127.861 37.4511C127.861 36.0511 128.891 34.9211 130.361 34.9211C131.801 34.9211 132.781 36.0011 132.781 37.5811V37.8611H129.191C129.271 38.4711 129.761 38.9811 130.581 38.9811C130.991 38.9811 131.561 38.8011 131.871 38.5011L132.431 39.3211C131.951 39.7611 131.191 39.9911 130.441 39.9911ZM131.551 37.0011C131.521 36.5411 131.201 35.9311 130.361 35.9311C129.571 35.9311 129.231 36.5211 129.171 37.0011H131.551ZM138.298 39.8711H137.018V39.2511C136.638 39.7311 136.108 39.9911 135.528 39.9911C134.308 39.9911 133.388 39.0711 133.388 37.4611C133.388 35.8811 134.298 34.9211 135.528 34.9211C136.098 34.9211 136.638 35.1711 137.018 35.6611V33.2011H138.298V39.8711ZM135.918 38.8611C136.348 38.8611 136.808 38.6311 137.018 38.3111V36.6011C136.808 36.2811 136.348 36.0511 135.918 36.0511C135.198 36.0511 134.698 36.6211 134.698 37.4611C134.698 38.2911 135.198 38.8611 135.918 38.8611ZM143.386 38.3211C143.596 38.6311 144.066 38.8611 144.476 38.8611C145.216 38.8611 145.706 38.3011 145.706 37.4611C145.706 36.6211 145.216 36.0511 144.476 36.0511C144.066 36.0511 143.596 36.2911 143.386 36.6111V38.3211ZM143.386 39.8711H142.116V33.2011H143.386V35.6611C143.766 35.1711 144.306 34.9211 144.876 34.9211C146.106 34.9211 147.016 35.8811 147.016 37.4611C147.016 39.0711 146.096 39.9911 144.876 39.9911C144.296 39.9911 143.766 39.7311 143.386 39.2511V39.8711ZM147.806 41.7611L147.996 40.6211C148.106 40.6711 148.276 40.7011 148.396 40.7011C148.726 40.7011 148.946 40.6111 149.066 40.3511L149.246 39.9411L147.286 35.0411H148.646L149.906 38.4011L151.166 35.0411H152.536L150.266 40.6611C149.906 41.5711 149.266 41.8111 148.436 41.8311C148.286 41.8311 147.966 41.8011 147.806 41.7611Z" fill="#4E95BB"/>
<path id="the GreenPal Guarantee!" d="M27.9453 54.9911C27.0553 54.9911 26.5753 54.5311 26.5753 53.6711V51.1511H25.7753V50.0411H26.5753V48.7211H27.8553V50.0411H28.8353V51.1511H27.8553V53.3311C27.8553 53.6311 28.0153 53.8611 28.2953 53.8611C28.4853 53.8611 28.6653 53.7911 28.7353 53.7211L29.0053 54.6811C28.8153 54.8511 28.4753 54.9911 27.9453 54.9911ZM34.2442 54.8711H32.9742V51.9311C32.9742 51.2611 32.6242 51.0511 32.0742 51.0511C31.5842 51.0511 31.1942 51.3311 30.9742 51.6211V54.8711H29.7042V48.2011H30.9742V50.6711C31.2842 50.3011 31.8842 49.9211 32.6742 49.9211C33.7342 49.9211 34.2442 50.5011 34.2442 51.4411V54.8711ZM37.775 54.9911C36.305 54.9911 35.195 54.0011 35.195 52.4511C35.195 51.0511 36.225 49.9211 37.695 49.9211C39.135 49.9211 40.115 51.0011 40.115 52.5811V52.8611H36.525C36.605 53.4711 37.095 53.9811 37.915 53.9811C38.325 53.9811 38.895 53.8011 39.205 53.5011L39.765 54.3211C39.285 54.7611 38.525 54.9911 37.775 54.9911ZM38.885 52.0011C38.855 51.5411 38.535 50.9311 37.695 50.9311C36.905 50.9311 36.565 51.5211 36.505 52.0011H38.885ZM46.8509 55.0011C44.9009 55.0011 43.3009 53.6411 43.3009 51.5411C43.3009 49.4311 44.9009 48.0911 46.8509 48.0911C48.2409 48.0911 49.1109 48.7911 49.6109 49.5811L48.4309 50.2211C48.1309 49.7511 47.5609 49.3511 46.8509 49.3511C45.6409 49.3511 44.7609 50.2811 44.7609 51.5411C44.7609 52.8011 45.6409 53.7311 46.8509 53.7311C47.4409 53.7311 48.0009 53.4711 48.2709 53.2211V52.4211H46.5109V51.1811H49.6909V53.7411C49.0109 54.5011 48.0609 55.0011 46.8509 55.0011ZM52.0582 54.8711H50.7882V50.0411H52.0582V50.7011C52.3982 50.2711 52.9982 49.9211 53.5982 49.9211V51.1611C53.5082 51.1411 53.3882 51.1311 53.2482 51.1311C52.8282 51.1311 52.2682 51.3711 52.0582 51.6811V54.8711ZM56.6617 54.9911C55.1917 54.9911 54.0817 54.0011 54.0817 52.4511C54.0817 51.0511 55.1117 49.9211 56.5817 49.9211C58.0217 49.9211 59.0017 51.0011 59.0017 52.5811V52.8611H55.4117C55.4917 53.4711 55.9817 53.9811 56.8017 53.9811C57.2117 53.9811 57.7817 53.8011 58.0917 53.5011L58.6517 54.3211C58.1717 54.7611 57.4117 54.9911 56.6617 54.9911ZM57.7717 52.0011C57.7417 51.5411 57.4217 50.9311 56.5817 50.9311C55.7917 50.9311 55.4517 51.5211 55.3917 52.0011H57.7717ZM62.1891 54.9911C60.7191 54.9911 59.6091 54.0011 59.6091 52.4511C59.6091 51.0511 60.6391 49.9211 62.1091 49.9211C63.5491 49.9211 64.5291 51.0011 64.5291 52.5811V52.8611H60.9391C61.0191 53.4711 61.5091 53.9811 62.3291 53.9811C62.7391 53.9811 63.3091 53.8011 63.6191 53.5011L64.1791 54.3211C63.6991 54.7611 62.9391 54.9911 62.1891 54.9911ZM63.2991 52.0011C63.2691 51.5411 62.9491 50.9311 62.1091 50.9311C61.3191 50.9311 60.9791 51.5211 60.9191 52.0011H63.2991ZM69.9764 54.8711H68.7064V51.9511C68.7064 51.2811 68.3564 51.0511 67.8164 51.0511C67.3164 51.0511 66.9264 51.3311 66.7164 51.6211V54.8711H65.4464V50.0411H66.7164V50.6711C67.0264 50.3011 67.6164 49.9211 68.4064 49.9211C69.4664 49.9211 69.9764 50.5211 69.9764 51.4611V54.8711ZM72.6874 54.8711H71.2674V48.2011H74.3874C75.8374 48.2011 76.6274 49.1811 76.6274 50.3511C76.6274 51.5111 75.8274 52.5011 74.3874 52.5011H72.6874V54.8711ZM74.1974 51.2511C74.7574 51.2511 75.1774 50.9011 75.1774 50.3511C75.1774 49.7911 74.7574 49.4511 74.1974 49.4511H72.6874V51.2511H74.1974ZM81.4523 54.8711H80.1823V54.3711C79.8523 54.7611 79.2823 54.9911 78.6523 54.9911C77.8823 54.9911 76.9723 54.4711 76.9723 53.3911C76.9723 52.2611 77.8823 51.8311 78.6523 51.8311C79.2923 51.8311 79.8623 52.0411 80.1823 52.4211V51.7711C80.1823 51.2811 79.7623 50.9611 79.1223 50.9611C78.6023 50.9611 78.1223 51.1511 77.7123 51.5311L77.2323 50.6811C77.8223 50.1611 78.5823 49.9211 79.3423 49.9211C80.4423 49.9211 81.4523 50.3611 81.4523 51.7511V54.8711ZM79.1623 54.1311C79.5723 54.1311 79.9723 53.9911 80.1823 53.7111V53.1111C79.9723 52.8311 79.5723 52.6911 79.1623 52.6911C78.6623 52.6911 78.2523 52.9511 78.2523 53.4211C78.2523 53.8711 78.6623 54.1311 79.1623 54.1311ZM83.982 54.8711H82.712V48.2011H83.982V54.8711ZM91.0599 55.0011C89.1099 55.0011 87.5099 53.6411 87.5099 51.5411C87.5099 49.4311 89.1099 48.0911 91.0599 48.0911C92.4499 48.0911 93.3199 48.7911 93.8199 49.5811L92.6399 50.2211C92.3399 49.7511 91.7699 49.3511 91.0599 49.3511C89.8499 49.3511 88.9699 50.2811 88.9699 51.5411C88.9699 52.8011 89.8499 53.7311 91.0599 53.7311C91.6499 53.7311 92.2099 53.4711 92.4799 53.2211V52.4211H90.7199V51.1811H93.8999V53.7411C93.2199 54.5011 92.2699 55.0011 91.0599 55.0011ZM99.5272 54.8711H98.2572V54.2611C97.9272 54.6311 97.3472 54.9911 96.5572 54.9911C95.4972 54.9911 94.9972 54.4111 94.9972 53.4711V50.0411H96.2672V52.9711C96.2672 53.6411 96.6172 53.8611 97.1572 53.8611C97.6472 53.8611 98.0372 53.5911 98.2572 53.3111V50.0411H99.5272V54.8711ZM104.958 54.8711H103.688V54.3711C103.358 54.7611 102.788 54.9911 102.158 54.9911C101.388 54.9911 100.478 54.4711 100.478 53.3911C100.478 52.2611 101.388 51.8311 102.158 51.8311C102.798 51.8311 103.368 52.0411 103.688 52.4211V51.7711C103.688 51.2811 103.268 50.9611 102.628 50.9611C102.108 50.9611 101.628 51.1511 101.218 51.5311L100.738 50.6811C101.328 50.1611 102.088 49.9211 102.848 49.9211C103.948 49.9211 104.958 50.3611 104.958 51.7511V54.8711ZM102.668 54.1311C103.078 54.1311 103.478 53.9911 103.688 53.7111V53.1111C103.478 52.8311 103.078 52.6911 102.668 52.6911C102.168 52.6911 101.758 52.9511 101.758 53.4211C101.758 53.8711 102.168 54.1311 102.668 54.1311ZM107.488 54.8711H106.218V50.0411H107.488V50.7011C107.828 50.2711 108.428 49.9211 109.028 49.9211V51.1611C108.938 51.1411 108.818 51.1311 108.678 51.1311C108.258 51.1311 107.698 51.3711 107.488 51.6811V54.8711ZM113.991 54.8711H112.721V54.3711C112.391 54.7611 111.821 54.9911 111.191 54.9911C110.421 54.9911 109.511 54.4711 109.511 53.3911C109.511 52.2611 110.421 51.8311 111.191 51.8311C111.831 51.8311 112.401 52.0411 112.721 52.4211V51.7711C112.721 51.2811 112.301 50.9611 111.661 50.9611C111.141 50.9611 110.661 51.1511 110.251 51.5311L109.771 50.6811C110.361 50.1611 111.121 49.9211 111.881 49.9211C112.981 49.9211 113.991 50.3611 113.991 51.7511V54.8711ZM111.701 54.1311C112.111 54.1311 112.511 53.9911 112.721 53.7111V53.1111C112.511 52.8311 112.111 52.6911 111.701 52.6911C111.201 52.6911 110.791 52.9511 110.791 53.4211C110.791 53.8711 111.201 54.1311 111.701 54.1311ZM119.781 54.8711H118.511V51.9511C118.511 51.2811 118.161 51.0511 117.621 51.0511C117.121 51.0511 116.731 51.3311 116.521 51.6211V54.8711H115.251V50.0411H116.521V50.6711C116.831 50.3011 117.421 49.9211 118.211 49.9211C119.271 49.9211 119.781 50.5211 119.781 51.4611V54.8711ZM122.662 54.9911C121.772 54.9911 121.292 54.5311 121.292 53.6711V51.1511H120.492V50.0411H121.292V48.7211H122.572V50.0411H123.552V51.1511H122.572V53.3311C122.572 53.6311 122.732 53.8611 123.012 53.8611C123.202 53.8611 123.382 53.7911 123.452 53.7211L123.722 54.6811C123.532 54.8511 123.192 54.9911 122.662 54.9911ZM126.691 54.9911C125.221 54.9911 124.111 54.0011 124.111 52.4511C124.111 51.0511 125.141 49.9211 126.611 49.9211C128.051 49.9211 129.031 51.0011 129.031 52.5811V52.8611H125.441C125.521 53.4711 126.011 53.9811 126.831 53.9811C127.241 53.9811 127.811 53.8011 128.121 53.5011L128.681 54.3211C128.201 54.7611 127.441 54.9911 126.691 54.9911ZM127.801 52.0011C127.771 51.5411 127.451 50.9311 126.611 50.9311C125.821 50.9311 125.481 51.5211 125.421 52.0011H127.801ZM132.218 54.9911C130.748 54.9911 129.638 54.0011 129.638 52.4511C129.638 51.0511 130.668 49.9211 132.138 49.9211C133.578 49.9211 134.558 51.0011 134.558 52.5811V52.8611H130.968C131.048 53.4711 131.538 53.9811 132.358 53.9811C132.768 53.9811 133.338 53.8011 133.648 53.5011L134.208 54.3211C133.728 54.7611 132.968 54.9911 132.218 54.9911ZM133.328 52.0011C133.298 51.5411 132.978 50.9311 132.138 50.9311C131.348 50.9311 131.008 51.5211 130.948 52.0011H133.328ZM136.686 52.7011H135.566L135.356 48.2011H136.886L136.686 52.7011ZM136.126 54.9711C135.686 54.9711 135.326 54.6011 135.326 54.1711C135.326 53.7311 135.686 53.3611 136.126 53.3611C136.566 53.3611 136.936 53.7311 136.936 54.1711C136.936 54.6011 136.566 54.9711 136.126 54.9711Z" fill="#4E95BB"/>
</g>
<g id="Page_1">
<g id="Group_18">
<g id="Group_5">
<g id="Group_5-2 Clipped">
<mask id="mask0_627_6650" style="mask-type:luminance" maskUnits="userSpaceOnUse" x="156" y="0" width="86" height="85">
<path id="Clip_4" fill-rule="evenodd" clip-rule="evenodd" d="M156.695 0H241.207V84.512H156.695V0Z" fill="white"/>
</mask>
<g mask="url(#mask0_627_6650)">
<g id="Group_5-2">
<path id="Fill_3" d="M238.563 45.8021C238.463 47.0021 240.776 48.5021 240.571 49.6731C240.364 50.8561 237.671 51.4841 237.371 52.6291C237.071 53.7741 239.079 55.6751 238.671 56.7911C238.263 57.9071 235.501 58.0641 234.998 59.1411C234.495 60.2181 236.149 62.4411 235.554 63.4661C234.959 64.4911 232.211 64.1661 231.527 65.1411C230.843 66.1161 232.09 68.5851 231.327 69.4971C230.564 70.4091 227.915 69.6071 227.072 70.4501C226.229 71.2931 227.033 73.9371 226.119 74.7051C225.205 75.4731 222.742 74.2221 221.763 74.9051C220.784 75.5881 221.123 78.3321 220.089 78.9311C219.055 79.5301 216.842 77.8781 215.757 78.3781C214.672 78.8781 214.533 81.6411 213.407 82.0501C212.281 82.4591 210.407 80.4381 209.246 80.7501C208.085 81.0621 207.472 83.7501 206.29 83.9551C205.123 84.1551 203.617 81.8421 202.419 81.9461C201.241 82.0461 200.156 84.5901 198.951 84.5901C197.746 84.5901 196.661 82.0481 195.483 81.9461C194.283 81.8461 192.783 84.1591 191.612 83.9551C190.429 83.7471 189.801 81.0551 188.656 80.7501C187.511 80.4451 185.61 82.4581 184.494 82.0501C183.378 81.6421 183.221 78.8801 182.144 78.3771C181.067 77.8741 178.844 79.5281 177.819 78.9321C176.794 78.3361 177.119 75.5891 176.144 74.9061C175.169 74.2231 172.7 75.4691 171.788 74.7061C170.876 73.9431 171.678 71.2941 170.835 70.4511C169.992 69.6081 167.348 70.4121 166.58 69.4981C165.812 68.5841 167.062 66.1201 166.38 65.1421C165.698 64.1641 162.953 64.5021 162.354 63.4671C161.755 62.4321 163.416 60.2271 162.909 59.1421C162.402 58.0571 159.646 57.9181 159.237 56.7921C158.828 55.6661 160.849 53.7921 160.537 52.6311C160.225 51.4701 157.537 50.8581 157.332 49.6751C157.132 48.5091 159.445 47.0021 159.341 45.8051C159.237 44.6241 156.695 43.5391 156.695 42.3341C156.695 41.1291 159.237 40.0441 159.339 38.8651C159.439 37.6651 157.126 36.1651 157.33 34.9941C157.537 33.8111 160.23 33.1831 160.535 32.0381C160.84 30.8931 158.827 28.9921 159.235 27.8771C159.643 26.7621 162.405 26.6031 162.907 25.5271C163.409 24.4511 161.756 22.2271 162.352 21.2011C162.948 20.1751 165.695 20.5011 166.378 19.5261C167.061 18.5511 165.815 16.0831 166.578 15.1711C167.341 14.2591 169.99 15.0611 170.833 14.2181C171.676 13.3751 170.872 10.7311 171.786 9.96313C172.7 9.19513 175.164 10.4451 176.142 9.76313C177.12 9.08113 176.782 6.33612 177.817 5.73712C178.852 5.13812 181.058 6.79913 182.142 6.29313C183.226 5.78713 183.366 3.03012 184.492 2.62112C185.618 2.21213 187.492 4.23312 188.653 3.92112C189.814 3.60912 190.426 0.921125 191.609 0.716125C192.775 0.516125 194.281 2.82913 195.479 2.72513C196.662 2.62112 197.746 0.078125 198.951 0.078125C200.156 0.078125 201.241 2.62112 202.419 2.72312C203.619 2.82312 205.119 0.509125 206.29 0.714125C207.473 0.922125 208.101 3.61413 209.246 3.91913C210.391 4.22412 212.292 2.21112 213.408 2.61912C214.524 3.02712 214.681 5.78913 215.758 6.29213C216.835 6.79513 219.058 5.14112 220.083 5.73712C221.108 6.33313 220.783 9.08013 221.758 9.76313C222.733 10.4461 225.201 9.20012 226.114 9.96313C227.027 10.7261 226.223 13.3751 227.066 14.2181C227.909 15.0611 230.554 14.2571 231.321 15.1711C232.088 16.0851 230.839 18.5491 231.521 19.5271C232.203 20.5051 234.948 20.1671 235.547 21.2021C236.146 22.2371 234.485 24.4421 234.991 25.5261C235.497 26.6101 238.254 26.7511 238.664 27.8761C239.074 29.0011 237.052 30.8761 237.364 32.0381C237.676 33.2001 240.364 33.8111 240.564 34.9941C240.764 36.1611 238.452 37.6671 238.556 38.8651C238.656 40.0431 241.199 41.1281 241.199 42.3331C241.199 43.5381 238.665 44.6241 238.563 45.8021Z" fill="#D7D29C"/>
</g>
</g>
</g>
</g>
<circle id="Ellipse_1" cx="199.528" cy="42.8365" r="36.317" fill="#CCC581"/>
<g id="Mask_Group_1 Clipped">
<mask id="mask1_627_6650" style="mask-type:luminance" maskUnits="userSpaceOnUse" x="165" y="9" width="69" height="68">
<circle id="Ellipse_3" cx="199.695" cy="43" r="34" fill="white"/>
</mask>
<g mask="url(#mask1_627_6650)">
<g id="Mask_Group_1">
<circle id="Ellipse_2" cx="199.531" cy="42.8355" r="33.523" fill="#4E95BB"/>
<g id="Gary">
<g id="Group_1-2">
<g id="shirt-2">
<g id="left_hand-2">
<path id="left_hand-3" d="M187.503 76.4763L192.846 88.4063L195.723 90.4633C195.723 90.4633 195.38 94.8513 195.106 96.0163C194.887 96.8204 194.54 97.584 194.079 98.2783L192.846 98.0733L190.791 93.1363V92.1083C190.791 92.1083 185.791 86.6923 183.804 84.2923C182.558 82.7772 181.393 81.1981 180.311 79.5613C180.311 79.5613 179.969 77.5733 181.338 76.8873C182.707 76.2013 187.503 76.4763 187.503 76.4763Z" fill="#EECB9D"/>
<g id="Clip Clipped">
<mask id="mask2_627_6650" style="mask-type:luminance" maskUnits="userSpaceOnUse" x="180" y="76" width="16" height="23">
<path id="left_hand" fill-rule="evenodd" clip-rule="evenodd" d="M187.503 76.4763L192.846 88.4063L195.723 90.4633C195.723 90.4633 195.38 94.8513 195.106 96.0163C194.887 96.8204 194.54 97.584 194.079 98.2783L192.846 98.0733L190.791 93.1363V92.1083C190.791 92.1083 185.791 86.6923 183.804 84.2923C182.558 82.7772 181.393 81.1981 180.311 79.5613C180.311 79.5613 179.969 77.5733 181.338 76.8873C182.707 76.2013 187.503 76.4763 187.503 76.4763Z" fill="white"/>
</mask>
<g mask="url(#mask2_627_6650)">
<g id="Clip">
<path id="Shape_81" opacity="0.999" d="M195.104 96.4293C195.104 96.4293 194.727 93.1043 194.077 92.1103C193.565 91.3283 192.714 89.9953 192.377 89.4613C192.292 89.3403 192.23 89.2303 192.23 89.2303L185.75 77.4473C184.659 77.4873 183.582 77.7178 182.569 78.1283C181.672 78.6553 180.955 79.4428 180.515 80.3863L179.898 79.5633C179.898 79.5633 181.165 76.9583 182.775 76.2723C183.965 75.7653 186.317 76.2333 187.461 76.5113L188.734 76.2723L193.255 88.2023L193.213 88.3553C193.356 88.3813 193.461 88.4083 193.461 88.4083L196.132 90.6703L197.365 96.4293H195.104Z" fill="#EEB575"/>
</g>
</g>
</g>
</g>
<g id="shirt-3">
<path id="shirt-4" d="M194.697 53.2352L209.903 52.8242L215.862 53.4412L218.328 55.0872L218.739 57.7612L223.876 67.0172L221.821 68.4572L223.465 67.8402L222.849 69.0742H224.287L225.109 71.3372L225.52 74.2162L226.342 74.4222L226.753 76.4792L226.137 78.3302L225.11 79.3592V77.5082C225.11 77.5082 222.37 76.2082 220.589 76.4802C219.596 76.6174 218.627 76.8944 217.712 77.3032L216.89 78.5372L215.657 77.5082L215.862 74.4232L216.479 73.8062L215.451 72.7772L216.273 71.7492L215.451 72.1602L214.835 70.9262L213.397 87.3812C213.397 87.3812 206.136 87.6552 202.297 88.2042C199.638 88.5544 196.963 88.7604 194.283 88.8212L194.077 87.9982L194.899 87.5872L193.255 87.1762L194.077 86.7652L192.844 86.5592L191.611 76.4812L190.378 70.1052L188.734 74.4242L189.761 75.0412V77.3032L189.35 78.5372L188.734 79.1542L187.707 77.0972C187.707 77.0972 184.007 75.6572 182.364 77.3032C181.619 78.0013 180.932 78.7581 180.309 79.5662L180.926 80.3892L179.282 81.0062L177.227 77.5062L178.255 73.3932L180.104 72.7762L184.83 61.4642L186.063 55.7052L188.529 54.2652L194.697 53.2352Z" fill="#DBE0EA"/>
<g id="Clip-2 Clipped">
<mask id="mask3_627_6650" style="mask-type:luminance" maskUnits="userSpaceOnUse" x="177" y="52" width="50" height="37">
<path id="shirt" fill-rule="evenodd" clip-rule="evenodd" d="M194.697 53.2352L209.903 52.8242L215.862 53.4412L218.328 55.0872L218.739 57.7612L223.876 67.0172L221.821 68.4572L223.465 67.8402L222.849 69.0742H224.287L225.109 71.3372L225.52 74.2162L226.342 74.4222L226.753 76.4792L226.137 78.3302L225.11 79.3592V77.5082C225.11 77.5082 222.37 76.2082 220.589 76.4802C219.596 76.6174 218.627 76.8944 217.712 77.3032L216.89 78.5372L215.657 77.5082L215.862 74.4232L216.479 73.8062L215.451 72.7772L216.273 71.7492L215.451 72.1602L214.835 70.9262L213.397 87.3812C213.397 87.3812 206.136 87.6552 202.297 88.2042C199.638 88.5544 196.963 88.7604 194.283 88.8212L194.077 87.9982L194.899 87.5872L193.255 87.1762L194.077 86.7652L192.844 86.5592L191.611 76.4812L190.378 70.1052L188.734 74.4242L189.761 75.0412V77.3032L189.35 78.5372L188.734 79.1542L187.707 77.0972C187.707 77.0972 184.007 75.6572 182.364 77.3032C181.619 78.0013 180.932 78.7581 180.309 79.5662L180.926 80.3892L179.282 81.0062L177.227 77.5062L178.255 73.3932L180.104 72.7762L184.83 61.4642L186.063 55.7052L188.529 54.2652L194.697 53.2352Z" fill="white"/>
</mask>
<g mask="url(#mask3_627_6650)">
<g id="Clip-2">
<circle id="Ellipse_6" cx="202.188" cy="60.1133" r="0.5" fill="white"/>
<circle id="Ellipse_6_copy" cx="202.391" cy="65.2539" r="0.5" fill="white"/>
<circle id="Ellipse_6_copy_2" cx="202.602" cy="69.7812" r="0.5" fill="white"/>
<circle id="Ellipse_6_copy_3" cx="202.805" cy="74.7148" r="0.5" fill="white"/>
<path id="Shape_56" opacity="0.6" d="M190.796 66.3965L192.233 64.957L190.59 67.4248L190.173 68.3975L190.384 70.5098L190.178 73.8008L190.795 76.0635L189.768 78.5312L187.713 77.0918C186.351 76.8751 184.964 76.8751 183.603 77.0918C181.356 77.4498 178.906 81.567 178.877 81.6162L178.055 79.3564L179.288 79.7676C180.368 78.3213 181.686 77.0696 183.188 76.0674C184.321 75.4561 185.648 75.3086 186.888 75.6562L187.504 74.2168L182.37 72.5693H186.686L188.945 71.542L187.713 70.1016H188.945L187.508 68.0449L189.151 68.8672L188.535 67.8398L189.562 68.457L189.779 67.3691C189.672 66.5208 189.563 65.5861 189.562 65.3691C189.562 64.9601 190.377 66.383 190.385 66.3965L191.618 63.7227L190.796 66.3965ZM215.251 71.541L214.634 76.0664L214.427 77.9131L212.372 80.3809L213.194 70.7188L212.955 68.9131L212.163 70.1025V75.8613L211.752 75.0381L211.345 70.5137L209.701 70.7197L209.29 72.9814L208.879 70.9238H207.855L207.649 73.1875L207.238 70.7197L204.772 71.1299L203.539 70.1025L204.772 70.5137L211.142 70.1025L212.58 68.251V65.9883L215.251 71.541ZM220.391 55.499L226.555 67.8398C226.567 67.8957 228.147 75.3459 228.198 75.8613C228.249 76.3763 226.144 78.125 226.144 78.125C226.144 78.125 222.954 76.3245 221.207 76.2725V76.2715C219.766 76.3902 218.366 76.8111 217.098 77.5059H216.07L216.688 76.8887C217.485 76.4906 218.31 76.1471 219.154 75.8613C220.652 75.6582 222.166 75.5892 223.676 75.6553V74.0137L219.154 73.8047C219.677 73.4226 220.226 73.0783 220.798 72.7754C221.055 72.7244 223.059 72.9814 223.059 72.9814V71.1309H221.002L222.646 70.1025H219.563L221.618 68.6621L220.592 68.457L221.413 66.3994L217.514 58.3779L217.924 54.0586L220.391 55.499ZM198.61 69.4854L197.789 70.7197L198.404 74.833L197.168 76.6855H192.646L196.962 76.0684L197.783 74.6289L196.962 71.1289H195.112L194.701 74.2158L193.88 71.541H193.057L192.856 74.2158L192.034 71.7471L190.391 72.1582L190.597 71.1309L196.967 70.5137L197.994 69.2793L197.378 66.6055L198.61 69.4854ZM201.479 58.584L197.779 57.5557L191.203 58.9951L195.726 54.0586L201.479 58.584ZM211.965 55.0879L211.559 57.5557L208.271 56.7334L201.484 58.79L209.087 53.4424L211.143 52.4141L211.965 55.0879Z" fill="#C8D1E0"/>
<path id="Shape_86" d="M184.633 54.8828C185.928 55.4967 187.056 56.4139 187.921 57.5568C189.205 59.3568 190.952 62.8568 190.798 63.3158C190.72 64.2742 190.72 65.2374 190.798 66.1958" stroke="#C8D0DF" stroke-dasharray="4"/>
<g id="Shape_87">
<path id="Shape" d="M209.071 69.96L205.073 70.0986L205.039 69.0986L209.037 68.9609L209.071 69.96ZM211.982 66.4873C211.994 66.5435 212.009 66.6237 212.028 66.7197C212.048 66.816 212.071 66.9284 212.095 67.0488L212.245 67.8047C212.269 67.9252 212.292 68.0375 212.312 68.1338C212.331 68.2302 212.346 68.3109 212.357 68.3672C212.368 68.4212 212.376 68.4527 212.376 68.4551L212.343 68.4883H212.342C212.34 68.49 212.339 68.4923 212.337 68.4941C212.335 68.496 212.333 68.4981 212.331 68.5H212.33C212.328 68.5017 212.327 68.504 212.325 68.5059L212.313 68.5176L212.31 68.5205C212.308 68.5225 212.306 68.5252 212.304 68.5273L212.275 68.5557L211.031 69.8008L210.323 69.0947L211.29 68.127L211.157 67.4619L207.778 67.7158L207.703 66.7188L211.692 66.4189L211.694 66.4521L211.965 66.3984C211.965 66.4001 211.971 66.4326 211.982 66.4873ZM205.781 67.8643L204.811 67.9375L204.884 68.9688L203.887 69.04L203.751 67.1318L203.75 67.1299V67.1279L203.749 67.1143V67.1055L203.748 67.0986V67.0908C203.748 67.0879 203.747 67.0848 203.747 67.082L203.746 67.0654V67.0645C203.745 67.0538 203.745 67.0445 203.744 67.0371C203.743 67.023 203.742 67.0152 203.742 67.0146C203.742 67.0146 203.75 67.0137 203.765 67.0127C203.768 67.0125 203.772 67.012 203.776 67.0117L203.79 67.0107H203.799L203.807 67.0098H203.809C203.811 67.0096 203.812 67.0089 203.814 67.0088L203.844 67.0068H203.853L203.854 67.0059H203.858L205.706 66.8672L205.781 67.8643Z" fill="#C8D0DF"/>
</g>
<g id="Shape_88">
<path id="Shape_2" d="M194.327 70.5615L194.288 70.5654L194.185 70.5762C194.182 70.5764 194.179 70.5768 194.177 70.5771H194.175C194.151 70.5796 194.125 70.582 194.097 70.585H194.096C194.067 70.5879 194.036 70.5913 194.004 70.5947H194.001C193.951 70.5999 193.896 70.6062 193.837 70.6123C193.82 70.6141 193.802 70.6154 193.784 70.6172H193.781L193.779 70.6182H193.774C193.754 70.6202 193.734 70.6229 193.713 70.625C193.692 70.6271 193.671 70.6296 193.649 70.6318H193.646C193.643 70.6321 193.641 70.6326 193.639 70.6328L193.509 70.6455C193.462 70.6505 193.413 70.656 193.363 70.6611L193.212 70.6768H193.209C193.107 70.6874 193.001 70.6989 192.894 70.71H192.891C192.837 70.7155 192.784 70.721 192.729 70.7266H192.727C192.7 70.7294 192.673 70.7326 192.646 70.7354L192.585 70.7412L192.582 70.7422C192.576 70.7428 192.57 70.7436 192.564 70.7441H192.559C192.553 70.7447 192.547 70.7456 192.542 70.7461L192.523 70.748H192.521C192.508 70.7494 192.494 70.7506 192.48 70.752H192.479C192.288 70.7718 192.097 70.7919 191.917 70.8105L191.91 70.8115C191.706 70.8327 191.515 70.8521 191.351 70.8691H191.35C191.184 70.8862 191.047 70.9011 190.95 70.9111C190.854 70.9211 190.798 70.9268 190.798 70.9268L190.734 70.4795L190.752 70.4766L190.695 69.9316L194.225 69.5664L194.327 70.5615ZM197.188 67.3018C197.204 67.3524 197.229 67.425 197.258 67.5117C197.287 67.5985 197.32 67.7001 197.356 67.8086L197.682 68.7842C197.71 68.8708 197.734 68.9435 197.751 68.9941C197.768 69.0447 197.777 69.0742 197.777 69.0742L196.75 70.3076C196.749 70.3077 196.742 70.3085 196.731 70.3096L196.71 70.3125C196.703 70.3132 196.694 70.3136 196.686 70.3145C196.684 70.3146 196.683 70.3153 196.682 70.3154H196.681C196.678 70.3157 196.676 70.3162 196.674 70.3164C196.671 70.3167 196.668 70.3161 196.665 70.3164C196.662 70.3167 196.659 70.3171 196.656 70.3174C196.654 70.3176 196.651 70.3181 196.648 70.3184H196.647L196.621 70.3213H196.62C196.619 70.3214 196.617 70.3221 196.616 70.3223L196.607 70.3232H196.602L196.598 70.3242H196.593L196.482 70.3359L196.31 70.3535L196.263 69.9023L195.981 69.668L196.21 69.3936L196.207 69.3594L196.242 69.3555L196.653 68.8613L196.471 68.3135L196.003 68.3701L195.883 67.3779L197.161 67.2227C197.161 67.2227 197.171 67.2514 197.188 67.3018ZM194.021 68.6104L190.524 69.0342L190.383 68.0439L193.9 67.6172L194.021 68.6104Z" fill="#C8D0DF"/>
</g>
<path id="Shape_89" d="M211.14 70.1016L211.551 75.2436L204.975 76.4776L204.359 70.7186" stroke="#C8D0DF" stroke-dasharray="4"/>
<path id="Shape_90" d="M196.551 70.7188L197.373 74.6267L196.551 75.8608L191.414 76.2727" stroke="#C8D0DF" stroke-dasharray="4"/>
<path id="Shape_91" d="M216.277 52.6172C215.529 54.0685 214.91 55.583 214.428 57.1432C214.069 58.7372 213.195 62.9022 213.195 63.5192" stroke="#C8D0DF" stroke-dasharray="4"/>
<path id="Shape_92" d="M215.039 55.5L217.299 56.323L216.477 59.202L217.71 58.379L217.299 58.996L218.532 61.053L220.998 66.812L219.971 68.252L220.998 68.869L219.149 70.103L220.998 70.72L220.587 71.337L222.642 71.954V72.777" stroke="#C8D0DF" stroke-dasharray="4"/>
<path id="Shape_93" d="M224.294 73.5977C224.294 73.5977 224.448 75.6027 224.5 76.0657C224.552 76.5287 223.883 76.8887 223.883 76.8887" stroke="#A5AFC1" stroke-dasharray="4"/>
<path id="Shape_56_copy" opacity="0.29" d="M186.892 76.8867C188.433 76.9867 190.385 79.1494 190.385 79.1494L181.754 81.0049L178.672 81.6221L180.933 78.5371C180.933 78.5371 185.35 76.787 186.892 76.8867ZM222.03 76.8906C222.03 76.8906 225.831 77.4569 226.346 77.9189C226.792 78.3668 227.204 78.848 227.578 79.3584L226.345 81.0049L216.893 78.7422L216.07 77.9199C216.793 77.5683 217.55 77.2923 218.33 77.0967C219.201 76.943 222.018 76.8908 222.03 76.8906Z" fill="black"/>
<path id="Shape_85" opacity="0.2" d="M201.07 58.995C201.07 58.995 201.789 82.648 201.892 83.677L202.303 87.791V88.614L203.125 89.025C203.125 89.025 201.841 76.838 201.892 74.625C201.943 72.412 201.532 61.204 201.481 60.433C201.43 59.662 201.481 58.582 201.481 58.582L201.07 58.995Z" fill="black"/>
</g>
</g>
</g>
</g>
<g id="clipboard">
<g id="Shape_52-2">
<path id="Shape_52-3" d="M220.588 79.5631L217.506 91.4951L201.477 86.3531L205.792 71.9531L220.588 79.5631Z" fill="#7791E6"/>
</g>
<g id="Shape_53-2">
<path id="Shape_53-3" d="M206.617 72.7773L219.358 79.5643L217.098 90.8773L202.508 86.1463L206.617 72.7773Z" fill="white"/>
</g>
<path id="Shape_54" d="M204.555 76.4766L206.199 77.0936L204.966 81.0016L203.117 80.3846V79.9736L204.761 80.5906L205.789 77.2996L204.35 76.8886L204.555 76.4766Z" fill="#8B8B8B"/>
</g>
<g id="right_hand-2">
<path id="right_hand-3" d="M208.874 91.6984L207.025 91.4924L206.614 90.4644H206.203L205.792 89.2304L205.176 89.0244L204.148 87.5844V87.1734H205.381L209.491 85.3224C209.29 85.2311 209.069 85.189 208.848 85.1994C208.577 85.2028 208.308 85.2438 208.048 85.3214C207.654 85.446 207.245 85.5173 206.832 85.5334C206.336 85.5647 205.861 85.3287 205.586 84.9144C205.402 84.6663 205.263 84.3877 205.175 84.0914C205.141 83.9394 205.175 83.8864 205.175 83.8854C205.774 83.6786 206.395 83.5407 207.024 83.4744C207.91 83.4064 210.491 83.0664 210.517 83.0634L212.777 84.0914L217.856 77.0514C219.044 76.6942 220.269 76.4803 221.507 76.4144C221.751 76.4113 221.993 76.4324 222.232 76.4774C223.306 76.7581 224.334 77.1944 225.281 77.7724L225.108 81.2084L215.039 87.7894L214.217 89.0234L208.874 91.6984Z" fill="#EECB9D"/>
<g id="Clip-5 Clipped">
<mask id="mask4_627_6650" style="mask-type:luminance" maskUnits="userSpaceOnUse" x="204" y="76" width="22" height="16">
<path id="right_hand" fill-rule="evenodd" clip-rule="evenodd" d="M208.874 91.6984L207.025 91.4924L206.614 90.4644H206.203L205.792 89.2304L205.176 89.0244L204.148 87.5844V87.1734H205.381L209.491 85.3224C209.29 85.2311 209.069 85.189 208.848 85.1994C208.577 85.2028 208.308 85.2438 208.048 85.3214C207.654 85.446 207.245 85.5173 206.832 85.5334C206.336 85.5647 205.861 85.3287 205.586 84.9144C205.402 84.6663 205.263 84.3877 205.175 84.0914C205.141 83.9394 205.175 83.8864 205.175 83.8854C205.774 83.6786 206.395 83.5407 207.024 83.4744C207.91 83.4064 210.491 83.0664 210.517 83.0634L212.777 84.0914L217.856 77.0514C219.044 76.6942 220.269 76.4803 221.507 76.4144C221.751 76.4113 221.993 76.4324 222.232 76.4774C223.306 76.7581 224.334 77.1944 225.281 77.7724L225.108 81.2084L215.039 87.7894L214.217 89.0234L208.874 91.6984Z" fill="white"/>
</mask>
<g mask="url(#mask4_627_6650)">
<g id="Clip-5">
<path id="Shape_82" d="M218.533 76.8887C218.533 76.8887 220.852 75.7716 222.233 76.0654C223.614 76.3594 225.726 77.0947 225.726 77.0947L226.137 81.416L215.656 88.2041L215.246 89.6445L209.491 92.3164H207.025L205.793 89.6406L204.766 88.6162L205.793 88.4102L207.437 87.999L209.696 90.8789C211.238 90.2683 212.747 89.5802 214.219 88.8164C214.309 88.3406 214.309 87.8518 214.219 87.376C214.273 87.3372 223.261 80.9101 223.672 79.9766C223.921 79.1086 223.991 78.1987 223.878 77.3027C223.137 76.6739 222.171 76.3756 221.205 76.4775C220.012 76.7149 218.843 77.0584 217.712 77.5049L218.533 76.8887ZM208.876 84.0859C209.64 84.2505 210.394 84.4567 211.136 84.7031C210.398 85.0195 209.644 85.2945 208.876 85.5264C208.379 85.6138 206.231 85.9336 206.205 85.9375L205.383 84.7031C205.993 84.825 206.621 84.8249 207.231 84.7031C207.719 84.3622 208.285 84.1498 208.876 84.0859Z" fill="#EEB575"/>
</g>
</g>
</g>
</g>
<path id="Rectangle_1-2" d="M190.922 68.0527L195.933 67.4297L196.213 69.6867L191.202 70.3097L190.922 68.0527Z" fill="white"/>
<path id="Path_1" d="M192.276 68.5443C192.335 68.5374 192.394 68.5421 192.451 68.5576C192.5 68.5702 192.544 68.5953 192.58 68.6306C192.616 68.6704 192.643 68.717 192.659 68.7677L192.562 68.8072C192.548 68.7705 192.527 68.7368 192.5 68.7076C192.475 68.6823 192.444 68.6635 192.41 68.6541C192.37 68.6424 192.328 68.6394 192.286 68.6443C192.238 68.6476 192.19 68.6602 192.147 68.6823C192.114 68.7004 192.086 68.7258 192.064 68.7557C192.044 68.7838 192.028 68.8154 192.018 68.8489C192.001 68.907 191.995 68.968 192.002 69.0282C192.007 69.0971 192.028 69.164 192.063 69.2231C192.094 69.2707 192.14 69.3071 192.193 69.3265C192.247 69.3465 192.304 69.3537 192.361 69.3474C192.412 69.3422 192.461 69.3269 192.506 69.303C192.543 69.2845 192.577 69.2601 192.606 69.2307L192.589 69.0666L192.333 69.0931L192.322 68.9931L192.694 68.9546L192.728 69.277C192.679 69.3246 192.623 69.3641 192.561 69.3944C192.505 69.4244 192.442 69.4438 192.379 69.4516C192.297 69.461 192.214 69.4506 192.138 69.4206C192.066 69.3936 192.004 69.3445 191.961 69.2808C191.917 69.211 191.89 69.1309 191.883 69.0483C191.874 68.9655 191.884 68.8813 191.912 68.8029C191.937 68.7293 191.985 68.6656 192.049 68.6218C192.117 68.5774 192.195 68.5509 192.276 68.5443ZM194.752 68.5727C194.789 68.619 194.824 68.6651 194.857 68.7111C194.878 68.6626 194.907 68.6071 194.941 68.5453L195.084 68.2703L195.222 68.256L194.92 68.7998L194.959 69.1738L194.845 69.1786L194.807 68.8114L194.414 68.3397L194.556 68.325L194.752 68.5727ZM194.026 68.3788C194.086 68.3702 194.147 68.3715 194.206 68.3837C194.249 68.3953 194.287 68.4214 194.314 68.457C194.342 68.4943 194.36 68.5396 194.365 68.5863C194.372 68.6443 194.356 68.7026 194.321 68.7489C194.276 68.8027 194.213 68.8395 194.145 68.8535C194.171 68.861 194.196 68.872 194.219 68.8861C194.26 68.9166 194.299 68.9523 194.331 68.9923L194.506 69.2187L194.36 69.2338L194.224 69.0613C194.185 69.0125 194.153 68.9747 194.128 68.9485C194.109 68.9276 194.086 68.9094 194.062 68.8955C194.045 68.8868 194.026 68.8813 194.007 68.8786L193.808 68.8992L193.848 69.2868L193.732 69.2988L193.64 68.4188L194.026 68.3788ZM193.639 69.3074L193.507 69.3211L193.377 69.0626L193.01 69.1006L192.941 69.3797L192.817 69.3925L193.064 68.4764L193.189 68.4635L193.639 69.3074ZM193.106 68.7362L193.036 69.0026L193.334 68.9718L193.217 68.7385C193.182 68.6672 193.154 68.6089 193.136 68.5633C193.13 68.6216 193.12 68.6794 193.106 68.7362ZM193.795 68.7876L194.045 68.7617C194.087 68.7604 194.129 68.7513 194.168 68.7362C194.195 68.7238 194.216 68.7029 194.23 68.6768C194.244 68.6521 194.25 68.6237 194.248 68.5954C194.244 68.5575 194.224 68.5231 194.193 68.501C194.148 68.4751 194.095 68.4663 194.045 68.476L193.766 68.5049L193.795 68.7876Z" fill="black"/>
</g>
<g id="face-2">
<g id="Shape_29-2">
<path id="Shape_29-3" d="M204.143 51.7936L209.28 50.7656L211.54 56.9356L208.663 55.7016L206.913 55.8016L201.47 58.9946L198.593 56.5266L197.154 56.3206L192.633 58.3776L194.893 51.3846L204.143 51.7936Z" fill="#E4E8F1"/>
<g id="Clip-6 Clipped">
<mask id="mask5_627_6650" style="mask-type:luminance" maskUnits="userSpaceOnUse" x="192" y="50" width="20" height="9">
<path id="Shape_29" fill-rule="evenodd" clip-rule="evenodd" d="M204.143 51.7936L209.28 50.7656L211.54 56.9356L208.663 55.7016L206.913 55.8016L201.47 58.9946L198.593 56.5266L197.154 56.3206L192.633 58.3776L194.893 51.3846L204.143 51.7936Z" fill="white"/>
</mask>
<g mask="url(#mask5_627_6650)">
<g id="Clip-6">
<path id="Shape_57" d="M208.869 50.1484L209.897 53.4394L202.297 57.1394L208.869 50.1484Z" fill="#C8D1E0"/>
<path id="Shape_58" opacity="0.502" d="M200.857 58.1708L195.72 54.0568L194.487 51.3828L192.227 58.1698L200.857 58.1708Z" fill="white"/>
</g>
</g>
</g>
</g>
<g id="Shape_43-2">
<path id="Shape_43-3" d="M195.923 27.9351C195.546 27.6951 192.258 24.0271 189.347 24.2351C186.436 24.4431 184.381 25.5351 184.621 27.3201C184.861 29.1051 187.361 30.7141 187.703 31.0201C188.768 31.5667 189.866 32.0476 190.991 32.4601L194.073 30.8151C194.073 30.8151 196.3 28.1751 195.923 27.9351Z" fill="#C2BD88"/>
<g id="Clip-7 Clipped">
<mask id="mask6_627_6650" style="mask-type:luminance" maskUnits="userSpaceOnUse" x="184" y="24" width="12" height="9">
<path id="Shape_43" fill-rule="evenodd" clip-rule="evenodd" d="M195.923 27.9351C195.546 27.6951 192.258 24.0271 189.347 24.2351C186.436 24.4431 184.381 25.5351 184.621 27.3201C184.861 29.1051 187.361 30.7141 187.703 31.0201C188.768 31.5667 189.866 32.0476 190.991 32.4601L194.073 30.8151C194.073 30.8151 196.3 28.1751 195.923 27.9351Z" fill="white"/>
</mask>
<g mask="url(#mask6_627_6650)">
<g id="Clip-7">
<path id="Shape_51" d="M195.102 27.5164L184.625 27.3164C184.625 27.3164 185.159 31.3894 186.269 32.4584C187.379 33.5274 192.639 34.3094 192.639 34.3094C192.639 34.3094 198.187 29.1674 197.365 28.7564C196.543 28.3454 195.102 27.5164 195.102 27.5164Z" fill="#B9B473"/>
</g>
</g>
</g>
</g>
<path id="hair-2" d="M191.813 31.6365C191.813 31.6365 191.32 32.4595 189.964 32.0475C188.608 31.6355 188.32 31.8415 188.32 31.8415L189.964 32.6645L188.731 33.0755C189.454 33.4275 190.211 33.7033 190.991 33.8985C191.361 33.8575 191.607 34.5155 191.607 34.5155L191.401 35.1325L192.429 35.5435V36.9835L193.456 35.9545L194.072 30.8125L191.813 31.6365Z" fill="#644330"/>
<g id="neck-2">
<path id="neck-3" d="M208.866 53.2318L201.266 57.9628L196.745 53.2318L196.539 50.7638L207.839 48.0898L208.866 53.2318Z" fill="#E8BE8A"/>
<g id="Clip-8 Clipped">
<mask id="mask7_627_6650" style="mask-type:luminance" maskUnits="userSpaceOnUse" x="196" y="48" width="13" height="10">
<path id="neck" fill-rule="evenodd" clip-rule="evenodd" d="M208.866 53.2318L201.266 57.9628L196.745 53.2318L196.539 50.7638L207.839 48.0898L208.866 53.2318Z" fill="white"/>
</mask>
<g mask="url(#mask7_627_6650)">
<g id="Clip-8">
<path id="Shape_36" opacity="0.999" d="M203.113 54.876C203.112 54.8762 201.388 55.2868 201.059 55.2871C200.73 55.2871 200.031 54.4648 200.031 54.4648L203.113 54.876ZM209.49 53.2324L207.023 55.083C207.277 54.0039 207.415 52.9005 207.433 51.792C207.31 50.9281 206.61 51.1748 206.61 51.1748C206.567 51.1925 202.043 53.0261 200.243 53.0264C198.841 52.9481 197.457 52.6721 196.133 52.207V51.1748L208.668 48.707L209.49 53.2324Z" fill="#E2B076"/>
</g>
</g>
</g>
</g>
<g id="face-3">
<path id="face-4" d="M192.844 48.7114C192.963 45.6053 193.306 42.5119 193.872 39.4554C194.201 38.7554 193.379 36.3294 193.255 35.7554C193.089 34.5277 193.089 33.2832 193.255 32.0554C193.461 30.9404 197.2 31.1044 199.42 31.0224C201.64 30.9404 205.914 30.3224 207.02 31.4334C207.714 32.1487 208.271 32.9852 208.664 33.9014C208.664 33.9014 208.647 36.3594 208.646 38.1754C208.892 37.9657 209.189 37.8253 209.507 37.7684C210.617 37.5624 211.192 37.4804 211.356 38.7964C211.552 39.7001 211.012 40.601 210.123 40.8534C209.663 40.9174 209.195 40.8875 208.747 40.7654C208.93 42.3214 209.354 45.9524 209.486 46.4484C209.65 47.0654 209.086 48.4134 206.815 49.7394C204.555 51.0554 203.281 51.7554 197.362 52.2074C197.281 52.2134 197.2 52.2164 197.12 52.2164C194.517 52.2174 192.865 48.9774 192.844 48.7114Z" fill="#F4CA96"/>
<g id="Clip-9 Clipped">
<mask id="mask8_627_6650" style="mask-type:luminance" maskUnits="userSpaceOnUse" x="192" y="30" width="20" height="23">
<path id="face" fill-rule="evenodd" clip-rule="evenodd" d="M192.844 48.7114C192.963 45.6053 193.306 42.5119 193.872 39.4554C194.201 38.7554 193.379 36.3294 193.255 35.7554C193.089 34.5277 193.089 33.2832 193.255 32.0554C193.461 30.9404 197.2 31.1044 199.42 31.0224C201.64 30.9404 205.914 30.3224 207.02 31.4334C207.714 32.1487 208.271 32.9852 208.664 33.9014C208.664 33.9014 208.647 36.3594 208.646 38.1754C208.892 37.9657 209.189 37.8253 209.507 37.7684C210.617 37.5624 211.192 37.4804 211.356 38.7964C211.552 39.7001 211.012 40.601 210.123 40.8534C209.663 40.9174 209.195 40.8875 208.747 40.7654C208.93 42.3214 209.354 45.9524 209.486 46.4484C209.65 47.0654 209.086 48.4134 206.815 49.7394C204.555 51.0554 203.281 51.7554 197.362 52.2074C197.281 52.2134 197.2 52.2164 197.12 52.2164C194.517 52.2174 192.865 48.9774 192.844 48.7114Z" fill="white"/>
</mask>
<g mask="url(#mask8_627_6650)">
<g id="Clip-9">
<path id="Shape_37" opacity="0.996" d="M209.495 38.6328C210.163 38.3038 210.278 38.6066 210.487 38.9736C210.565 39.195 210.577 39.4339 210.523 39.6621C210.521 39.6558 210.321 39.028 209.907 39.0449C209.207 39.073 208.879 40.8965 208.879 40.8965C208.888 40.9347 210.478 47.3727 210.112 48.2959C208.573 52.1659 202.855 52.415 201.406 52.415C201.191 52.42 201.07 52.4141 201.07 52.4141C202.853 51.5857 204.57 50.6229 206.207 49.5342C207.269 49.0519 207.98 48.0243 208.057 46.8604C208.133 44.3854 208.468 39.8672 208.468 39.8672C208.74 39.4019 209.087 38.9843 209.495 38.6328ZM204.354 47.2754C203.738 48.0273 203.049 48.716 202.298 49.332C201.048 49.7776 199.724 49.9744 198.398 49.9111C197.776 49.9257 197.153 49.8687 196.544 49.7412C195.157 49.3813 197.006 49.3299 197.571 48.918C197.93 48.6034 198.152 48.1607 198.188 47.6846L204.354 43.9844V47.2754ZM197.432 36.6826V40.5898L197.231 40.5791V42.2354L196.408 41.8242L196.831 40.5537L193.531 40.3848V36.4766L197.432 36.6826ZM206.478 36.2695C206.505 36.2823 207.575 38.0967 207.25 39.2812C206.966 40.3042 202.732 40.8125 201.441 40.8125C201.338 40.8154 201.233 40.8089 201.131 40.7939C200.514 40.6702 200.31 38.9838 200.515 37.9141C200.698 37.1297 200.975 36.3702 201.34 35.6523L206.478 36.2695Z" fill="#F0B97C"/>
<path id="Shape_95" opacity="0.8" d="M207.85 39.0435V34.5185L206.617 35.3415V33.6955C206.363 33.7899 206.102 33.8631 205.835 33.9145C205.827 33.916 205.818 33.916 205.809 33.9145C205.803 33.9145 205.8 33.9085 205.8 33.9035C205.8 33.8225 206 32.8845 206.006 32.8755L205.546 32.9905L205.39 32.0525L202.102 32.4635L201.07 32.2455C200.579 32.6219 200.024 32.9052 199.43 33.0815C197.239 33.317 195.026 33.2476 192.854 32.8755C192.237 32.6695 187.922 29.9955 187.922 29.9955L186.273 26.4975C186.273 26.4975 189.664 25.9315 190.173 25.8795C190.682 25.8275 204.356 29.3795 204.356 29.3795C204.356 29.3795 203.556 30.2095 202.536 31.0865L204.356 31.0245L208.056 31.2305L208.878 38.0185L207.851 39.0465L207.85 39.0435Z" fill="black"/>
</g>
</g>
</g>
</g>
<g id="Shape_39-2">
<path id="Shape_39-3" d="M197.57 44.5964C197.803 44.9693 197.944 45.3923 197.981 45.8304C197.919 46.3947 197.78 46.948 197.57 47.4754C198.656 47.6894 199.773 47.6894 200.858 47.4754C202.708 47.1224 203.265 47.0934 203.735 45.6244C203.979 45.0362 204.118 44.4097 204.146 43.7734C204.146 43.7734 204.205 44.3024 202.502 44.5964C200.862 44.7539 199.211 44.7539 197.57 44.5964Z" fill="white"/>
<g id="Clip-10 Clipped">
<mask id="mask9_627_6650" style="mask-type:luminance" maskUnits="userSpaceOnUse" x="197" y="43" width="8" height="5">
<path id="Shape_39" fill-rule="evenodd" clip-rule="evenodd" d="M197.57 44.5964C197.803 44.9693 197.944 45.3923 197.981 45.8304C197.919 46.3947 197.78 46.948 197.57 47.4754C198.656 47.6894 199.773 47.6894 200.858 47.4754C202.708 47.1224 203.265 47.0934 203.735 45.6244C203.979 45.0362 204.118 44.4097 204.146 43.7734C204.146 43.7734 204.205 44.3024 202.502 44.5964C200.862 44.7539 199.211 44.7539 197.57 44.5964Z" fill="white"/>
</mask>
<g mask="url(#mask9_627_6650)">
<g id="Clip-10">
<path id="Shape_40" opacity="0.122" d="M197.164 43.9811L197.575 45.8321C198.726 46.05 199.9 46.1192 201.068 46.0381C202.986 45.9011 204.968 45.6271 204.968 45.6271L205.379 42.9531L197.164 43.9811Z" fill="black"/>
</g>
</g>
</g>
</g>
<path id="Shape_38" d="M196.539 44.3884C196.539 44.3884 200.355 44.6824 201.471 44.5944C202.18 44.6428 202.89 44.5009 203.526 44.1834L204.553 43.5664C204.553 43.5664 203.995 46.5924 203.32 47.0664C202.383 47.606 201.32 47.8898 200.238 47.8894C199.269 47.8604 197.155 47.8894 197.155 47.8894C197.001 47.8149 196.917 47.6461 196.95 47.4784C196.979 47.1554 197.919 47.2434 198.799 47.2724C199.679 47.3014 203.199 47.0964 203.525 46.2444C203.776 45.5033 203.982 44.7476 204.141 43.9814C203.619 44.4719 202.984 44.8254 202.292 45.0104C201.558 45.0394 198.74 44.9514 198.392 45.0104C197.982 45.0412 197.569 45.0412 197.159 45.0104L196.539 44.3884Z" fill="#C8A066"/>
<g id="Shape_44-2">
<path id="Shape_44-3" d="M201.591 39.2282C202.281 39.4025 202.994 39.466 203.703 39.4162C204.553 39.3112 205.391 39.1219 206.203 38.8512C205.949 38.3619 205.546 37.9661 205.051 37.7212C204.252 37.429 203.402 37.3008 202.551 37.3442C202.283 37.4437 202.026 37.57 201.783 37.7212C201.783 37.7212 201.375 38.1452 201.399 38.4752C201.432 38.7332 201.497 38.9861 201.591 39.2282Z" fill="white"/>
<g id="Clip-11 Clipped">
<mask id="mask10_627_6650" style="mask-type:luminance" maskUnits="userSpaceOnUse" x="201" y="37" width="6" height="3">
<path id="Shape_44" fill-rule="evenodd" clip-rule="evenodd" d="M201.591 39.2282C202.281 39.4025 202.994 39.466 203.703 39.4162C204.553 39.3112 205.391 39.1219 206.203 38.8512C205.949 38.3619 205.546 37.9661 205.051 37.7212C204.252 37.429 203.402 37.3008 202.551 37.3442C202.283 37.4437 202.026 37.57 201.783 37.7212C201.783 37.7212 201.375 38.1452 201.399 38.4752C201.432 38.7332 201.497 38.9861 201.591 39.2282Z" fill="white"/>
</mask>
<g mask="url(#mask10_627_6650)">
<g id="Clip-11">
<ellipse id="Ellipse_3_copy" cx="203.993" cy="38.3663" rx="1.056" ry="0.964" fill="#0A0A0A"/>
<path id="Shape_47" d="M203.158 39.4161L203.023 38.7891L203.345 38.2891C203.519 38.4515 203.748 38.5413 203.985 38.5401C204.156 38.5405 204.323 38.4945 204.469 38.4071C204.586 38.5191 204.659 38.6231 204.645 38.6611C204.612 38.7551 204.511 39.2891 204.51 39.2891L203.158 39.4161Z" fill="#84642C"/>
<circle id="Ellipse_4_copy" cx="204.398" cy="38.0312" r="0.5" fill="white"/>
</g>
</g>
</g>
</g>
<g id="Shape_45-2">
<path id="Shape_45-3" d="M197.357 38.0963C196.627 37.8042 195.842 37.6756 195.057 37.7193C194.337 37.9313 194.289 38.2843 194.289 38.2843V39.4153C194.781 39.612 195.298 39.7388 195.825 39.7923C196.336 39.8342 196.85 39.8342 197.361 39.7923L197.357 38.0963Z" fill="white"/>
<g id="Clip-12 Clipped">
<mask id="mask11_627_6650" style="mask-type:luminance" maskUnits="userSpaceOnUse" x="194" y="37" width="4" height="3">
<path id="Shape_45" fill-rule="evenodd" clip-rule="evenodd" d="M197.357 38.0963C196.627 37.8042 195.842 37.6756 195.057 37.7193C194.337 37.9313 194.289 38.2843 194.289 38.2843V39.4153C194.781 39.612 195.298 39.7388 195.825 39.7923C196.336 39.8342 196.85 39.8342 197.361 39.7923L197.357 38.0963Z" fill="white"/>
</mask>
<g mask="url(#mask11_627_6650)">
<g id="Clip-12">
<ellipse id="Ellipse_3-2" cx="196.39" cy="38.6547" rx="0.96" ry="0.932" fill="#0A0A0A"/>
<path id="Shape_48" d="M196.475 39.5845C196.315 39.5845 196.133 39.5695 196.126 39.5685L195.71 39.4305C195.701 39.2423 195.701 39.0537 195.71 38.8655C195.717 38.8148 195.74 38.7677 195.775 38.7305C195.885 38.9794 196.13 39.141 196.402 39.1435C196.622 39.1422 196.829 39.0355 196.957 38.8565L196.952 38.8825C196.913 39.0615 196.812 39.5305 196.68 39.5685C196.613 39.5813 196.544 39.5867 196.475 39.5845Z" fill="#84642C"/>
<circle id="Ellipse_4" cx="196.766" cy="38.1719" r="0.5" fill="white"/>
</g>
</g>
</g>
</g>
<path id="Shape_46" d="M194.474 37.5342C194.921 37.4936 195.37 37.4936 195.817 37.5342C196.356 37.6407 196.874 37.8318 197.354 38.0996L197.161 38.2871C197.15 38.2842 196.631 38.1462 196.394 38.0996C195.89 37.9683 195.361 37.9683 194.857 38.0996C194.593 38.1966 194.383 38.402 194.281 38.6641L194.474 37.5342ZM202.937 37.3438C203.561 37.3907 204.616 37.4152 205.236 37.5322C205.856 37.6492 206.196 38.6631 206.196 38.6631C205.984 38.3719 205.727 38.1172 205.433 37.9092C205.203 37.7573 204.925 37.6965 204.652 37.7383C204.464 37.7516 204.275 37.7444 204.089 37.7178C203.315 37.69 202.541 37.7545 201.782 37.9092C201.578 37.922 201.415 38.0826 201.398 38.2861V37.5332C201.901 37.4035 202.418 37.3395 202.937 37.3438Z" fill="#413A2A"/>
<path id="nose" d="M197.365 36.5742L197.571 42.1272H199.626C199.854 42.1973 200.102 42.1145 200.243 41.9212C200.398 41.6563 200.535 41.3814 200.654 41.0982C200.654 41.0982 200.983 42.0442 200.654 42.3322C200.224 42.6049 199.725 42.7476 199.216 42.7432C198.846 42.7432 197.942 43.3602 197.572 43.1542C197.202 42.9482 196.133 42.1262 196.133 42.1262V41.5092C196.133 41.5092 196.503 41.9202 196.749 41.9202C196.995 41.9202 196.955 41.5092 196.955 41.5092L197.365 36.5742Z" fill="#D3A66B"/>
<path id="eyebrows" d="M194.28 35.3379C194.571 35.4219 197.321 36.4474 197.568 36.5713C197.684 36.6301 197.131 36.5955 196.475 36.5615C195.882 36.4983 195.283 36.5014 194.69 36.5713C194.53 36.6253 194.36 36.6503 194.19 36.6445C193.945 36.6413 193.7 36.6167 193.458 36.5713L193.047 35.748C193.062 35.74 193.995 35.2556 194.28 35.3379ZM204.148 34.9258C204.929 35.0078 206.203 36.3662 206.203 36.3662L203.737 35.9551L201.269 36.5723L201.062 35.3379C202.076 35.1058 203.109 34.9678 204.148 34.9258Z" fill="#272221"/>
<g id="hair-3">
<path id="hair-4" d="M209.899 37.8064C209.608 37.7603 209.311 37.8347 209.077 38.0124C208.827 38.3267 208.62 38.6723 208.461 39.0404L208.255 33.6924L207.022 34.7204V33.0754C207.022 33.0754 206.2 33.6924 206.2 33.4864C206.363 33.0554 206.57 32.642 206.817 32.2524C206.817 32.2524 205.417 32.8694 205.584 32.6634C205.814 32.265 206.02 31.8529 206.2 31.4294C206.2 31.4294 200.816 32.1294 197.569 32.2524C194.322 32.3754 190.169 32.0464 190.169 32.0464C190.169 32.0464 191.649 31.3884 191.402 31.2234C191.155 31.0584 189.553 30.3234 189.142 29.9894C188.731 29.6554 190.169 29.9894 190.169 29.9894C189.4 29.1661 188.711 28.2706 188.114 27.3154C187.744 26.4924 189.84 27.5624 190.58 27.7264C191.32 27.8904 194.28 27.2324 195.306 27.1094C196.332 26.9864 206.567 26.5744 207.636 27.5204C208.843 28.9437 209.688 30.6368 210.102 32.4564C210.146 33.3224 209.899 37.8064 209.899 37.8064Z" fill="#5A3B29"/>
<g id="Clip-13 Clipped">
<mask id="mask12_627_6650" style="mask-type:luminance" maskUnits="userSpaceOnUse" x="188" y="26" width="23" height="14">
<path id="hair" fill-rule="evenodd" clip-rule="evenodd" d="M209.899 37.8064C209.608 37.7603 209.311 37.8347 209.077 38.0124C208.827 38.3267 208.62 38.6723 208.461 39.0404L208.255 33.6924L207.022 34.7204V33.0754C207.022 33.0754 206.2 33.6924 206.2 33.4864C206.363 33.0554 206.57 32.642 206.817 32.2524C206.817 32.2524 205.417 32.8694 205.584 32.6634C205.814 32.265 206.02 31.8529 206.2 31.4294C206.2 31.4294 200.816 32.1294 197.569 32.2524C194.322 32.3754 190.169 32.0464 190.169 32.0464C190.169 32.0464 191.649 31.3884 191.402 31.2234C191.155 31.0584 189.553 30.3234 189.142 29.9894C188.731 29.6554 190.169 29.9894 190.169 29.9894C189.4 29.1661 188.711 28.2706 188.114 27.3154C187.744 26.4924 189.84 27.5624 190.58 27.7264C191.32 27.8904 194.28 27.2324 195.306 27.1094C196.332 26.9864 206.567 26.5744 207.636 27.5204C208.843 28.9437 209.688 30.6368 210.102 32.4564C210.146 33.3224 209.899 37.8064 209.899 37.8064Z" fill="white"/>
</mask>
<g mask="url(#mask12_627_6650)">
<g id="Clip-13">
<path id="Shape_96" opacity="0.231" d="M204.35 29.3736C204.35 29.3736 201.114 32.7156 199.418 33.0736C197.227 33.3092 195.014 33.2399 192.842 32.8676C192.225 32.6616 187.91 29.9886 187.91 29.9886L186.266 26.4886C186.266 26.4886 189.657 25.9226 190.166 25.8716C190.675 25.8206 204.35 29.3736 204.35 29.3736Z" fill="black"/>
</g>
</g>
</g>
</g>
<g id="Shape_41-2">
<path id="Shape_41-3" d="M210.109 33.4877C209.537 32.0873 208.426 30.9756 207.027 30.4027L204.15 29.3747L199.218 26.0837L198.602 25.0547C199.597 24.2742 200.706 23.65 201.89 23.2037C203.978 22.7517 206.158 23.0428 208.055 24.0267C209.791 24.9054 210.955 26.6141 211.137 28.5517C210.958 30.227 210.614 31.8805 210.109 33.4877Z" fill="#C2BD88"/>
<g id="Clip-14 Clipped">
<mask id="mask13_627_6650" style="mask-type:luminance" maskUnits="userSpaceOnUse" x="198" y="22" width="14" height="12">
<path id="Shape_41" fill-rule="evenodd" clip-rule="evenodd" d="M210.109 33.4877C209.537 32.0873 208.426 30.9756 207.027 30.4027L204.15 29.3747L199.218 26.0837L198.602 25.0547C199.597 24.2742 200.706 23.65 201.89 23.2037C203.978 22.7517 206.158 23.0428 208.055 24.0267C209.791 24.9054 210.955 26.6141 211.137 28.5517C210.958 30.227 210.614 31.8805 210.109 33.4877Z" fill="white"/>
</mask>
<g mask="url(#mask13_627_6650)">
<g id="Clip-14">
<path id="Shape_49" d="M208.879 23.6172C208.879 23.6172 210.061 23.9772 209.701 27.1172C209.535 28.8979 208.897 30.602 207.852 32.0532L209.907 35.7532C209.907 35.7532 213.863 31.9992 212.989 29.1712C212.115 26.3432 208.879 23.6172 208.879 23.6172Z" fill="#B4AF6D"/>
</g>
</g>
</g>
</g>
<g id="Shape_42-2">
<path id="Shape_42-3" d="M204.556 29.5818C203.714 28.3877 202.75 27.2847 201.679 26.2908C200.963 25.7537 200.208 25.2723 199.419 24.8508C199.419 24.8508 189.247 23.4798 187.5 24.0278C185.753 24.5758 183.767 25.7078 184.212 27.7278C184.657 29.7478 187.294 31.4278 189.144 32.2528C190.994 33.0778 190.993 32.6638 190.993 32.6638V32.2528C190.993 32.2528 187.393 30.8478 186.472 29.7848C185.551 28.7218 185.072 28.6198 185.034 27.5228C185.18 26.1447 186.161 24.9995 187.5 24.6428C188.767 24.4368 190.685 24.2998 191.815 25.0538C192.945 25.8078 195.754 29.6128 196.952 30.1958C198.526 30.787 200.233 30.9293 201.884 30.6068C203.015 30.2668 204.556 29.5818 204.556 29.5818Z" fill="#DFDBB0"/>
<g id="Clip-15 Clipped">
<mask id="mask14_627_6650" style="mask-type:luminance" maskUnits="userSpaceOnUse" x="184" y="23" width="21" height="10">
<path id="Shape_42" fill-rule="evenodd" clip-rule="evenodd" d="M204.556 29.5818C203.714 28.3877 202.75 27.2847 201.679 26.2908C200.963 25.7537 200.208 25.2723 199.419 24.8508C199.419 24.8508 189.247 23.4798 187.5 24.0278C185.753 24.5758 183.767 25.7078 184.212 27.7278C184.657 29.7478 187.294 31.4278 189.144 32.2528C190.994 33.0778 190.993 32.6638 190.993 32.6638V32.2528C190.993 32.2528 187.393 30.8478 186.472 29.7848C185.551 28.7218 185.072 28.6198 185.034 27.5228C185.18 26.1447 186.161 24.9995 187.5 24.6428C188.767 24.4368 190.685 24.2998 191.815 25.0538C192.945 25.8078 195.754 29.6128 196.952 30.1958C198.526 30.787 200.233 30.9293 201.884 30.6068C203.015 30.2668 204.556 29.5818 204.556 29.5818Z" fill="white"/>
</mask>
<g mask="url(#mask14_627_6650)">
<g id="Clip-15">
<path id="Shape_50" d="M203.324 27.1152C201.72 27.5891 200.064 27.8655 198.392 27.9382C197.027 27.9221 195.688 27.569 194.492 26.9102C194.492 26.9102 196.341 29.8922 197.78 30.4102C199.219 30.9282 204.356 31.0272 204.356 31.0272L205.589 29.5872L203.324 27.1152Z" fill="#D7D398"/>
</g>
</g>
</g>
</g>
</g>
</g>
<g id="Group">
<path id="Path_34-2" d="M185.446 71.7501C185.446 71.7501 189.646 69.9641 190.306 68.1981C190.966 66.4321 191.642 63.1421 191.815 62.7551C191.988 62.3681 192.4 60.5461 191.815 60.0701C191.23 59.5941 191.529 58.3921 192.475 58.6701C193.421 58.9481 194.116 61.1211 194.116 61.4511C194.116 61.7811 193.97 62.7511 193.97 62.7511H195.935C195.935 62.7511 197.035 63.1601 197.117 63.7591C197.199 64.3581 197.589 69.3421 197.117 69.6941C196.645 70.0461 193.798 70.8871 193.165 71.2751C192.127 72.3006 191.171 73.406 190.306 74.5811L188.689 75.7411C188.689 75.7411 183.208 73.9201 183.338 73.6261C183.995 72.9515 184.7 72.3246 185.446 71.7501Z" fill="#EECB9D"/>
</g>
<path id="Path_35" d="M188.445 74.5C188.445 74.5 189.945 72.464 190.863 71.505C191.869 70.674 192.989 69.9901 194.187 69.474C194.859 69.093 196.522 68.848 196.476 68.346C196.43 67.844 196.223 67.897 196.268 67.066C196.313 66.235 195.256 66.427 195.773 65.708C196.29 64.989 195.528 65.049 195.773 64.508C196.018 63.967 194.963 63.571 195.48 63.228L194.016 62.702H194.186L195.936 62.582L197.094 63.151C197.094 63.151 197.737 68.274 197.373 68.351C197.009 68.428 198.161 69.051 196.873 69.796C195.585 70.541 193.986 70.681 192.949 71.509C191.914 72.5555 190.988 73.7059 190.188 74.942L188.445 74.5Z" fill="#F0B97C"/>
</g>
<g id="Group_33">
<g id="Group_32">
<path id="Path_36" d="M171.528 44.8522C170.948 44.812 170.41 44.5324 170.045 44.0805C169.679 43.6285 169.518 43.0448 169.599 42.4692C169.64 41.7763 170.05 41.1586 170.672 40.8514L171.001 41.6147C170.649 41.7977 170.414 42.1464 170.376 42.5411C170.344 43.2652 170.887 43.8864 171.609 43.9521C172.331 44.0178 172.977 43.5048 173.077 42.7869C173.105 42.4674 173.022 42.1481 172.842 41.8827L172.348 41.8381L172.25 42.9231L171.485 42.8534L171.663 40.8923L173.242 41.0363C173.705 41.5236 173.931 42.1897 173.86 42.8583C173.834 43.4392 173.568 43.9834 173.126 44.3612C172.684 44.7391 172.105 44.9169 171.528 44.8522Z" fill="white"/>
<path id="Path_37" d="M170.979 36.8995C171.284 36.6958 171.661 36.6317 172.016 36.724C172.584 36.8111 173.007 37.2941 173.019 37.8685L174.753 37.2985L174.537 38.2848L172.931 38.7616L172.792 39.3901L174.225 39.7046L174.036 40.5617L170.006 39.6775L170.42 37.7924C170.47 37.4289 170.674 37.1035 170.979 36.8995ZM171.827 37.5987C171.672 37.5651 171.51 37.5992 171.381 37.6917C171.252 37.7843 171.168 37.9271 171.151 38.0847L170.954 38.9845L172.041 39.2244L172.239 38.3246C172.289 38.1737 172.274 38.0079 172.195 37.8695C172.116 37.7311 171.982 37.6326 171.827 37.5987Z" fill="white"/>
<path id="Path_38" d="M174.921 36.7993L171.024 35.455L171.976 32.6974L172.705 32.9471L172.038 34.8754L172.86 35.1597L173.511 33.2717L174.241 33.5214L173.59 35.4094L174.473 35.7135L175.14 33.7853L175.869 34.035L174.921 36.7993Z" fill="white"/>
<path id="Path_39" d="M176.089 33.5266L172.365 31.7439L173.627 29.11L174.324 29.4442L173.442 31.2862L174.229 31.6633L175.091 29.8607L175.789 30.1939L174.926 31.9975L175.769 32.4007L176.651 30.5587L177.348 30.8929L176.089 33.5266Z" fill="white"/>
<path id="Path_40" d="M179.157 28.0084L175.826 28.1829L178.08 29.6555L177.6 30.3913L174.144 28.1324L174.638 27.3756L177.856 27.1941L175.684 25.7748L176.165 25.0391L179.622 27.2979L179.157 28.0084Z" fill="white"/>
<path id="Path_41" d="M178.221 22.6118C178.527 22.2275 179.019 22.0427 179.502 22.1313C179.985 22.2201 180.381 22.5681 180.53 23.0362C180.679 23.5043 180.558 24.0163 180.215 24.3682L179.522 25.1569L180.621 26.1263L180.04 26.7848L176.945 24.0591L178.221 22.6118ZM179.115 22.9838C178.958 23.0003 178.816 23.0826 178.724 23.2099L178.107 23.9101L178.941 24.6465L179.558 23.9463C179.671 23.8387 179.734 23.6881 179.732 23.5318C179.729 23.3754 179.66 23.2275 179.542 23.1241C179.426 23.0188 179.271 22.9674 179.115 22.9838Z" fill="white"/>
<path id="Path_42" d="M185.083 21.7999L184.33 22.4626L183.68 22.1068L182.35 23.2721L182.615 23.9681L181.86 24.6281L180.343 20.473L181.17 19.7474L185.083 21.7999ZM182.023 22.5304L182.989 21.6824L181.336 20.7734L182.023 22.5304Z" fill="white"/>
<path id="Path_43" d="M185.315 21.7067L183.061 18.2543L183.797 17.7744L185.628 20.5815L187.09 19.6285L187.513 20.2768L185.315 21.7067Z" fill="white"/>
<path id="Path_44" d="M188.328 17.4845C188.111 16.9461 188.126 16.3417 188.37 15.8149C188.614 15.2881 189.065 14.8857 189.617 14.7033C190.282 14.425 191.049 14.5507 191.591 15.0272L191.018 15.644C190.712 15.3745 190.284 15.2928 189.9 15.4306C189.238 15.7225 188.921 16.4826 189.18 17.1584C189.439 17.8342 190.182 18.1881 190.87 17.9631C191.252 17.8118 191.519 17.462 191.564 17.054L192.4 17.1257C192.315 17.8427 191.83 18.4495 191.15 18.6916C190.618 18.9259 190.012 18.9291 189.477 18.7003C188.942 18.4715 188.526 18.0313 188.328 17.4845Z" fill="white"/>
<path id="Path_45" fill-rule="evenodd" clip-rule="evenodd" d="M193.434 13.7224C194.165 13.2444 195.113 13.2552 195.833 13.7499C196.553 14.2447 196.904 15.1254 196.72 15.9795C196.536 16.8337 195.855 17.4925 194.995 17.6473C194.434 17.7722 193.846 17.6578 193.372 17.3323C192.898 17.0069 192.581 16.4995 192.496 15.9312C192.332 15.073 192.703 14.2005 193.434 13.7224ZM195.846 15.3223C195.672 14.6639 195.006 14.2637 194.343 14.4193C193.681 14.575 193.262 15.2296 193.399 15.8962C193.537 16.5629 194.182 16.9988 194.852 16.879C195.198 16.8184 195.503 16.6149 195.692 16.3189C195.88 16.023 195.936 15.6614 195.846 15.3223Z" fill="white"/>
<path id="Path_46" d="M201.087 17.244L201.166 14.3551L199.924 17.2122L199.54 17.202L198.456 14.2814L198.377 17.1703L197.498 17.1457L197.61 13.0189L198.841 13.0529L199.775 15.5739L200.846 13.1078L202.083 13.1424L201.971 17.2682L201.087 17.244Z" fill="white"/>
<path id="Path_47" d="M206.055 18.2298L206.761 15.4293L204.932 17.9465L204.56 17.8523L204.138 14.7729L203.431 17.5734L202.579 17.3584L203.585 13.3594L204.779 13.6598L205.142 16.3211L206.721 14.1484L207.92 14.4494L206.915 18.4493L206.055 18.2298Z" fill="white"/>
<path id="Path_48" d="M208.183 17.2003L209.244 14.9576L210.049 15.3394L209.001 17.5531C208.844 17.8669 208.87 18.2408 209.067 18.5305C209.265 18.8203 209.603 18.9808 209.953 18.95C210.302 18.9192 210.607 18.702 210.751 18.3821L211.799 16.1684L212.609 16.5518L211.55 18.7894C211.066 19.6349 210.013 19.9662 209.132 19.5504C208.251 19.1347 207.837 18.1116 208.182 17.2004L208.183 17.2003Z" fill="white"/>
<path id="Path_49" d="M213.718 22.2355L213.651 18.9046L212.107 21.1079L211.388 20.6038L213.759 17.2282L214.497 17.747L214.575 20.965L216.058 18.84L216.778 19.3442L214.407 22.7198L213.718 22.2355Z" fill="white"/>
<path id="Path_50" d="M214.921 23.2291L217.656 20.1338L218.315 20.7165L215.58 23.8117L214.921 23.2291Z" fill="white"/>
<path id="Path_51" d="M216.772 24.958L219.207 22.652L218.377 21.7765L218.942 21.2445L221.204 23.6351L220.64 24.1662L219.815 23.2954L217.38 25.6013L216.772 24.958Z" fill="white"/>
<path id="Path_52" d="M219.154 27.7419L220.518 26.7436L221.548 24.0217L222.139 24.8317L221.407 26.6392L223.344 26.4803L223.935 27.2902L221.039 27.4543L219.675 28.4526L219.154 27.7419Z" fill="white"/>
<path id="Path_53" d="M221.907 32.1279L224.911 30.6355L224.374 29.5549L225.066 29.2105L226.532 32.1596L225.839 32.5031L225.304 31.4273L222.299 32.9208L221.907 32.1279Z" fill="white"/>
<path id="Path_54" d="M227.55 34.8241C227.703 35.1587 227.705 35.5435 227.556 35.8799C227.407 36.2162 227.121 36.4725 226.771 36.5841C226.243 36.8125 225.627 36.6291 225.311 36.149L224.146 37.5563L223.801 36.6044L224.906 35.3443L224.687 34.7371L223.307 35.2352L223.008 34.4084L226.895 33.0071L227.55 34.8241ZM225.419 34.4713L225.732 35.3393C225.769 35.4944 225.87 35.6266 226.011 35.7025C226.151 35.7784 226.318 35.791 226.468 35.7369L226.467 35.737C226.616 35.683 226.736 35.5681 226.796 35.4213C226.856 35.2743 226.851 35.1081 226.782 34.965L226.468 34.0972L225.419 34.4713Z" fill="white"/>
<path id="Path_55" d="M225.888 37.6735L228.312 37.1334L228.506 38.0034L226.112 38.5373C225.767 38.6061 225.487 38.8561 225.379 39.1906C225.271 39.5252 225.353 39.8918 225.593 40.1489C225.832 40.4061 226.192 40.5133 226.534 40.4293L228.928 39.8953L229.123 40.7712L226.705 41.3099C225.739 41.4478 224.83 40.8202 224.616 39.8685C224.402 38.9168 224.956 37.9607 225.888 37.6725L225.888 37.6735Z" fill="white"/>
<path id="Path_56" d="M225.72 42.0197L226.431 42.4281C226.11 42.8042 225.956 43.2955 226.006 43.7878C226.054 44.2678 226.298 44.4794 226.532 44.4529C227.259 44.3809 226.526 42.0664 228.071 41.9139C228.754 41.847 229.38 42.3808 229.475 43.3469C229.556 43.9319 229.407 44.5254 229.061 45.0037L228.373 44.5816C228.634 44.2245 228.752 43.7826 228.704 43.3428C228.667 42.9674 228.48 42.7749 228.233 42.7981C227.581 42.863 228.252 45.1778 226.719 45.3294C225.968 45.4041 225.349 44.9241 225.239 43.8165C225.146 43.177 225.32 42.5273 225.72 42.0197V42.0197Z" fill="white"/>
<path id="Path_57" d="M225.475 46.8156L228.829 46.8301L228.835 45.6262L229.608 45.6301L229.593 48.9217L228.82 48.9188L228.826 47.7149L225.472 47.6994L225.475 46.8156Z" fill="white"/>
</g>
</g>
</g>
</g>
</g>
</g>
</g>
</g>
<defs>
<clipPath id="clip0_627_6650">
<rect width="127" height="27" fill="white" transform="translate(25.6953 30.8711)"/>
</clipPath>
</defs>
</svg>
