<svg width="30" height="30" viewBox="0 0 30 30" fill="none" xmlns="http://www.w3.org/2000/svg">
<g clip-path="url(#clip0_439_7186)">
<path d="M9.34873 17.1574C7.74332 17.1574 6.4372 18.4635 6.4372 20.0689C6.4372 21.6743 7.74332 22.9805 9.34873 22.9805C10.9541 22.9805 12.2603 21.6743 12.2603 20.0689C12.2603 18.4635 10.9541 17.1574 9.34873 17.1574ZM9.34873 22.1601C8.1956 22.1601 7.25752 21.222 7.25752 20.0689C7.25752 18.9157 8.19566 17.9777 9.34873 17.9777C10.5018 17.9777 11.4399 18.9158 11.4399 20.0689C11.4399 21.2221 10.5019 22.1601 9.34873 22.1601ZM12.9429 9.53266C13.9589 9.53266 14.7855 8.70614 14.7855 7.69012C14.7855 6.67411 13.9589 5.84753 12.9429 5.84753C11.9269 5.84753 11.1004 6.67411 11.1004 7.69012C11.1004 8.70614 11.9269 9.53266 12.9429 9.53266ZM12.9429 6.66778C13.5066 6.66778 13.9652 7.12639 13.9652 7.69007C13.9652 8.25374 13.5066 8.71229 12.9429 8.71229C12.3793 8.71229 11.9207 8.25374 11.9207 7.69007C11.9207 7.12639 12.3793 6.66778 12.9429 6.66778ZM21.2311 13.1716C21.2311 13.8165 21.7558 14.3412 22.4006 14.3412C23.0455 14.3412 23.5701 13.8165 23.5701 13.1716C23.5701 12.5267 23.0455 12.0021 22.4006 12.0021C21.7558 12.0021 21.2311 12.5267 21.2311 13.1716ZM22.7498 13.1716C22.7498 13.3642 22.5931 13.5208 22.4006 13.5208C22.2081 13.5208 22.0514 13.3642 22.0514 13.1716C22.0514 12.9791 22.2081 12.8224 22.4006 12.8224C22.5931 12.8224 22.7498 12.9791 22.7498 13.1716ZM23.2741 4.09786C23.2891 4.25594 23.3941 4.39124 23.5435 4.44503C23.6929 4.49882 23.8601 4.46143 23.9724 4.34911L24.6108 3.71079C26.9753 5.83018 27.9667 9.12415 27.1402 12.2085C27.0906 12.3935 27.1758 12.5883 27.3453 12.6776C27.4059 12.7094 27.4713 12.7248 27.5362 12.7248C27.6531 12.7248 27.7681 12.6748 27.8481 12.5812C29.0482 11.1773 29.6027 9.51403 29.4517 7.77116C29.2742 5.72266 28.1362 3.64481 26.3102 2.01133L26.7975 1.52395C26.9099 1.41163 26.9472 1.24458 26.8935 1.0951C26.8397 0.945632 26.7044 0.84069 26.5463 0.825632L23.4247 0.529089C23.3028 0.517897 23.1824 0.560905 23.0959 0.647448C23.0094 0.733933 22.966 0.85446 22.9776 0.976218L23.2741 4.09786ZM25.6016 1.55987L25.4175 1.74397C25.3358 1.82565 25.2924 1.93803 25.2978 2.05335C25.3033 2.16878 25.3572 2.27653 25.4462 2.35007C27.303 3.88458 28.4651 5.88632 28.6344 7.84194C28.7131 8.75061 28.5804 9.61569 28.2389 10.4291C28.364 7.54663 27.1363 4.71081 24.8494 2.8351C24.7734 2.77282 24.6812 2.74206 24.5893 2.74206C24.4839 2.74206 24.3788 2.78249 24.2992 2.86217L24.0082 3.15315L23.841 1.3927L25.6016 1.55987ZM6.73316 25.9021C6.7181 25.744 6.61316 25.6087 6.46363 25.5549C6.31427 25.5011 6.14705 25.5385 6.03484 25.6509L5.39652 26.2891C3.03203 24.1697 2.04062 20.8758 2.86703 17.7915C2.9166 17.6064 2.83146 17.4116 2.66189 17.3223C2.4922 17.2332 2.28355 17.2731 2.1591 17.4188C0.959039 18.8226 0.404567 20.4858 0.555563 22.2287C0.733043 24.2771 1.87111 26.355 3.69713 27.9885L3.2098 28.4759C3.09748 28.5882 3.06009 28.7553 3.11382 28.9048C3.16761 29.0542 3.30291 29.1592 3.46099 29.1742L6.58257 29.4708C6.59558 29.472 6.60847 29.4726 6.62142 29.4726C6.72964 29.4726 6.83412 29.4298 6.91134 29.3524C6.99789 29.2659 7.04125 29.1454 7.0297 29.0236L6.73316 25.9021ZM4.4057 28.44L4.58974 28.2559C4.67148 28.1742 4.7149 28.0618 4.70945 27.9465C4.70394 27.8311 4.65009 27.7233 4.56103 27.6498C2.70431 26.1153 1.54222 24.1135 1.37283 22.1579C1.29408 21.2492 1.42691 20.384 1.76839 19.5707C1.6433 22.4532 2.87101 25.289 5.15793 27.1648C5.32111 27.2985 5.55894 27.2869 5.70806 27.1376L5.99898 26.8468L6.16621 28.6072L4.4057 28.44ZM29.2293 20.6584C29.0972 20.597 28.9426 20.6103 28.8229 20.6932L27.6307 21.519L26.8278 21.3068L26.9114 20.4804L28.1036 19.6546C28.2232 19.5718 28.29 19.4316 28.279 19.2865C28.2679 19.1413 28.1808 19.0128 28.05 18.9489C27.2223 18.5447 26.2381 18.619 25.4818 19.143C24.7077 19.6791 24.3009 20.5829 24.3993 21.503L19.8545 24.6511C19.0279 24.2354 18.0386 24.2987 17.2647 24.8349C16.5082 25.3589 16.0927 26.2541 16.1802 27.1711C16.1941 27.3161 16.2838 27.4428 16.4158 27.5042C16.5478 27.5655 16.7025 27.5522 16.8222 27.4693L18.0144 26.6435L18.8173 26.8557L18.7337 27.6821L17.5415 28.5079C17.4218 28.5907 17.355 28.7309 17.3661 28.876C17.3771 29.0212 17.4643 29.1497 17.595 29.2136C17.9492 29.3866 18.332 29.4719 18.7134 29.4719C19.2233 29.4719 19.7306 29.3194 20.1634 29.0195C20.9373 28.4835 21.3442 27.5797 21.2458 26.6596L25.7906 23.5114C26.6171 23.9269 27.6064 23.8638 28.3804 23.3277C29.1369 22.8037 29.5524 21.9084 29.4649 20.9914C29.451 20.8465 29.3613 20.7197 29.2293 20.6584ZM27.9133 22.6533C27.3359 23.0532 26.5817 23.0648 25.9922 22.6829C25.8527 22.5925 25.6724 22.5952 25.5357 22.69L20.5663 26.1323C20.4296 26.2269 20.3636 26.3947 20.3992 26.5571C20.5494 27.2434 20.2735 27.9452 19.6962 28.3452C19.4206 28.5361 19.1003 28.639 18.7759 28.6506L19.3561 28.2487C19.4548 28.1804 19.5185 28.0722 19.5307 27.9528L19.6686 26.5899C19.6889 26.3892 19.5603 26.2035 19.3653 26.152L18.0409 25.802C18.0064 25.7929 17.9711 25.7884 17.9361 25.7884C17.8535 25.7884 17.7718 25.8135 17.7026 25.8615L17.1223 26.2633C17.2473 25.9638 17.4561 25.7001 17.7317 25.5092C18.3091 25.1093 19.0631 25.0977 19.6527 25.4795C19.7922 25.5699 19.9726 25.5673 20.1093 25.4724L25.0787 22.0302C25.2153 21.9356 25.2814 21.7677 25.2458 21.6053C25.0955 20.9191 25.3714 20.2173 25.9488 19.8173C26.2244 19.6263 26.5446 19.5235 26.8691 19.5118L26.2888 19.9138C26.1902 19.9821 26.1265 20.0902 26.1143 20.2096L25.9763 21.5726C25.956 21.7732 26.0847 21.9589 26.2797 22.0104L27.6041 22.3604C27.7201 22.3912 27.8438 22.3694 27.9425 22.301L28.5227 21.8991C28.3976 22.1988 28.1888 22.4624 27.9133 22.6533ZM24.1071 15.8808L24.1062 15.8795C25.0044 15.3117 25.6026 14.3105 25.6026 13.1716C25.6026 11.9935 24.9626 10.9627 24.0124 10.4067L24.013 10.4057L15.1838 4.52899L15.1826 4.53087C14.5497 4.08081 13.777 3.81503 12.9429 3.81503C11.2179 3.81503 9.75296 4.94846 9.2524 6.50952L4.88429 17.9455L4.88464 17.9457C4.57726 18.5894 4.40464 19.3093 4.40464 20.0689C4.40464 22.7951 6.62253 25.013 9.34867 25.013C10.3802 25.013 11.3385 24.695 12.1319 24.1526L12.1333 24.1547L24.1071 15.8808ZM24.7822 13.1716C24.7822 14.4849 23.7139 15.5532 22.4006 15.5532C21.0873 15.5532 20.019 14.4849 20.019 13.1716C20.019 11.8584 21.0873 10.79 22.4006 10.79C23.7139 10.79 24.7822 11.8584 24.7822 13.1716ZM21.9904 16.3464L13.9346 21.9129C14.1647 21.3426 14.2926 20.7206 14.2926 20.0689C14.2926 17.3428 12.0747 15.1249 9.34867 15.1249C8.28437 15.1249 7.29841 15.464 6.49082 16.0384L9.24127 8.83745C9.73152 10.4157 11.2054 11.565 12.9428 11.565C15.0795 11.565 16.8178 9.82675 16.8178 7.69007C16.8178 7.26397 16.7477 6.85417 16.62 6.47038L21.9298 10.0046C20.3867 10.233 19.1986 11.566 19.1986 13.1716C19.1986 14.7981 20.418 16.1443 21.9904 16.3464ZM12.9429 4.6354C14.6273 4.6354 15.9976 6.00573 15.9976 7.69012C15.9976 9.37446 14.6273 10.7448 12.9429 10.7448C11.2585 10.7448 9.8882 9.37446 9.8882 7.69012C9.8882 6.00567 11.2585 4.6354 12.9429 4.6354ZM5.22502 20.0689C5.22502 17.7951 7.07488 15.9452 9.34873 15.9452C11.6225 15.9452 13.4724 17.7951 13.4724 20.0689C13.4724 22.3427 11.6225 24.1926 9.34873 24.1926C7.07488 24.1926 5.22502 22.3427 5.22502 20.0689Z" fill="#373737"/>
</g>
<defs>
<clipPath id="clip0_439_7186">
<rect width="30" height="30" fill="white"/>
</clipPath>
</defs>
</svg>

