<svg width="38" height="25" viewBox="0 0 38 25" fill="none" xmlns="http://www.w3.org/2000/svg">
<path d="M36.6851 7.85776L5.17695 23.61L1.33132 16.5442L33.4881 0.822726L36.6851 7.85776Z" stroke="#373737" stroke-width="1.2196"/>
<path d="M20.7551 12.2838C20.7551 13.2647 19.96 14.0598 18.9791 14.0598C17.9983 14.0598 17.2031 13.2647 17.2031 12.2838C17.2031 11.303 17.9983 10.5078 18.9791 10.5078C19.96 10.5078 20.7551 11.303 20.7551 12.2838Z" fill="#373737"/>
<path d="M15.6575 14.4303C15.6575 15.0433 15.1605 15.5403 14.5475 15.5403C13.9345 15.5403 13.4375 15.0433 13.4375 14.4303C13.4375 13.8173 13.9345 13.3203 14.5475 13.3203C15.1605 13.3203 15.6575 13.8173 15.6575 14.4303Z" fill="#373737"/>
<path d="M24.1653 10.36C24.1653 10.973 23.6683 11.47 23.0553 11.47C22.4423 11.47 21.9453 10.973 21.9453 10.36C21.9453 9.74696 22.4423 9.25 23.0553 9.25C23.6683 9.25 24.1653 9.74696 24.1653 10.36Z" fill="#373737"/>
</svg>

