<svg width="28" height="28" viewBox="0 0 28 28" fill="none" xmlns="http://www.w3.org/2000/svg">
<g clip-path="url(#clip0_439_7196)">
<path d="M26.9948 10.5676V5.08358C27.5767 4.90054 28 4.35624 28 3.71492C28 3.37432 27.8786 3.04412 27.6583 2.78523C27.4376 2.52595 27.1315 2.35309 26.7962 2.2984C25.2451 2.04547 23.6747 1.83689 22.1285 1.67835C21.9028 1.65527 21.7017 1.81917 21.6786 2.04454C21.6555 2.26985 21.8194 2.47127 22.0448 2.4944C23.5749 2.6513 25.1291 2.85774 26.6641 3.10805C26.8077 3.13145 26.9388 3.20561 27.0336 3.31684C27.1278 3.42759 27.1797 3.56895 27.1797 3.71492C27.1797 4.05354 26.904 4.32906 26.565 4.32906H1.435C1.27088 4.32906 1.11639 4.26513 1.0004 4.14946C0.884242 4.03336 0.820312 3.87903 0.820312 3.71492C0.820312 3.412 1.03715 3.15677 1.33596 3.10799C7.63645 2.07954 14.0584 1.82278 20.4234 2.34472C20.6489 2.36304 20.8472 2.1952 20.8657 1.96945C20.8842 1.7437 20.7162 1.54563 20.4905 1.52714C14.059 0.999681 7.57001 1.25917 1.20384 2.2984C0.506242 2.4122 0 3.00797 0 3.71492C0 4.09817 0.149297 4.4585 0.420766 4.72997C0.58718 4.89595 0.787227 5.01593 1.00527 5.08402V10.5676C0.425359 10.7357 0 11.2713 0 11.9047C0 12.6723 0.624531 13.2969 1.39218 13.2969H3.94488C3.74248 13.5951 3.62403 13.9548 3.62403 14.3416C3.62403 15.37 4.46064 16.2066 5.48904 16.2066H6.09716V20.2883C6.09716 21.2518 6.881 22.0356 7.84443 22.0356H9.26248C9.64584 24.6918 11.9369 26.7395 14.6976 26.7395H25.457C26.437 26.7395 27.2344 25.9422 27.2344 24.9622C27.2344 23.9821 26.437 23.1848 25.457 23.1848H20.4443C19.6567 23.1848 18.9778 22.712 18.6753 22.0356H20.1556C21.1191 22.0356 21.9029 21.2518 21.9029 20.2883V16.2066H22.511C23.5394 16.2066 24.376 15.37 24.376 14.3416C24.376 13.9548 24.2576 13.5951 24.0552 13.2969H26.6079C27.3755 13.2969 28.0001 12.6724 28.0001 11.9048C28 11.2713 27.5747 10.7358 26.9948 10.5676ZM25.197 10.5125V5.14937H26.1745V10.5125H25.197ZM23.3993 10.5125V5.14937H24.3767V10.5125H23.3993ZM21.6015 10.5125V5.14937H22.5789V10.5125H21.6015ZM19.8037 10.5125V5.14937H20.7811V10.5125H19.8037ZM18.0059 10.5125V5.14937H18.9833V10.5125H18.0059ZM16.208 10.5125V5.14937H17.1855V10.5125H16.208ZM14.4102 10.5125V5.14937H15.3878V10.5125H14.4102ZM12.6124 10.5125V5.14937H13.5899V10.5125H12.6124ZM10.8146 10.5125V5.14937H11.7921V10.5125H10.8146ZM9.01682 10.5125V5.14937H9.9943V10.5125H9.01682ZM7.21902 10.5125V5.14937H8.19651V10.5125H7.21902ZM5.42123 10.5125V5.14937H6.39871V10.5125H5.42123ZM3.62343 10.5125V5.14937H4.60091V10.5125H3.62343ZM1.82563 10.5125V5.14937H2.80312V10.5125H1.82563ZM26.4141 24.9621C26.4141 25.4898 25.9847 25.9191 25.457 25.9191H14.6976C12.1216 25.9191 10.026 23.8235 10.026 21.2475V18.711C10.026 18.1833 10.4553 17.754 10.983 17.754C11.5107 17.754 11.94 18.1833 11.94 18.711V21.2475C11.94 21.3999 11.953 21.5492 11.9769 21.695C11.9779 21.7008 11.9788 21.7067 11.98 21.7125C12.2018 23.0123 13.3355 24.0051 14.6976 24.0051H25.457C25.9847 24.0051 26.4141 24.4344 26.4141 24.9621ZM15.01 22.0356C15.0671 22.4282 15.1662 22.8142 15.3058 23.1848H14.6976C13.9099 23.1848 13.2311 22.712 12.9286 22.0356H15.01ZM16.1941 23.1848C15.9181 22.5801 15.7727 21.9155 15.7727 21.2475V18.711C15.7727 18.1833 16.202 17.754 16.7297 17.754C17.2574 17.754 17.6868 18.1833 17.6868 18.711V21.2475C17.6868 22.002 17.9915 22.6864 18.4842 23.1848H16.1941ZM23.5557 14.3416C23.5557 14.9176 23.087 15.3863 22.511 15.3863H9.74559C9.51907 15.3863 9.33543 15.5699 9.33543 15.7964C9.33543 16.0229 9.51907 16.2066 9.74559 16.2066H21.0826V20.2883C21.0826 20.7994 20.6667 21.2152 20.1556 21.2152H18.5071V18.711C18.5071 17.7309 17.7097 16.9336 16.7297 16.9336C15.7497 16.9336 14.9524 17.7309 14.9524 18.711V21.2152H12.7603V18.711C12.7603 17.7309 11.963 16.9336 10.983 16.9336C10.003 16.9336 9.20566 17.7309 9.20566 18.711V21.2152H7.84438C7.33327 21.2152 6.91742 20.7994 6.91742 20.2883V16.2066H8.10496C8.33148 16.2066 8.51512 16.0229 8.51512 15.7964C8.51512 15.5699 8.33148 15.3863 8.10496 15.3863C8.10496 15.3863 6.50841 15.3861 6.50727 15.3861C6.50612 15.3861 5.48898 15.3863 5.48898 15.3863C4.91296 15.3863 4.44429 14.9176 4.44429 14.3416C4.44429 13.7655 4.91296 13.2969 5.48898 13.2969H22.511C23.087 13.2969 23.5557 13.7655 23.5557 14.3416ZM26.6078 12.4766H1.39218C1.07685 12.4766 0.820312 12.22 0.820312 11.9047C0.820312 11.5894 1.07685 11.3328 1.39218 11.3328H26.6078C26.9231 11.3328 27.1797 11.5894 27.1797 11.9047C27.1797 12.22 26.9231 12.4766 26.6078 12.4766Z" fill="#373737"/>
</g>
<defs>
<clipPath id="clip0_439_7196">
<rect width="28" height="28" fill="white"/>
</clipPath>
</defs>
</svg>

