<svg width="30" height="30" viewBox="0 0 30 30" fill="none" xmlns="http://www.w3.org/2000/svg">
<path d="M29.5758 21.8395L26.0459 16.8797C25.1786 15.6656 23.7722 14.9389 22.2768 14.9389H21.0251V13.0299C21.6872 12.9003 22.1887 12.3168 22.1887 11.617C22.1887 10.8222 21.5424 10.176 20.7481 10.176H11.7831C10.9883 10.176 10.3421 10.8222 10.3421 11.617C10.3421 12.3162 10.8426 12.8993 11.504 13.0297V14.939H8.9773L6.99431 4.39591C6.71774 2.9286 5.43793 1.86914 3.94718 1.86914H1.72044C0.773513 1.86914 0 2.63796 0 3.58958C0 4.53654 0.773513 5.31003 1.72044 5.31003H3.66123L4.1394 7.86023L1.76265 11.9856C0.276595 14.5545 0.276595 17.6204 1.76265 20.1894C2.67341 21.7703 4.03594 22.9552 5.63867 23.6339C5.87867 26.1539 8.00576 28.132 10.5875 28.132C12.5072 28.132 14.1731 27.0366 15.0016 25.4398H19.7107C20.2409 27.0027 21.7186 28.132 23.4583 28.132C25.1981 28.132 26.6763 27.0027 27.2067 25.4398H27.7194C28.5773 25.4398 29.3555 24.9663 29.7446 24.2069C30.1384 23.4428 30.0728 22.538 29.5758 21.8395ZM11.1755 11.6169C11.1755 11.282 11.4482 11.0094 11.7831 11.0094H20.7481C21.0826 11.0094 21.3552 11.282 21.3552 11.6169C21.3552 11.9519 21.0826 12.2245 20.7481 12.2245H11.7831C11.4482 12.2245 11.1755 11.9519 11.1755 11.6169ZM12.3385 13.0579H20.1954V14.9389H12.3385V13.0579ZM22.2768 15.7734C23.5003 15.7734 24.6582 16.3687 25.3661 17.3626L28.8867 22.313H26.9533C26.2863 21.0639 24.9705 20.2112 23.4583 20.2112C21.9462 20.2112 20.6308 21.0639 19.964 22.313H15.4828C15.0793 19.9734 13.0405 18.1863 10.5875 18.1863C10.2522 18.1863 9.92498 18.2206 9.60818 18.2842L9.13667 15.7734H22.2768ZM3.94718 4.4756H1.72044C1.23292 4.4756 0.834455 4.07715 0.834455 3.58958C0.834455 3.09736 1.23291 2.6989 1.72044 2.6989H3.94718C5.03478 2.6989 5.97235 3.47708 6.17392 4.55059L8.80099 18.5237C8.19718 18.7572 7.65108 19.1043 7.18733 19.5403L4.43005 4.87875C4.38785 4.64436 4.18158 4.4756 3.94718 4.4756ZM2.48457 19.7722C1.15323 17.4657 1.14854 14.7092 2.48457 12.4028L4.3785 9.12127L6.49107 20.3459C6.01745 21.0335 5.7137 21.8451 5.63679 22.7216C4.34052 22.0871 3.24169 21.0822 2.48457 19.7722ZM10.5875 27.2986C8.30494 27.2986 6.44804 25.4413 6.44804 23.1591C6.44804 20.877 8.30494 19.0197 10.5875 19.0197C12.87 19.0197 14.7269 20.877 14.7269 23.1591C14.7269 25.4413 12.87 27.2986 10.5875 27.2986ZM15.3444 24.6054C15.4839 24.1474 15.5604 23.6621 15.5604 23.1591C15.5604 23.1552 15.5598 23.1514 15.5598 23.1474H19.6378C19.55 23.4748 19.4988 23.8169 19.4988 24.1716C19.4988 24.3183 19.5081 24.4628 19.5237 24.6054L15.3444 24.6054ZM23.4583 27.2986C21.7345 27.2986 20.3322 25.8954 20.3322 24.1716C20.3322 22.4478 21.7345 21.0446 23.4583 21.0446C25.1822 21.0446 26.5853 22.4478 26.5853 24.1716C26.5853 25.8954 25.1822 27.2986 23.4583 27.2986ZM29.0039 23.8225C28.7508 24.3147 28.2726 24.6054 27.7194 24.6054H27.3937C27.4094 24.4627 27.4187 24.3183 27.4187 24.1716C27.4187 23.8169 27.3674 23.4748 27.2796 23.1474H28.943V23.1568H29.168C29.168 23.3818 29.1164 23.6068 29.0039 23.8225ZM23.4583 22.2704C22.41 22.2704 21.5571 23.1233 21.5571 24.1716C21.5571 25.2199 22.41 26.0729 23.4583 26.0729C24.5074 26.0729 25.3604 25.2199 25.3604 24.1716C25.3604 23.1233 24.5074 22.2704 23.4583 22.2704ZM23.4583 25.2394C22.8699 25.2394 22.3905 24.7601 22.3905 24.1716C22.3905 23.5832 22.8699 23.1038 23.4583 23.1038C24.0476 23.1038 24.527 23.5832 24.527 24.1716C24.527 24.7601 24.0476 25.2394 23.4583 25.2394ZM10.5875 20.833C9.3052 20.833 8.26179 21.8764 8.26179 23.1591C8.26179 24.441 9.3052 25.4844 10.5875 25.4844C11.8702 25.4844 12.9136 24.441 12.9136 23.1591C12.9136 21.8764 11.8702 20.833 10.5875 20.833ZM10.5875 24.651C9.76464 24.651 9.09521 23.982 9.09521 23.1591C9.09521 22.3363 9.76463 21.6664 10.5875 21.6664C11.4107 21.6664 12.0802 22.3363 12.0802 23.1591C12.0802 23.982 11.4107 24.651 10.5875 24.651Z" fill="#373737"/>
</svg>

