<svg width="10" height="6" viewBox="0 0 10 6" fill="none" xmlns="http://www.w3.org/2000/svg">
  <path d="M5.02282 5.73994C4.92844 5.74049 4.83488 5.7224 4.74751 5.68671C4.66014 5.65102 4.58067 5.59844 4.51366 5.53198L0.210901 1.22922C0.0758633 1.09418 0 0.911032 0 0.72006C0 0.529089 0.0758633 0.345938 0.210901 0.210901C0.345938 0.0758633 0.529089 0 0.72006 0C0.911032 0 1.09418 0.0758633 1.22922 0.210901L5.02282 4.01167L8.81641 0.218072C8.9536 0.100588 9.13007 0.0391974 9.31055 0.0461687C9.49104 0.05314 9.66224 0.12796 9.78996 0.255676C9.91768 0.383392 9.99249 0.554598 9.99946 0.735082C10.0064 0.915565 9.94505 1.09203 9.82756 1.22922L5.52481 5.53198C5.39123 5.66446 5.21095 5.73915 5.02282 5.73994Z" fill="white"/>
</svg>
