<svg width="28" height="28" viewBox="0 0 28 28" fill="none" xmlns="http://www.w3.org/2000/svg">
<g clip-path="url(#clip0_439_7229)">
<path d="M22.1844 1.00312C22.1023 0.921084 21.991 0.874998 21.875 0.875H20.5625C20.4465 0.874998 20.3352 0.921084 20.2532 1.00312L19.3782 1.87812C19.3375 1.91875 19.3053 1.96698 19.2833 2.02006C19.2613 2.07315 19.25 2.13004 19.25 2.1875C19.25 2.24496 19.2613 2.30185 19.2833 2.35494C19.3053 2.40802 19.3375 2.45625 19.3782 2.49688L19.5063 2.625L18.8125 3.31877L18.6844 3.19062C18.6023 3.1086 18.491 3.06252 18.375 3.06252C18.259 3.06252 18.1477 3.1086 18.0657 3.19062L13.2532 8.00312C13.1876 8.06866 13.1446 8.15333 13.1303 8.24492C13.1159 8.3365 13.1311 8.43027 13.1735 8.51269C13.2159 8.59512 13.2834 8.66194 13.3662 8.70353C13.4491 8.74511 13.543 8.75931 13.6344 8.74407C14.5215 8.5968 15.4322 8.70509 16.2601 9.05627C15.6287 10.3339 14.7335 11.4631 13.6335 12.3692C12.5335 13.2752 11.2538 13.9376 9.8789 14.3125L9.1787 14.5035C8.48316 14.4397 7.78211 14.5299 7.1253 14.7674C6.46848 15.005 5.87199 15.3842 5.37815 15.8781L1.00315 20.2531C0.962524 20.2937 0.930295 20.342 0.908306 20.3951C0.886317 20.4481 0.875 20.505 0.875 20.5625C0.875 20.62 0.886317 20.6768 0.908306 20.7299C0.930295 20.783 0.962524 20.8313 1.00315 20.8719L2.75315 22.6219C2.83521 22.7039 2.94648 22.75 3.06251 22.75C3.17853 22.75 3.28981 22.7039 3.37186 22.6219L4.37501 21.6187L6.38127 23.625L5.37815 24.6281C5.33752 24.6687 5.30529 24.717 5.28331 24.7701C5.26132 24.8231 5.25 24.88 5.25 24.9375C5.25 24.995 5.26132 25.0519 5.28331 25.1049C5.30529 25.158 5.33752 25.2063 5.37815 25.2469L7.12815 26.9969C7.21021 27.0789 7.32148 27.125 7.43751 27.125C7.55353 27.125 7.66481 27.0789 7.74686 26.9969L12.1219 22.6219C12.6158 22.128 12.995 21.5315 13.2326 20.8747C13.4702 20.2179 13.5603 19.5168 13.4966 18.8212L13.6875 18.1211C14.0624 16.7462 14.7248 15.4665 15.6308 14.3665C16.5369 13.2665 17.666 12.3713 18.9437 11.74C19.2948 12.5678 19.4031 13.4785 19.256 14.3656C19.2407 14.457 19.2549 14.5509 19.2965 14.6337C19.3381 14.7166 19.4049 14.7841 19.4873 14.8265C19.5697 14.8689 19.6635 14.8841 19.7551 14.8698C19.8466 14.8554 19.9313 14.8124 19.9969 14.7469L24.8094 9.93438C24.85 9.89375 24.8822 9.84552 24.9042 9.79244C24.9262 9.73935 24.9375 9.68246 24.9375 9.625C24.9375 9.56754 24.9262 9.51065 24.9042 9.45756C24.8822 9.40448 24.85 9.35625 24.8094 9.31562L24.6812 9.1875L25.375 8.49373L25.5032 8.62188C25.5852 8.70392 25.6965 8.75 25.8125 8.75C25.9285 8.75 26.0398 8.70392 26.1219 8.62188L26.9969 7.74688C27.0789 7.66483 27.125 7.55354 27.125 7.4375V6.125C27.125 6.00896 27.0789 5.89767 26.9969 5.81562L22.1844 1.00312ZM10.1907 20.6906C9.85736 21.0239 9.41881 21.2313 8.94973 21.2775C8.48066 21.3237 8.01007 21.2058 7.61816 20.944C7.22625 20.6821 6.93726 20.2925 6.80044 19.8414C6.66362 19.3903 6.68742 18.9058 6.8678 18.4703C7.04818 18.0349 7.37397 17.6754 7.78966 17.4532C8.20535 17.231 8.68523 17.1599 9.14752 17.2518C9.60981 17.3438 10.0259 17.5932 10.3249 17.9575C10.624 18.3219 10.7874 18.7787 10.7874 19.25C10.7871 19.7903 10.5725 20.3084 10.1907 20.6906ZM6.69065 21.3094C7.18371 21.8011 7.83641 22.1002 8.53078 22.1527C9.22515 22.2052 9.91538 22.0075 10.4767 21.5954L11.176 22.2948C10.4278 22.8912 9.48611 23.1911 8.53076 23.1374C7.57542 23.0836 6.67333 22.6799 5.99673 22.0033C5.32013 21.3267 4.9164 20.4246 4.86263 19.4692C4.80887 18.5139 5.10882 17.5722 5.70523 16.824L6.40431 17.523C5.99149 18.0842 5.79339 18.7746 5.84593 19.4693C5.89846 20.1639 6.19814 20.8167 6.69065 21.3094ZM4.0538 18.4399C3.96213 18.9761 3.96213 19.5239 4.0538 20.0601L3.24374 19.25L4.0538 18.4399ZM3.06251 21.6938L1.93121 20.5625L2.625 19.8687L3.75628 21L3.06251 21.6938ZM7.43751 26.0688L6.30621 24.9375L7 24.2437L8.13128 25.375L7.43751 26.0688ZM8.75001 24.7563L7.93991 23.9462C8.47593 24.0397 9.02408 24.0397 9.5601 23.9462L8.75001 24.7563ZM11.7948 21.676L11.0957 20.977C11.5086 20.4159 11.7068 19.7255 11.6543 19.0308C11.6018 18.3362 11.3021 17.6834 10.8095 17.1908C10.3169 16.6982 9.66408 16.3984 8.96944 16.3459C8.27479 16.2934 7.58433 16.4916 7.02329 16.9046L6.32397 16.2052C7.07222 15.6088 8.01391 15.3089 8.96925 15.3626C9.9246 15.4164 10.8267 15.8201 11.5033 16.4967C12.1799 17.1733 12.5836 18.0754 12.6374 19.0308C12.6911 19.9861 12.3912 20.9278 11.7948 21.676ZM15.6648 13.029C14.4903 14.2046 13.5983 15.6316 13.0559 17.2024C12.5858 16.2119 11.788 15.4142 10.7976 14.9441C12.3683 14.4018 13.7954 13.5097 14.971 12.3352C15.8087 11.4987 16.5046 10.5313 17.0314 9.47102C17.2934 9.6446 17.5375 9.84397 17.7599 10.0661L17.9339 10.2401C18.1561 10.4625 18.3554 10.7066 18.529 10.9686C17.4687 11.4954 16.5013 12.1913 15.6648 13.029ZM20.1883 13.318C20.1203 11.9256 19.5373 10.6081 18.5526 9.62137L18.3786 9.44737C17.3919 8.46258 16.0744 7.87963 14.682 7.81171L18.375 4.11871L23.8813 9.625L20.1883 13.318ZM24.0625 8.56877L19.4312 3.9375L20.125 3.24373L24.7563 7.875L24.0625 8.56877ZM26.25 7.25629L25.8125 7.69379L20.3062 2.1875L20.7437 1.75H21.6938L26.25 6.30621V7.25629Z" fill="#373737"/>
<path d="M19.6875 9.625C19.9471 9.625 20.2008 9.54802 20.4167 9.4038C20.6325 9.25959 20.8008 9.0546 20.9001 8.81477C20.9994 8.57494 21.0254 8.31104 20.9748 8.05644C20.9241 7.80184 20.7991 7.56798 20.6156 7.38442C20.432 7.20087 20.1982 7.07586 19.9436 7.02522C19.689 6.97458 19.4251 7.00057 19.1852 7.09991C18.9454 7.19925 18.7404 7.36748 18.5962 7.58332C18.452 7.79915 18.375 8.05291 18.375 8.3125C18.3754 8.66048 18.5138 8.99409 18.7599 9.24014C19.0059 9.4862 19.3395 9.62461 19.6875 9.625ZM19.6875 7.875C19.774 7.875 19.8586 7.90066 19.9306 7.94873C20.0025 7.99681 20.0586 8.06513 20.0917 8.14508C20.1248 8.22502 20.1335 8.31299 20.1166 8.39785C20.0997 8.48272 20.058 8.56067 19.9969 8.62186C19.9357 8.68305 19.8577 8.72471 19.7729 8.74159C19.688 8.75848 19.6 8.74981 19.5201 8.7167C19.4401 8.68358 19.3718 8.62751 19.3237 8.55556C19.2757 8.48362 19.25 8.39903 19.25 8.3125C19.2501 8.19651 19.2963 8.08531 19.3783 8.00329C19.4603 7.92127 19.5715 7.87513 19.6875 7.875Z" fill="#373737"/>
<path d="M14.5625 17.3727L18.3719 21.182V24.0633C18.3719 24.1793 18.4179 24.2906 18.5 24.3727L20.6875 26.5602C20.7696 26.6422 20.8808 26.6883 20.9969 26.6883H24.0594C24.1754 26.6883 24.2867 26.6422 24.3687 26.5602L26.5562 24.3727C26.6383 24.2906 26.6844 24.1793 26.6844 24.0633V21.0008C26.6844 20.8847 26.6383 20.7735 26.5562 20.6914L24.3687 18.5039C24.2867 18.4219 24.1754 18.3758 24.0594 18.3758H21.1781L16.9312 14.1289L16.3125 14.7477L20.3781 18.8133L18.8094 20.3821L15.1812 16.7539L14.5625 17.3727ZM21.1781 19.2508H23.8781L25.8094 21.182V23.8821L23.8781 25.8133H21.1781L19.2469 23.8821V21.182L21.1781 19.2508Z" fill="#373737"/>
<path d="M3.19065 9.05938C3.2727 9.14142 3.38397 9.1875 3.5 9.1875H6.38127L10.6281 13.4344L11.2469 12.8156L7.18121 8.75L8.75 7.18121L13.2531 11.6844L13.8719 11.0656L9.1875 6.38127V3.5C9.1875 3.38396 9.1414 3.27267 9.05935 3.19062L6.87185 1.00312C6.7898 0.921084 6.67853 0.874998 6.5625 0.875H3.5C3.41347 0.875 3.32888 0.90066 3.25693 0.948735C3.18498 0.99681 3.12891 1.06514 3.09579 1.14509C3.06268 1.22503 3.05402 1.313 3.0709 1.39787C3.08779 1.48274 3.12946 1.56069 3.19065 1.62188L5.6875 4.11871V5.06879L5.06879 5.6875H4.11871L1.62185 3.19062C1.56066 3.12945 1.48271 3.08779 1.39784 3.07091C1.31298 3.05404 1.22502 3.06271 1.14508 3.09582C1.06514 3.12894 0.996815 3.18501 0.948742 3.25695C0.900669 3.32889 0.875007 3.41347 0.875 3.5V6.5625C0.875001 6.67854 0.921096 6.78983 1.00315 6.87188L3.19065 9.05938ZM1.75 4.55621L3.62815 6.43438C3.7102 6.51642 3.82147 6.5625 3.9375 6.5625H5.25C5.36603 6.5625 5.4773 6.51642 5.55935 6.43438L6.43435 5.55938C6.5164 5.47733 6.5625 5.36604 6.5625 5.25V3.9375C6.5625 3.82146 6.5164 3.71017 6.43435 3.62812L4.55621 1.75H6.38129L8.3125 3.68121V6.38127L6.38127 8.3125H3.68121L1.75 6.38129V4.55621Z" fill="#373737"/>
<path d="M20.6906 23.4969L21.5656 24.3719C21.6477 24.4539 21.759 24.5 21.875 24.5H23.1875C23.3035 24.5 23.4148 24.4539 23.4969 24.3719L24.3719 23.4969C24.4539 23.4148 24.5 23.3035 24.5 23.1875V21.875C24.5 21.759 24.4539 21.6477 24.3719 21.5656L23.4969 20.6906C23.4148 20.6086 23.3035 20.5625 23.1875 20.5625H21.875C21.759 20.5625 21.6477 20.6086 21.5656 20.6906L20.6906 21.5656C20.6086 21.6477 20.5625 21.759 20.5625 21.875V23.1875C20.5625 23.3035 20.6086 23.4148 20.6906 23.4969ZM21.4375 22.0562L22.0562 21.4375H23.0063L23.625 22.0562V23.0063L23.0063 23.625H22.0562L21.4375 23.0063V22.0562Z" fill="#373737"/>
<path d="M9.05621 8.43983L8.4375 9.05859L11.2814 11.9022L11.9001 11.2835L9.05621 8.43983Z" fill="#373737"/>
<path d="M16.275 15.6586L15.6562 16.2773L18.5001 19.121L19.1188 18.5022L16.275 15.6586Z" fill="#373737"/>
</g>
<defs>
<clipPath id="clip0_439_7229">
<rect width="28" height="28" fill="white"/>
</clipPath>
</defs>
</svg>

