<svg width="51" height="15" viewBox="0 0 51 15" fill="none" xmlns="http://www.w3.org/2000/svg">
<path id="Forma_1_copy_2 Copy 8" fill-rule="evenodd" clip-rule="evenodd" d="M49.5771 0.341039C49.6171 0.368164 49.6571 0.395287 49.6977 0.42584C49.8053 0.49861 49.9033 0.584676 49.9895 0.682006C50.0272 0.713199 50.061 0.74877 50.0904 0.78797C50.1058 0.808823 50.12 0.822817 50.1354 0.84367C50.2253 0.963487 50.2963 1.09647 50.3459 1.23793C50.4011 1.43024 50.4207 1.58663 50.4114 1.74261C50.4208 1.76256 50.4247 1.78466 50.4227 1.80662L50.1532 9.80265C50.158 10.1879 49.9976 10.5565 49.7128 10.8146C49.428 11.0727 49.0463 11.1955 48.6647 11.1518C47.6373 10.7861 47.773 10.0903 47.8128 9.31723L48.2075 3.56323C45.2423 6.26277 41.9879 8.62407 38.5036 10.6039C23.8968 17.9446 7.83932 16.3163 0.228273 3.32297C-0.158931 2.75142 -0.045089 1.978 0.490087 1.54425C0.546518 1.50151 0.606744 1.46407 0.670007 1.43238C1.39932 1.12478 2.24299 1.42102 2.62297 2.11812C9.1224 14.0688 23.9101 15.5556 37.2333 8.86083C40.7094 7.0662 43.93 4.8125 46.8091 2.15975L39.2063 2.13432C38.4473 2.22572 37.4556 2.1295 37.4836 1.28894C37.424 0.978475 37.5021 0.657513 37.6975 0.409809C37.8929 0.162104 38.1863 0.0122312 38.501 -0.00070489L48.6719 0.136448C48.8107 0.124134 48.9505 0.13203 49.0871 0.159887C49.2667 0.192962 49.4282 0.254796 49.5771 0.341039Z" fill="#3A647D"/>
</svg>
