<svg width="39" height="32" viewBox="0 0 39 32" fill="none" xmlns="http://www.w3.org/2000/svg">
<g id="Group 9 Copy">
<g id="Group 7">
<g id="Group 6">
<g id="Group 4">
<g id="Group 8 Copy" clip-path="url(#clip0_442_8288)" filter="url(#filter0_d_442_8288)">
<g id="support">
<g id="Rectangle">
<path id="Mask" d="M3.11032 0H19.0095C19.9634 0 20.7266 0.769593 20.7266 1.68478V11.3775C20.7266 12.3135 19.9422 13.0623 19.0095 13.0623H8.04965L5.56939 15.5167C5.4634 15.6207 5.3362 15.6831 5.18781 15.6831C4.89103 15.6831 4.63664 15.4543 4.63664 15.1423V13.0623H3.11032C2.15638 13.0623 1.39322 12.2927 1.39322 11.3775V1.68478C1.39322 0.748793 2.17758 0 3.11032 0Z" fill="#F7941E"/>
<mask id="mask0_442_8288" style="mask-type:luminance" maskUnits="userSpaceOnUse" x="1" y="0" width="20" height="16">
<path id="Mask_2" d="M3.11032 0H19.0095C19.9634 0 20.7266 0.769593 20.7266 1.68478V11.3775C20.7266 12.3135 19.9422 13.0623 19.0095 13.0623H8.04965L5.56939 15.5167C5.4634 15.6207 5.3362 15.6831 5.18781 15.6831C4.89103 15.6831 4.63664 15.4543 4.63664 15.1423V13.0623H3.11032C2.15638 13.0623 1.39322 12.2927 1.39322 11.3775V1.68478C1.39322 0.748793 2.17758 0 3.11032 0Z" fill="white"/>
</mask>
<g mask="url(#mask0_442_8288)">
<path id="Rectangle_2" fill-rule="evenodd" clip-rule="evenodd" d="M6.57812 -4.44531L-4.95476 0.698729L3.54945 19.834L15.0823 14.6899L6.57812 -4.44531Z" fill="#FBB040"/>
</g>
</g>
</g>
<path id="$28" d="M6.65752 10.0468C6.4177 10.0468 6.18196 10.0154 5.95031 9.95276C5.71866 9.88735 5.50881 9.78243 5.32077 9.63799C5.13272 9.49355 4.98283 9.30142 4.87109 9.06159C4.75936 8.82177 4.70349 8.52471 4.70349 8.17042H5.59466C5.59466 8.39117 5.62464 8.57513 5.68459 8.72229C5.74727 8.86946 5.8304 8.98528 5.93396 9.06977C6.03752 9.15425 6.15198 9.21421 6.27734 9.24964C6.40271 9.28507 6.52943 9.30278 6.65752 9.30278C6.87827 9.30278 7.06495 9.26599 7.21757 9.19241C7.37019 9.11882 7.48601 9.01526 7.56504 8.88172C7.6468 8.74818 7.68768 8.59284 7.68768 8.4157C7.68768 8.25763 7.65362 8.11728 7.58548 7.99464C7.51735 7.86928 7.40561 7.75618 7.25027 7.65534C7.09766 7.55178 6.8919 7.4564 6.63299 7.36919C6.28416 7.25472 5.98165 7.12118 5.72547 6.96857C5.47202 6.81323 5.2758 6.62246 5.13681 6.39626C4.99782 6.17006 4.92832 5.89072 4.92832 5.55823C4.92832 5.22302 5.00327 4.93278 5.15316 4.6875C5.30305 4.44222 5.5129 4.25418 5.7827 4.12336C6.05251 3.98983 6.37 3.92306 6.73519 3.92306C7.10856 3.92306 7.43014 3.998 7.69995 4.14789C7.96975 4.29506 8.17687 4.51172 8.32131 4.79787C8.46848 5.08403 8.54206 5.4315 8.54206 5.8403H7.65498C7.65498 5.48874 7.57458 5.20531 7.41379 4.99001C7.253 4.77471 7.02407 4.66706 6.72702 4.66706C6.52262 4.66706 6.35229 4.70521 6.21602 4.78152C6.08249 4.85511 5.98301 4.95867 5.91761 5.09221C5.8522 5.22302 5.81949 5.37564 5.81949 5.55005C5.81949 5.71357 5.8522 5.85665 5.91761 5.97929C5.98301 6.0992 6.09339 6.20821 6.24873 6.30632C6.40679 6.40443 6.62209 6.50254 6.89462 6.60065C7.24891 6.72057 7.55142 6.85819 7.80214 7.01354C8.05287 7.16615 8.245 7.3542 8.37854 7.57767C8.51481 7.80114 8.58294 8.07776 8.58294 8.40752C8.58294 8.76181 8.50254 9.06023 8.34175 9.30278C8.18096 9.54533 7.95612 9.73065 7.66724 9.85874C7.38109 9.9841 7.04451 10.0468 6.65752 10.0468ZM6.36728 10.8194V9.72793H6.98864V10.8194H6.36728ZM6.44086 4.28279V3.04824H7.06632V4.28279H6.44086ZM13.4312 9.96094H9.4782V9.33957L11.42 7.20158C11.6462 6.95085 11.8219 6.73692 11.9473 6.55977C12.0754 6.37991 12.164 6.21911 12.213 6.0774C12.2648 5.93296 12.2907 5.78852 12.2907 5.64408C12.2907 5.36065 12.2076 5.12355 12.0413 4.93278C11.8778 4.73928 11.6448 4.64253 11.3423 4.64253C11.0997 4.64253 10.8967 4.69159 10.7332 4.7897C10.5724 4.88781 10.4511 5.02407 10.3694 5.19849C10.2903 5.37019 10.2508 5.56913 10.2508 5.79533H9.35965C9.35965 5.45194 9.43596 5.13854 9.58857 4.85511C9.74391 4.57168 9.96875 4.34684 10.2631 4.1806C10.5601 4.01163 10.9212 3.92714 11.3464 3.92714C11.9269 3.92714 12.3779 4.07431 12.6995 4.36864C13.0238 4.66297 13.186 5.05541 13.186 5.54597C13.186 5.78852 13.1342 6.02971 13.0306 6.26953C12.9271 6.50936 12.7867 6.74782 12.6096 6.98492C12.4324 7.22202 12.2321 7.45912 12.0086 7.69622L10.5779 9.24555H13.4312V9.96094ZM16.1129 10.0427C15.7477 10.0427 15.4193 9.97729 15.1277 9.84648C14.8361 9.71566 14.6058 9.52489 14.4369 9.27416C14.2679 9.02071 14.1834 8.71003 14.1834 8.34211C14.1834 8.02326 14.2652 7.74119 14.4287 7.49591C14.5949 7.24791 14.8225 7.05441 15.1114 6.91543C15.4003 6.77644 15.7314 6.70694 16.1047 6.70694C16.4754 6.70694 16.8065 6.77644 17.0981 6.91543C17.3897 7.05441 17.6186 7.24791 17.7849 7.49591C17.9539 7.74119 18.0383 8.02326 18.0383 8.34211C18.0383 8.71003 17.9539 9.02071 17.7849 9.27416C17.6159 9.52489 17.3856 9.71566 17.094 9.84648C16.8051 9.97729 16.4781 10.0427 16.1129 10.0427ZM16.1129 9.32731C16.3282 9.32731 16.5122 9.28643 16.6648 9.20467C16.8201 9.12291 16.9387 9.00572 17.0204 8.85311C17.1049 8.70049 17.1472 8.5179 17.1472 8.30532C17.1472 8.0982 17.1036 7.91697 17.0164 7.76163C16.9291 7.60356 16.8065 7.48092 16.6484 7.39371C16.4931 7.30378 16.3119 7.25881 16.1047 7.25881C15.8949 7.25881 15.7123 7.30378 15.557 7.39371C15.4043 7.48092 15.2858 7.60356 15.2013 7.76163C15.1168 7.91697 15.0746 8.0982 15.0746 8.30532C15.0746 8.5179 15.1168 8.70049 15.2013 8.85311C15.2858 9.00572 15.4057 9.12291 15.561 9.20467C15.7164 9.28643 15.9003 9.32731 16.1129 9.32731ZM16.1129 7.10347C15.7641 7.10347 15.4534 7.0367 15.1809 6.90316C14.9111 6.76962 14.6985 6.58703 14.5432 6.35538C14.3905 6.12373 14.3142 5.86074 14.3142 5.56641C14.3142 5.21757 14.3905 4.92187 14.5432 4.67932C14.6985 4.43405 14.9124 4.24737 15.185 4.11928C15.4575 3.99119 15.7654 3.92714 16.1088 3.92714C16.4577 3.92714 16.767 3.99119 17.0368 4.11928C17.3066 4.24737 17.5178 4.43405 17.6704 4.67932C17.8258 4.92187 17.9034 5.21757 17.9034 5.56641C17.9034 5.86074 17.8258 6.12373 17.6704 6.35538C17.5151 6.58703 17.3025 6.76962 17.0327 6.90316C16.7629 7.0367 16.4563 7.10347 16.1129 7.10347ZM16.1129 6.53933C16.2955 6.53933 16.4536 6.50118 16.5871 6.42487C16.7207 6.34584 16.8242 6.23547 16.8978 6.09375C16.9741 5.94931 17.0123 5.78307 17.0123 5.59502C17.0123 5.4097 16.9741 5.24618 16.8978 5.10447C16.8242 4.96003 16.7193 4.84693 16.583 4.76517C16.4495 4.68341 16.2914 4.64253 16.1088 4.64253C15.9262 4.64253 15.7668 4.68205 15.6305 4.76108C15.497 4.83739 15.3934 4.9464 15.3199 5.08812C15.2463 5.22983 15.2095 5.3988 15.2095 5.59502C15.2095 5.78307 15.2463 5.94931 15.3199 6.09375C15.3934 6.23547 15.4984 6.34584 15.6346 6.42487C15.7709 6.50118 15.9303 6.53933 16.1129 6.53933Z" fill="white"/>
</g>
</g>
<g id="Group 8 Copy 4" clip-path="url(#clip1_442_8288)" filter="url(#filter1_d_442_8288)">
<g id="support_2">
<g id="Rectangle_3">
<path id="Mask_3" d="M35.7558 2.89844H18.8141C17.7976 2.89844 16.9844 3.72902 16.9844 4.71675V15.1776C16.9844 16.1878 17.8202 16.9959 18.8141 16.9959H30.4926L33.1355 19.6448C33.2484 19.7571 33.3839 19.8244 33.5421 19.8244C33.8583 19.8244 34.1294 19.5775 34.1294 19.2408V16.9959H35.7558C36.7723 16.9959 37.5855 16.1654 37.5855 15.1776V4.71675C37.5855 3.70657 36.7497 2.89844 35.7558 2.89844Z" fill="#00A3E7"/>
<mask id="mask1_442_8288" style="mask-type:luminance" maskUnits="userSpaceOnUse" x="16" y="2" width="22" height="18">
<path id="Mask_4" d="M35.7558 2.89844H18.8141C17.7976 2.89844 16.9844 3.72902 16.9844 4.71675V15.1776C16.9844 16.1878 17.8202 16.9959 18.8141 16.9959H30.4926L33.1355 19.6448C33.2484 19.7571 33.3839 19.8244 33.5421 19.8244C33.8583 19.8244 34.1294 19.5775 34.1294 19.2408V16.9959H35.7558C36.7723 16.9959 37.5855 16.1654 37.5855 15.1776V4.71675C37.5855 3.70657 36.7497 2.89844 35.7558 2.89844Z" fill="white"/>
</mask>
<g mask="url(#mask1_442_8288)">
<path id="Rectangle_4" opacity="0.11113" fill-rule="evenodd" clip-rule="evenodd" d="M32.125 -1.86719L44.4141 3.61417L35.2359 24.2659L22.9468 18.7846L32.125 -1.86719Z" fill="black"/>
</g>
</g>
</g>
<path id="$37" d="M22.3465 13.2167C22.1067 13.2167 21.8709 13.1854 21.6393 13.1227C21.4076 13.0573 21.1978 12.9524 21.0097 12.8079C20.8217 12.6635 20.6718 12.4713 20.5601 12.2315C20.4483 11.9917 20.3925 11.6946 20.3925 11.3403H21.2836C21.2836 11.5611 21.3136 11.745 21.3736 11.8922C21.4363 12.0394 21.5194 12.1552 21.6229 12.2397C21.7265 12.3242 21.841 12.3841 21.9663 12.4196C22.0917 12.455 22.2184 12.4727 22.3465 12.4727C22.5672 12.4727 22.7539 12.4359 22.9065 12.3623C23.0592 12.2887 23.175 12.1852 23.254 12.0516C23.3358 11.9181 23.3767 11.7628 23.3767 11.5856C23.3767 11.4276 23.3426 11.2872 23.2745 11.1646C23.2063 11.0392 23.0946 10.9261 22.9392 10.8253C22.7866 10.7217 22.5809 10.6263 22.322 10.5391C21.9731 10.4246 21.6706 10.2911 21.4144 10.1385C21.161 9.98315 20.9648 9.79238 20.8258 9.56618C20.6868 9.33998 20.6173 9.06064 20.6173 8.72815C20.6173 8.39294 20.6922 8.1027 20.8421 7.85742C20.992 7.61215 21.2019 7.4241 21.4717 7.29329C21.7415 7.15975 22.059 7.09298 22.4242 7.09298C22.7975 7.09298 23.1191 7.16792 23.3889 7.31781C23.6587 7.46498 23.8658 7.68164 24.0103 7.9678C24.1575 8.25395 24.231 8.60143 24.231 9.01022H23.344C23.344 8.65866 23.2636 8.37523 23.1028 8.15993C22.942 7.94463 22.713 7.83698 22.416 7.83698C22.2116 7.83698 22.0413 7.87514 21.905 7.95144C21.7715 8.02503 21.672 8.12859 21.6066 8.26213C21.5412 8.39294 21.5085 8.54556 21.5085 8.71998C21.5085 8.88349 21.5412 9.02657 21.6066 9.14921C21.672 9.26912 21.7824 9.37813 21.9377 9.47624C22.0958 9.57435 22.3111 9.67247 22.5836 9.77058C22.9379 9.89049 23.2404 10.0281 23.4911 10.1835C23.7418 10.3361 23.934 10.5241 24.0675 10.7476C24.2038 10.9711 24.2719 11.2477 24.2719 11.5774C24.2719 11.9317 24.1915 12.2302 24.0307 12.4727C23.8699 12.7153 23.6451 12.9006 23.3562 13.0287C23.0701 13.154 22.7335 13.2167 22.3465 13.2167ZM22.0563 13.9893V12.8978H22.6776V13.9893H22.0563ZM22.1298 7.45272V6.21816H22.7553V7.45272H22.1298ZM26.8637 9.73787C27.1062 9.73787 27.3079 9.69699 27.4687 9.61523C27.6295 9.53075 27.7494 9.41629 27.8284 9.27185C27.9075 9.12741 27.947 8.96116 27.947 8.77312C27.947 8.57145 27.9115 8.39975 27.8407 8.25804C27.7698 8.1136 27.6635 8.00322 27.5218 7.92692C27.3801 7.85061 27.2002 7.81245 26.9822 7.81245C26.7914 7.81245 26.6211 7.85061 26.4712 7.92692C26.3241 8.0005 26.2082 8.10679 26.1238 8.24578C26.0393 8.38204 25.997 8.5442 25.997 8.73224H25.1018C25.1018 8.41883 25.1808 8.13949 25.3389 7.89421C25.4997 7.64894 25.7204 7.45544 26.0011 7.31373C26.2845 7.16929 26.6089 7.09707 26.974 7.09707C27.3474 7.09707 27.6731 7.16111 27.9511 7.2892C28.2318 7.41456 28.4498 7.60261 28.6051 7.85333C28.7605 8.10406 28.8381 8.41338 28.8381 8.7813C28.8381 8.94481 28.8013 9.11242 28.7278 9.28411C28.6542 9.4558 28.5411 9.61523 28.3885 9.7624C28.2386 9.90684 28.0478 10.024 27.8162 10.114C27.5845 10.2039 27.312 10.2489 26.9986 10.2489H26.2995V9.73787H26.8637ZM26.2995 9.94227H26.9986C27.361 9.94227 27.6663 9.98587 27.9143 10.0731C28.1623 10.1576 28.3599 10.272 28.507 10.4165C28.6569 10.5609 28.7646 10.7244 28.83 10.907C28.8954 11.0896 28.9281 11.2763 28.9281 11.4671C28.9281 11.8377 28.8422 12.1538 28.6705 12.4155C28.5016 12.6744 28.2686 12.872 27.9715 13.0082C27.6772 13.1445 27.346 13.2126 26.9781 13.2126C26.7192 13.2126 26.474 13.1772 26.2423 13.1063C26.0107 13.0327 25.8049 12.9265 25.625 12.7875C25.4452 12.6458 25.3034 12.4713 25.1999 12.2642C25.099 12.0544 25.0486 11.8132 25.0486 11.5407H25.9398C25.9398 11.7287 25.9834 11.8949 26.0706 12.0394C26.1578 12.1811 26.2791 12.2928 26.4344 12.3746C26.5898 12.4563 26.7737 12.4972 26.9863 12.4972C27.3133 12.4972 27.5695 12.41 27.7548 12.2356C27.9429 12.0612 28.0369 11.8077 28.0369 11.4752C28.0369 11.2381 27.9892 11.0446 27.8938 10.8948C27.7984 10.7421 27.6622 10.6304 27.485 10.5595C27.3106 10.486 27.1035 10.4492 26.8637 10.4492H26.2995V9.94227ZM33.8091 7.67346L31.3972 13.1309H30.457L32.8688 7.89421H29.7293V7.17882H33.8091V7.67346Z" fill="white"/>
</g>
<g id="Group 8" clip-path="url(#clip2_442_8288)" filter="url(#filter2_d_442_8288)">
<g id="support_3">
<g id="Rectangle_5">
<path id="Mask_5" d="M26.0292 11.623H9.08752C8.07101 11.623 7.25781 12.4536 7.25781 13.4414V23.9022C7.25781 24.9124 8.0936 25.7206 9.08752 25.7206H20.766L23.4089 28.3694C23.5218 28.4817 23.6574 28.549 23.8155 28.549C24.1317 28.549 24.4028 28.3021 24.4028 27.9654V25.7206H26.0292C27.0457 25.7206 27.8589 24.89 27.8589 23.9022V13.4414C27.8589 12.4312 27.0231 11.623 26.0292 11.623Z" fill="#FF9000"/>
<mask id="mask2_442_8288" style="mask-type:luminance" maskUnits="userSpaceOnUse" x="7" y="11" width="21" height="18">
<path id="Mask_6" d="M26.0292 11.623H9.08752C8.07101 11.623 7.25781 12.4536 7.25781 13.4414V23.9022C7.25781 24.9124 8.0936 25.7206 9.08752 25.7206H20.766L23.4089 28.3694C23.5218 28.4817 23.6574 28.549 23.8155 28.549C24.1317 28.549 24.4028 28.3021 24.4028 27.9654V25.7206H26.0292C27.0457 25.7206 27.8589 24.89 27.8589 23.9022V13.4414C27.8589 12.4312 27.0231 11.623 26.0292 11.623Z" fill="white"/>
</mask>
<g mask="url(#mask2_442_8288)">
<path id="Rectangle_6" opacity="0.11113" fill-rule="evenodd" clip-rule="evenodd" d="M22.3984 6.85938L34.6876 12.3407L25.5094 32.9925L13.2202 27.5112L22.3984 6.85938Z" fill="black"/>
</g>
</g>
</g>
<path id="$45" d="M12.534 21.4784C12.2942 21.4784 12.0584 21.4471 11.8268 21.3844C11.5951 21.319 11.3853 21.2141 11.1972 21.0696C11.0092 20.9252 10.8593 20.7331 10.7476 20.4932C10.6358 20.2534 10.58 19.9563 10.58 19.6021H11.4711C11.4711 19.8228 11.5011 20.0068 11.5611 20.1539C11.6238 20.3011 11.7069 20.4169 11.8104 20.5014C11.914 20.5859 12.0285 20.6458 12.1538 20.6813C12.2792 20.7167 12.4059 20.7344 12.534 20.7344C12.7547 20.7344 12.9414 20.6976 13.094 20.624C13.2467 20.5505 13.3625 20.4469 13.4415 20.3134C13.5233 20.1798 13.5642 20.0245 13.5642 19.8473C13.5642 19.6893 13.5301 19.5489 13.462 19.4263C13.3938 19.3009 13.2821 19.1878 13.1267 19.087C12.9741 18.9834 12.7684 18.888 12.5095 18.8008C12.1606 18.6864 11.8581 18.5528 11.6019 18.4002C11.3485 18.2449 11.1523 18.0541 11.0133 17.8279C10.8743 17.6017 10.8048 17.3224 10.8048 16.9899C10.8048 16.6547 10.8797 16.3644 11.0296 16.1191C11.1795 15.8739 11.3894 15.6858 11.6592 15.555C11.929 15.4215 12.2465 15.3547 12.6117 15.3547C12.985 15.3547 13.3066 15.4296 13.5764 15.5795C13.8462 15.7267 14.0533 15.9434 14.1978 16.2295C14.345 16.5157 14.4185 16.8631 14.4185 17.2719H13.5315C13.5315 16.9204 13.4511 16.6369 13.2903 16.4216C13.1295 16.2063 12.9005 16.0987 12.6035 16.0987C12.3991 16.0987 12.2288 16.1369 12.0925 16.2132C11.959 16.2867 11.8595 16.3903 11.7941 16.5238C11.7287 16.6547 11.696 16.8073 11.696 16.9817C11.696 17.1452 11.7287 17.2883 11.7941 17.4109C11.8595 17.5308 11.9699 17.6399 12.1252 17.738C12.2833 17.8361 12.4986 17.9342 12.7711 18.0323C13.1254 18.1522 13.4279 18.2898 13.6786 18.4452C13.9293 18.5978 14.1215 18.7858 14.255 19.0093C14.3913 19.2328 14.4594 19.5094 14.4594 19.8392C14.4594 20.1935 14.379 20.4919 14.2182 20.7344C14.0574 20.977 13.8326 21.1623 13.5437 21.2904C13.2576 21.4157 12.921 21.4784 12.534 21.4784ZM12.2438 22.251V21.1596H12.8651V22.251H12.2438ZM12.3173 15.7144V14.4799H12.9428V15.7144H12.3173ZM19.4181 20.0354H15.1217L15.1053 19.504L17.7093 15.4405H18.4288L17.6644 16.7977L16.0619 19.32H19.4181V20.0354ZM18.6414 21.3926H17.7502V15.4405H18.6414V21.3926ZM20.3828 18.4206L20.6976 15.4405H23.8371V16.2213H21.4416L21.274 17.7461C21.3721 17.6862 21.5029 17.6303 21.6664 17.5785C21.8327 17.524 22.0221 17.4968 22.2347 17.4968C22.6053 17.4968 22.9228 17.5785 23.1872 17.7421C23.4542 17.9028 23.6586 18.1318 23.8003 18.4288C23.9448 18.7259 24.017 19.0802 24.017 19.4917C24.017 19.8623 23.9462 20.1975 23.8044 20.4973C23.6654 20.7971 23.4542 21.0356 23.1708 21.2127C22.8874 21.3871 22.529 21.4743 22.0957 21.4743C21.8504 21.4743 21.6174 21.4403 21.3966 21.3721C21.1759 21.3013 20.9783 21.195 20.8039 21.0533C20.6295 20.9116 20.4878 20.7371 20.3787 20.53C20.2697 20.3202 20.2057 20.0763 20.1866 19.7983H21.0492C21.0873 20.109 21.1963 20.3474 21.3762 20.5137C21.5588 20.6772 21.7973 20.7589 22.0916 20.7589C22.3178 20.7589 22.5072 20.7058 22.6598 20.5995C22.8152 20.4932 22.931 20.3433 23.0073 20.1498C23.0863 19.9563 23.1258 19.7315 23.1258 19.4753C23.1258 19.2382 23.0836 19.027 22.9991 18.8417C22.9146 18.6564 22.7893 18.5092 22.623 18.4002C22.4595 18.2912 22.2551 18.2367 22.0098 18.2367C21.7673 18.2367 21.5833 18.2708 21.458 18.3389C21.3353 18.4043 21.214 18.4915 21.0941 18.6005L20.3828 18.4206Z" fill="white"/>
</g>
</g>
</g>
</g>
<defs>
<filter id="filter0_d_442_8288" x="-0.00472391" y="0" width="22.1266" height="18.4743" filterUnits="userSpaceOnUse" color-interpolation-filters="sRGB">
<feFlood flood-opacity="0" result="BackgroundImageFix"/>
<feColorMatrix in="SourceAlpha" type="matrix" values="0 0 0 0 0 0 0 0 0 0 0 0 0 0 0 0 0 0 127 0" result="hardAlpha"/>
<feOffset dy="1.39535"/>
<feGaussianBlur stdDeviation="0.697674"/>
<feColorMatrix type="matrix" values="0 0 0 0 0 0 0 0 0 0 0 0 0 0 0 0 0 0 0.101874 0"/>
<feBlend mode="normal" in2="BackgroundImageFix" result="effect1_dropShadow_442_8288"/>
<feBlend mode="normal" in="SourceGraphic" in2="effect1_dropShadow_442_8288" result="shape"/>
</filter>
<filter id="filter1_d_442_8288" x="15.589" y="2.89844" width="23.3923" height="19.7165" filterUnits="userSpaceOnUse" color-interpolation-filters="sRGB">
<feFlood flood-opacity="0" result="BackgroundImageFix"/>
<feColorMatrix in="SourceAlpha" type="matrix" values="0 0 0 0 0 0 0 0 0 0 0 0 0 0 0 0 0 0 127 0" result="hardAlpha"/>
<feOffset dy="1.39535"/>
<feGaussianBlur stdDeviation="0.697674"/>
<feColorMatrix type="matrix" values="0 0 0 0 0 0 0 0 0 0 0 0 0 0 0 0 0 0 0.101874 0"/>
<feBlend mode="normal" in2="BackgroundImageFix" result="effect1_dropShadow_442_8288"/>
<feBlend mode="normal" in="SourceGraphic" in2="effect1_dropShadow_442_8288" result="shape"/>
</filter>
<filter id="filter2_d_442_8288" x="5.86246" y="11.623" width="23.3923" height="19.7165" filterUnits="userSpaceOnUse" color-interpolation-filters="sRGB">
<feFlood flood-opacity="0" result="BackgroundImageFix"/>
<feColorMatrix in="SourceAlpha" type="matrix" values="0 0 0 0 0 0 0 0 0 0 0 0 0 0 0 0 0 0 127 0" result="hardAlpha"/>
<feOffset dy="1.39535"/>
<feGaussianBlur stdDeviation="0.697674"/>
<feColorMatrix type="matrix" values="0 0 0 0 0 0 0 0 0 0 0 0 0 0 0 0 0 0 0.101874 0"/>
<feBlend mode="normal" in2="BackgroundImageFix" result="effect1_dropShadow_442_8288"/>
<feBlend mode="normal" in="SourceGraphic" in2="effect1_dropShadow_442_8288" result="shape"/>
</filter>
<clipPath id="clip0_442_8288">
<rect width="19.3333" height="15.6831" fill="white" transform="matrix(-1 0 0 1 20.7266 0)"/>
</clipPath>
<clipPath id="clip1_442_8288">
<rect width="20.6011" height="16.926" fill="white" transform="translate(16.9844 2.89844)"/>
</clipPath>
<clipPath id="clip2_442_8288">
<rect width="20.6011" height="16.926" fill="white" transform="translate(7.25781 11.623)"/>
</clipPath>
</defs>
</svg>
