<svg width="159" height="47" viewBox="0 0 159 47" fill="none" xmlns="http://www.w3.org/2000/svg">
<g id="Group_160" opacity="0.8">
<g id="Group">
<path id="Path_110-3" d="M24.5 0.5H134.136C147.391 0.5 158.136 10.7975 158.136 23.5C158.136 36.2025 147.391 46.5 134.136 46.5H24.5C11.2452 46.5 0.5 36.2025 0.5 23.5C0.5 10.7975 11.2452 0.5 24.5 0.5Z" stroke="white"/>
</g>
<g id="Group_159">
<g id="Play_Store" clip-path="url(#clip0_627_6628)">
<path id="Play Store" d="M57.9003 28V16.228H61.6083C62.4843 16.228 63.2643 16.342 63.9483 16.57C64.6323 16.798 65.1723 17.176 65.5683 17.704C65.9643 18.232 66.1623 18.952 66.1623 19.864C66.1623 20.728 65.9643 21.442 65.5683 22.006C65.1723 22.57 64.6383 22.99 63.9663 23.266C63.2943 23.542 62.5323 23.68 61.6803 23.68H59.9883V28H57.9003ZM59.9883 22.006H61.5183C63.2463 22.006 64.1103 21.292 64.1103 19.864C64.1103 19.12 63.8823 18.61 63.4263 18.334C62.9823 18.046 62.3223 17.902 61.4463 17.902H59.9883V22.006ZM70.2128 28.216C69.4808 28.216 68.9588 27.994 68.6468 27.55C68.3468 27.106 68.1968 26.5 68.1968 25.732V15.292H70.2668V25.84C70.2668 26.092 70.3148 26.272 70.4108 26.38C70.5068 26.476 70.6088 26.524 70.7168 26.524C70.7648 26.524 70.8068 26.524 70.8428 26.524C70.8908 26.512 70.9568 26.5 71.0408 26.488L71.3108 28.036C71.1908 28.084 71.0348 28.126 70.8428 28.162C70.6628 28.198 70.4528 28.216 70.2128 28.216ZM75.2255 28.216C74.4575 28.216 73.8275 27.976 73.3355 27.496C72.8555 27.016 72.6155 26.392 72.6155 25.624C72.6155 24.676 73.0295 23.944 73.8575 23.428C74.6855 22.9 76.0055 22.54 77.8175 22.348C77.8055 21.88 77.6795 21.478 77.4395 21.142C77.2115 20.794 76.7975 20.62 76.1975 20.62C75.7655 20.62 75.3395 20.704 74.9195 20.872C74.5115 21.04 74.1095 21.244 73.7135 21.484L72.9575 20.098C73.4495 19.786 74.0015 19.516 74.6135 19.288C75.2375 19.06 75.8975 18.946 76.5935 18.946C77.6975 18.946 78.5195 19.276 79.0595 19.936C79.6115 20.584 79.8875 21.526 79.8875 22.762V28H78.1775L78.0335 27.028H77.9615C77.5655 27.364 77.1395 27.646 76.6835 27.874C76.2395 28.102 75.7535 28.216 75.2255 28.216ZM75.8915 26.596C76.2515 26.596 76.5755 26.512 76.8635 26.344C77.1635 26.164 77.4815 25.924 77.8175 25.624V23.644C76.6175 23.8 75.7835 24.034 75.3155 24.346C74.8475 24.646 74.6135 25.018 74.6135 25.462C74.6135 25.858 74.7335 26.146 74.9735 26.326C75.2135 26.506 75.5195 26.596 75.8915 26.596ZM82.9588 31.636C82.7188 31.636 82.5088 31.618 82.3288 31.582C82.1488 31.546 81.9748 31.504 81.8068 31.456L82.1848 29.836C82.2688 29.86 82.3648 29.884 82.4728 29.908C82.5928 29.944 82.7068 29.962 82.8148 29.962C83.2828 29.962 83.6548 29.818 83.9308 29.53C84.2188 29.254 84.4348 28.894 84.5788 28.45L84.7408 27.892L81.2668 19.162H83.3728L84.9028 23.5C85.0348 23.884 85.1608 24.292 85.2808 24.724C85.4128 25.144 85.5448 25.564 85.6768 25.984H85.7488C85.8568 25.576 85.9648 25.162 86.0728 24.742C86.1928 24.31 86.3068 23.896 86.4148 23.5L87.7468 19.162H89.7448L86.5408 28.396C86.1688 29.392 85.7188 30.178 85.1908 30.754C84.6628 31.342 83.9188 31.636 82.9588 31.636ZM98.4984 28.216C97.7064 28.216 96.9384 28.066 96.1944 27.766C95.4624 27.466 94.8144 27.04 94.2504 26.488L95.4744 25.066C95.8944 25.462 96.3744 25.786 96.9144 26.038C97.4544 26.278 97.9944 26.398 98.5344 26.398C99.2064 26.398 99.7164 26.26 100.064 25.984C100.412 25.708 100.586 25.342 100.586 24.886C100.586 24.394 100.412 24.04 100.064 23.824C99.7284 23.608 99.2964 23.386 98.7684 23.158L97.1484 22.456C96.7644 22.288 96.3864 22.072 96.0144 21.808C95.6544 21.544 95.3544 21.208 95.1144 20.8C94.8864 20.392 94.7724 19.9 94.7724 19.324C94.7724 18.7 94.9404 18.142 95.2764 17.65C95.6244 17.146 96.0924 16.75 96.6804 16.462C97.2804 16.162 97.9644 16.012 98.7324 16.012C99.4164 16.012 100.076 16.15 100.712 16.426C101.348 16.69 101.894 17.05 102.35 17.506L101.288 18.838C100.916 18.526 100.52 18.28 100.1 18.1C99.6924 17.92 99.2364 17.83 98.7324 17.83C98.1804 17.83 97.7304 17.956 97.3824 18.208C97.0464 18.448 96.8784 18.784 96.8784 19.216C96.8784 19.516 96.9624 19.768 97.1304 19.972C97.3104 20.164 97.5444 20.332 97.8324 20.476C98.1204 20.608 98.4264 20.74 98.7504 20.872L100.352 21.538C101.048 21.838 101.618 22.234 102.062 22.726C102.506 23.206 102.728 23.872 102.728 24.724C102.728 25.36 102.56 25.942 102.224 26.47C101.888 26.998 101.402 27.424 100.766 27.748C100.142 28.06 99.3864 28.216 98.4984 28.216ZM107.328 28.216C106.308 28.216 105.582 27.922 105.15 27.334C104.73 26.734 104.52 25.96 104.52 25.012V20.8H103.26V19.252L104.628 19.162L104.88 16.75H106.608V19.162H108.858V20.8H106.608V25.012C106.608 26.044 107.022 26.56 107.85 26.56C108.006 26.56 108.168 26.542 108.336 26.506C108.504 26.458 108.648 26.41 108.768 26.362L109.128 27.892C108.888 27.976 108.612 28.048 108.3 28.108C108 28.18 107.676 28.216 107.328 28.216ZM114.055 28.216C113.323 28.216 112.639 28.036 112.003 27.676C111.367 27.304 110.851 26.776 110.455 26.092C110.059 25.396 109.861 24.562 109.861 23.59C109.861 22.606 110.059 21.772 110.455 21.088C110.851 20.392 111.367 19.864 112.003 19.504C112.639 19.132 113.323 18.946 114.055 18.946C114.799 18.946 115.489 19.132 116.125 19.504C116.761 19.864 117.277 20.392 117.673 21.088C118.069 21.772 118.267 22.606 118.267 23.59C118.267 24.562 118.069 25.396 117.673 26.092C117.277 26.776 116.761 27.304 116.125 27.676C115.489 28.036 114.799 28.216 114.055 28.216ZM114.055 26.524C114.703 26.524 115.213 26.254 115.585 25.714C115.957 25.174 116.143 24.466 116.143 23.59C116.143 22.702 115.957 21.988 115.585 21.448C115.213 20.908 114.703 20.638 114.055 20.638C113.407 20.638 112.897 20.908 112.525 21.448C112.165 21.988 111.985 22.702 111.985 23.59C111.985 24.466 112.165 25.174 112.525 25.714C112.897 26.254 113.407 26.524 114.055 26.524ZM120.316 28V19.162H122.026L122.17 20.728H122.242C122.554 20.152 122.932 19.714 123.376 19.414C123.82 19.102 124.276 18.946 124.744 18.946C125.164 18.946 125.5 19.006 125.752 19.126L125.392 20.926C125.236 20.878 125.092 20.842 124.96 20.818C124.828 20.794 124.666 20.782 124.474 20.782C124.126 20.782 123.76 20.92 123.376 21.196C122.992 21.46 122.662 21.928 122.386 22.6V28H120.316ZM130.635 28.216C129.819 28.216 129.081 28.036 128.421 27.676C127.761 27.304 127.239 26.776 126.855 26.092C126.471 25.396 126.279 24.562 126.279 23.59C126.279 22.63 126.471 21.802 126.855 21.106C127.251 20.41 127.761 19.876 128.385 19.504C129.009 19.132 129.663 18.946 130.347 18.946C131.151 18.946 131.823 19.126 132.363 19.486C132.903 19.834 133.311 20.326 133.587 20.962C133.863 21.586 134.001 22.312 134.001 23.14C134.001 23.572 133.971 23.908 133.911 24.148H128.295C128.391 24.928 128.673 25.534 129.141 25.966C129.609 26.398 130.197 26.614 130.905 26.614C131.289 26.614 131.643 26.56 131.967 26.452C132.303 26.332 132.633 26.17 132.957 25.966L133.659 27.262C133.239 27.538 132.771 27.766 132.255 27.946C131.739 28.126 131.199 28.216 130.635 28.216ZM128.277 22.744H132.201C132.201 22.06 132.051 21.526 131.751 21.142C131.451 20.746 131.001 20.548 130.401 20.548C129.885 20.548 129.423 20.74 129.015 21.124C128.619 21.496 128.373 22.036 128.277 22.744Z" fill="white"/>
</g>
<g id="playstore">
<path id="Union_5" d="M37.4082 27.5459L25.9395 34.1709C25.6243 34.3541 25.266 34.4513 24.9014 34.4521C24.6798 34.4511 24.4596 34.4136 24.25 34.3418L34.0879 24.082L37.4082 27.5459ZM33.167 23.1289L23.1816 33.5459C22.9452 33.2002 22.8189 32.7909 22.8203 32.3721V14.0186C22.8185 13.5681 22.9644 13.1293 23.2354 12.7695L33.167 23.1289ZM41.8291 21.3984C42.474 21.7683 42.872 22.4548 42.8721 23.1982C42.8721 23.9416 42.4739 24.6282 41.8291 24.998L38.585 26.8682L35 23.1289L38.5 19.4766L41.8291 21.3984ZM24.3438 12.0176C24.8798 11.8677 25.454 11.9409 25.9346 12.2217L37.3223 18.7969L34.084 22.1758L24.3438 12.0176Z" fill="white"/>
</g>
</g>
</g>
<defs>
<clipPath id="clip0_627_6628">
<rect width="79" height="23" fill="white" transform="translate(56.4062 10)"/>
</clipPath>
</defs>
</svg>
