<svg width="159" height="47" viewBox="0 0 159 47" fill="none" xmlns="http://www.w3.org/2000/svg">
<g id="Group_161" opacity="0.8">
<g id="Group">
<path id="Path_110-4" d="M24.5 0.5H134.136C147.391 0.5 158.136 10.7975 158.136 23.5C158.136 36.2025 147.391 46.5 134.136 46.5H24.5C11.2452 46.5 0.5 36.2025 0.5 23.5C0.5 10.7975 11.2452 0.5 24.5 0.5Z" stroke="white"/>
</g>
<g id="Group_159-2">
<g id="Group_393">
<g id="App_Store" clip-path="url(#clip0_627_6640)">
<path id="App Store" d="M61.3044 23.3376L60.8904 24.7776H63.8964L63.4824 23.3376C63.2904 22.7136 63.1044 22.0716 62.9244 21.4116C62.7564 20.7516 62.5884 20.0976 62.4204 19.4496H62.3484C62.1924 20.1096 62.0244 20.7696 61.8444 21.4296C61.6764 22.0776 61.4964 22.7136 61.3044 23.3376ZM57.3624 29.6016L61.1964 17.8296H63.6444L67.4784 29.6016H65.2824L64.3644 26.4156H60.4044L59.4864 29.6016H57.3624ZM68.7495 33.0936V20.7636H70.4595L70.6035 21.6996H70.6755C71.0475 21.3876 71.4615 21.1176 71.9175 20.8896C72.3855 20.6616 72.8595 20.5476 73.3395 20.5476C74.4435 20.5476 75.2955 20.9556 75.8955 21.7716C76.5075 22.5876 76.8135 23.6796 76.8135 25.0476C76.8135 26.0556 76.6335 26.9196 76.2735 27.6396C75.9135 28.3476 75.4455 28.8876 74.8695 29.2596C74.3055 29.6316 73.6935 29.8176 73.0335 29.8176C72.6495 29.8176 72.2655 29.7336 71.8815 29.5656C71.4975 29.3856 71.1255 29.1456 70.7655 28.8456L70.8195 30.3216V33.0936H68.7495ZM72.6015 28.1076C73.1895 28.1076 73.6815 27.8496 74.0775 27.3336C74.4735 26.8176 74.6715 26.0616 74.6715 25.0656C74.6715 24.1776 74.5215 23.4876 74.2215 22.9956C73.9215 22.5036 73.4355 22.2576 72.7635 22.2576C72.1395 22.2576 71.4915 22.5876 70.8195 23.2476V27.3696C71.1435 27.6336 71.4555 27.8256 71.7555 27.9456C72.0555 28.0536 72.3375 28.1076 72.6015 28.1076ZM78.9097 33.0936V20.7636H80.6197L80.7637 21.6996H80.8357C81.2077 21.3876 81.6217 21.1176 82.0777 20.8896C82.5457 20.6616 83.0197 20.5476 83.4997 20.5476C84.6037 20.5476 85.4557 20.9556 86.0557 21.7716C86.6677 22.5876 86.9737 23.6796 86.9737 25.0476C86.9737 26.0556 86.7937 26.9196 86.4337 27.6396C86.0737 28.3476 85.6057 28.8876 85.0297 29.2596C84.4657 29.6316 83.8537 29.8176 83.1937 29.8176C82.8097 29.8176 82.4257 29.7336 82.0417 29.5656C81.6577 29.3856 81.2857 29.1456 80.9257 28.8456L80.9797 30.3216V33.0936H78.9097ZM82.7617 28.1076C83.3497 28.1076 83.8417 27.8496 84.2377 27.3336C84.6337 26.8176 84.8317 26.0616 84.8317 25.0656C84.8317 24.1776 84.6817 23.4876 84.3817 22.9956C84.0817 22.5036 83.5957 22.2576 82.9237 22.2576C82.2997 22.2576 81.6517 22.5876 80.9797 23.2476V27.3696C81.3037 27.6336 81.6157 27.8256 81.9157 27.9456C82.2157 28.0536 82.4977 28.1076 82.7617 28.1076ZM96.2914 29.8176C95.4994 29.8176 94.7314 29.6676 93.9874 29.3676C93.2554 29.0676 92.6074 28.6416 92.0434 28.0896L93.2674 26.6676C93.6874 27.0636 94.1674 27.3876 94.7074 27.6396C95.2474 27.8796 95.7874 27.9996 96.3274 27.9996C96.9994 27.9996 97.5094 27.8616 97.8574 27.5856C98.2054 27.3096 98.3794 26.9436 98.3794 26.4876C98.3794 25.9956 98.2054 25.6416 97.8574 25.4256C97.5214 25.2096 97.0894 24.9876 96.5614 24.7596L94.9414 24.0576C94.5574 23.8896 94.1794 23.6736 93.8074 23.4096C93.4474 23.1456 93.1474 22.8096 92.9074 22.4016C92.6794 21.9936 92.5654 21.5016 92.5654 20.9256C92.5654 20.3016 92.7334 19.7436 93.0694 19.2516C93.4174 18.7476 93.8854 18.3516 94.4734 18.0636C95.0734 17.7636 95.7574 17.6136 96.5254 17.6136C97.2094 17.6136 97.8694 17.7516 98.5054 18.0276C99.1414 18.2916 99.6874 18.6516 100.143 19.1076L99.0814 20.4396C98.7094 20.1276 98.3134 19.8816 97.8934 19.7016C97.4854 19.5216 97.0294 19.4316 96.5254 19.4316C95.9734 19.4316 95.5234 19.5576 95.1754 19.8096C94.8394 20.0496 94.6714 20.3856 94.6714 20.8176C94.6714 21.1176 94.7554 21.3696 94.9234 21.5736C95.1034 21.7656 95.3374 21.9336 95.6254 22.0776C95.9134 22.2096 96.2194 22.3416 96.5434 22.4736L98.1454 23.1396C98.8414 23.4396 99.4114 23.8356 99.8554 24.3276C100.299 24.8076 100.521 25.4736 100.521 26.3256C100.521 26.9616 100.353 27.5436 100.017 28.0716C99.6814 28.5996 99.1954 29.0256 98.5594 29.3496C97.9354 29.6616 97.1794 29.8176 96.2914 29.8176ZM105.121 29.8176C104.101 29.8176 103.375 29.5236 102.943 28.9356C102.523 28.3356 102.313 27.5616 102.313 26.6136V22.4016H101.053V20.8536L102.421 20.7636L102.673 18.3516H104.401V20.7636H106.651V22.4016H104.401V26.6136C104.401 27.6456 104.815 28.1616 105.643 28.1616C105.799 28.1616 105.961 28.1436 106.129 28.1076C106.297 28.0596 106.441 28.0116 106.561 27.9636L106.921 29.4936C106.681 29.5776 106.405 29.6496 106.093 29.7096C105.793 29.7816 105.469 29.8176 105.121 29.8176ZM111.848 29.8176C111.116 29.8176 110.432 29.6376 109.796 29.2776C109.16 28.9056 108.644 28.3776 108.248 27.6936C107.852 26.9976 107.654 26.1636 107.654 25.1916C107.654 24.2076 107.852 23.3736 108.248 22.6896C108.644 21.9936 109.16 21.4656 109.796 21.1056C110.432 20.7336 111.116 20.5476 111.848 20.5476C112.592 20.5476 113.282 20.7336 113.918 21.1056C114.554 21.4656 115.07 21.9936 115.466 22.6896C115.862 23.3736 116.06 24.2076 116.06 25.1916C116.06 26.1636 115.862 26.9976 115.466 27.6936C115.07 28.3776 114.554 28.9056 113.918 29.2776C113.282 29.6376 112.592 29.8176 111.848 29.8176ZM111.848 28.1256C112.496 28.1256 113.006 27.8556 113.378 27.3156C113.75 26.7756 113.936 26.0676 113.936 25.1916C113.936 24.3036 113.75 23.5896 113.378 23.0496C113.006 22.5096 112.496 22.2396 111.848 22.2396C111.2 22.2396 110.69 22.5096 110.318 23.0496C109.958 23.5896 109.778 24.3036 109.778 25.1916C109.778 26.0676 109.958 26.7756 110.318 27.3156C110.69 27.8556 111.2 28.1256 111.848 28.1256ZM118.109 29.6016V20.7636H119.819L119.963 22.3296H120.035C120.347 21.7536 120.725 21.3156 121.169 21.0156C121.613 20.7036 122.069 20.5476 122.537 20.5476C122.957 20.5476 123.293 20.6076 123.545 20.7276L123.185 22.5276C123.029 22.4796 122.885 22.4436 122.753 22.4196C122.621 22.3956 122.459 22.3836 122.267 22.3836C121.919 22.3836 121.553 22.5216 121.169 22.7976C120.785 23.0616 120.455 23.5296 120.179 24.2016V29.6016H118.109ZM128.428 29.8176C127.612 29.8176 126.874 29.6376 126.214 29.2776C125.554 28.9056 125.032 28.3776 124.648 27.6936C124.264 26.9976 124.072 26.1636 124.072 25.1916C124.072 24.2316 124.264 23.4036 124.648 22.7076C125.044 22.0116 125.554 21.4776 126.178 21.1056C126.802 20.7336 127.456 20.5476 128.14 20.5476C128.944 20.5476 129.616 20.7276 130.156 21.0876C130.696 21.4356 131.104 21.9276 131.38 22.5636C131.656 23.1876 131.794 23.9136 131.794 24.7416C131.794 25.1736 131.764 25.5096 131.704 25.7496H126.088C126.184 26.5296 126.466 27.1356 126.934 27.5676C127.402 27.9996 127.99 28.2156 128.698 28.2156C129.082 28.2156 129.436 28.1616 129.76 28.0536C130.096 27.9336 130.426 27.7716 130.75 27.5676L131.452 28.8636C131.032 29.1396 130.564 29.3676 130.048 29.5476C129.532 29.7276 128.992 29.8176 128.428 29.8176ZM126.07 24.3456H129.994C129.994 23.6616 129.844 23.1276 129.544 22.7436C129.244 22.3476 128.794 22.1496 128.194 22.1496C127.678 22.1496 127.216 22.3416 126.808 22.7256C126.412 23.0976 126.166 23.6376 126.07 24.3456Z" fill="white"/>
</g>
<g id="apple">
<path id="XMLID_229_" d="M24.9257 19.3214C22.7097 23.1674 24.1187 29.0034 26.5687 32.5414C27.7917 34.3104 29.0307 35.8984 30.7267 35.8984H30.8267C31.4975 35.8551 32.1532 35.6804 32.7567 35.3844C33.4684 35.0345 34.2497 34.8493 35.0427 34.8424C35.7985 34.8494 36.5427 35.0286 37.2187 35.3664C37.8645 35.6945 38.5784 35.8658 39.3027 35.8664C41.2137 35.8304 42.3867 34.1174 43.4217 32.6054C44.1951 31.4642 44.8012 30.2183 45.2217 28.9054L45.2287 28.8824C45.2638 28.7782 45.2146 28.6643 45.1147 28.6184L45.0987 28.6114C43.0912 27.7508 41.7869 25.7797 41.7797 23.5954C41.8056 21.6721 42.8102 19.8946 44.4447 18.8804L44.4657 18.8674C44.5139 18.836 44.5475 18.7866 44.559 18.7302C44.5704 18.6738 44.5588 18.6152 44.5267 18.5674C43.4089 16.9659 41.6017 15.9847 39.6497 15.9194C39.5107 15.9054 39.3677 15.8984 39.2247 15.8984C38.1657 15.9599 37.1274 16.219 36.1637 16.6624C35.7009 16.884 35.2062 17.0318 34.6977 17.1004C34.1711 17.0376 33.6584 16.8879 33.1807 16.6574C32.3406 16.2644 31.4336 16.0341 30.5077 15.9784H30.4447C28.1459 16.0473 26.0514 17.316 24.9257 19.3214Z" fill="white"/>
<path id="XMLID_230_" d="M39.6518 9.68376C38.1235 9.82777 36.7091 10.5534 35.7008 11.7108C34.6816 12.8459 34.1688 14.3473 34.2808 15.8688C34.2944 15.9706 34.3782 16.0485 34.4808 16.0548C34.5718 16.0618 34.6658 16.0658 34.7588 16.0658C36.2201 15.9969 37.5802 15.2994 38.4888 14.1528C39.4962 12.965 39.9943 11.4277 39.8748 9.87476C39.8618 9.76259 39.7646 9.67935 39.6518 9.68376Z" fill="white"/>
</g>
</g>
</g>
</g>
<defs>
<clipPath id="clip0_627_6640">
<rect width="76" height="23" fill="white" transform="translate(57.3984 11.6016)"/>
</clipPath>
</defs>
</svg>
