<svg width="35" height="35" viewBox="0 0 35 35" fill="none" xmlns="http://www.w3.org/2000/svg">
<g id="Group 65">
<g id="Insta" opacity="0.6">
<circle id="Oval" cx="17.5" cy="17.5" r="17" stroke="white"/>
</g>
<g id="insta" opacity="0.6">
<path id="Forma_1" d="M20.6406 10.5C22.7716 10.5013 24.4987 12.2284 24.5 14.3594V20.6328C24.4992 22.7652 22.773 24.4949 20.6406 24.5H14.3672C12.2332 24.4958 10.5042 22.7668 10.5 20.6328V14.3594C10.5051 12.227 12.2348 10.5008 14.3672 10.5H20.6406ZM14.3203 11.668C12.8543 11.6697 11.6658 12.8582 11.6641 14.3242V20.6787C11.6658 22.1447 12.8543 23.3332 14.3203 23.335H20.6748C22.1408 23.3332 23.3293 22.1447 23.3311 20.6787V14.3242C23.3293 12.8582 22.1408 11.6697 20.6748 11.668H14.3203ZM17.5 14C18.4283 14 19.3182 14.369 19.9746 15.0254C20.631 15.6818 21 16.5717 21 17.5C21 19.433 19.433 21 17.5 21C15.567 21 14 19.433 14 17.5C14 15.567 15.567 14 17.5 14ZM17.4971 15.168C16.2087 15.1681 15.1642 16.2126 15.1641 17.501C15.1641 18.7895 16.2086 19.8348 17.4971 19.835C18.7856 19.8345 19.8306 18.7895 19.8311 17.501C19.8309 16.2125 18.7856 15.168 17.4971 15.168ZM21.0078 12.832C21.316 12.8316 21.6112 12.9545 21.8291 13.1729C22.047 13.3913 22.1694 13.6872 22.1689 13.9961C22.1689 14.4138 21.9469 14.7999 21.5859 15.0088C21.225 15.2176 20.7799 15.2176 20.4189 15.0088C20.0581 14.7999 19.8359 14.4137 19.8359 13.9961C19.8385 13.6884 19.9626 13.3944 20.1807 13.1777C20.3982 12.9549 20.6968 12.8299 21.0078 12.832Z" fill="white"/>
</g>
</g>
</svg>
