<svg width="13" height="13" viewBox="0 0 13 13" fill="none" xmlns="http://www.w3.org/2000/svg">
<g clip-path="url(#clip0_1053_3247)">
<path d="M12.9957 3.82204C12.9652 3.1313 12.8535 2.65642 12.6935 2.24493C12.5285 1.80815 12.2745 1.41709 11.9418 1.09201C11.6167 0.761868 11.2231 0.505332 10.7913 0.34284C10.3775 0.182828 9.90507 0.0711275 9.21433 0.0406726C8.51843 0.00763851 8.29751 0 6.53252 0C4.76753 0 4.54661 0.00763851 3.85329 0.0380934C3.16255 0.0685482 2.68767 0.180348 2.27628 0.340261C1.8394 0.505332 1.44834 0.759288 1.12326 1.09201C0.793118 1.41709 0.536682 1.81073 0.37409 2.24245C0.214078 2.65642 0.102377 3.12872 0.0719226 3.81946C0.0388885 4.51536 0.03125 4.73628 0.03125 6.50127C0.03125 8.26626 0.0388885 8.48718 0.0693434 9.1805C0.0997982 9.87124 0.211598 10.3461 0.37161 10.7576C0.536682 11.1944 0.793118 11.5854 1.12326 11.9105C1.44834 12.2407 1.84198 12.4972 2.2737 12.6597C2.68767 12.8197 3.15997 12.9314 3.85081 12.9619C4.54403 12.9924 4.76505 13 6.53004 13C8.29503 13 8.51595 12.9924 9.20927 12.9619C9.90001 12.9314 10.3749 12.8197 10.7863 12.6597C11.6599 12.3219 12.3507 11.6312 12.6885 10.7576C12.8484 10.3436 12.9602 9.87124 12.9906 9.1805C13.0211 8.48718 13.0287 8.26626 13.0287 6.50127C13.0287 4.73628 13.0262 4.51536 12.9957 3.82204ZM11.825 9.12971C11.797 9.7646 11.6904 10.1074 11.6015 10.336C11.3831 10.9023 10.9336 11.3518 10.3673 11.5703C10.1387 11.6592 9.79337 11.7658 9.16096 11.7937C8.47528 11.8242 8.26964 11.8318 6.5351 11.8318C4.80056 11.8318 4.59234 11.8242 3.90914 11.7937C3.27425 11.7658 2.93141 11.6592 2.70285 11.5703C2.42101 11.4661 2.16448 11.301 1.95626 11.0852C1.74039 10.8744 1.57532 10.6204 1.47116 10.3386C1.38228 10.11 1.27563 9.7646 1.24776 9.13229C1.2172 8.44661 1.20966 8.24087 1.20966 6.50633C1.20966 4.77179 1.2172 4.56357 1.24776 3.88047C1.27563 3.24558 1.38228 2.90274 1.47116 2.67418C1.57532 2.39224 1.74039 2.13581 1.95883 1.92749C2.16954 1.71162 2.42349 1.54655 2.70543 1.44249C2.93399 1.3536 3.2794 1.24696 3.91172 1.21899C4.5974 1.18853 4.80314 1.18089 6.53758 1.18089C8.2747 1.18089 8.48034 1.18853 9.16354 1.21899C9.79843 1.24696 10.1413 1.3536 10.3698 1.44249C10.6517 1.54655 10.9082 1.71162 11.1164 1.92749C11.3323 2.13829 11.4974 2.39224 11.6015 2.67418C11.6904 2.90274 11.797 3.24806 11.825 3.88047C11.8555 4.56615 11.8631 4.77179 11.8631 6.50633C11.8631 8.24087 11.8555 8.44403 11.825 9.12971Z" fill="#373737"/>
<path d="M6.52702 3.16211C4.68336 3.16211 3.1875 4.65787 3.1875 6.50163C3.1875 8.34539 4.68336 9.84115 6.52702 9.84115C8.37078 9.84115 9.86654 8.34539 9.86654 6.50163C9.86654 4.65787 8.37078 3.16211 6.52702 3.16211ZM6.52702 8.66789C5.33095 8.66789 4.36076 7.6978 4.36076 6.50163C4.36076 5.30546 5.33095 4.33537 6.52702 4.33537C7.72319 4.33537 8.69328 5.30546 8.69328 6.50163C8.69328 7.6978 7.72319 8.66789 6.52702 8.66789Z" fill="#373737"/>
<path d="M10.7703 3.02962C10.7703 3.46016 10.4212 3.80925 9.99056 3.80925C9.56003 3.80925 9.21094 3.46016 9.21094 3.02962C9.21094 2.59899 9.56003 2.25 9.99056 2.25C10.4212 2.25 10.7703 2.59899 10.7703 3.02962Z" fill="#373737"/>
</g>
<defs>
<clipPath id="clip0_1053_3247">
<rect width="13" height="13" fill="white"/>
</clipPath>
</defs>
</svg>

