<svg width="14" height="14" viewBox="0 0 14 14" fill="none" xmlns="http://www.w3.org/2000/svg">
<g clip-path="url(#clip0_1053_3275)">
<path d="M3.28824 4.39258H0.652344C0.425797 4.39258 0.242188 4.57629 0.242188 4.80273V13.5893C0.242188 13.8158 0.425797 13.9994 0.652344 13.9994H3.28824C3.51479 13.9994 3.69839 13.8158 3.69839 13.5893V4.80273C3.69839 4.57629 3.51479 4.39258 3.28824 4.39258ZM2.87808 13.1791H1.0625V5.21289H2.87808V13.1791Z" fill="#373737"/>
<path d="M1.9704 0C1.01743 0 0.242188 0.775238 0.242188 1.728C0.242188 2.68097 1.01743 3.4561 1.9704 3.4561C2.92326 3.4561 3.69839 2.68086 3.69839 1.728C3.69839 0.775238 2.92326 0 1.9704 0ZM1.9704 2.63579C1.46977 2.63579 1.0625 2.22862 1.0625 1.728C1.0625 1.22748 1.46977 0.820312 1.9704 0.820312C2.47092 0.820312 2.87808 1.22748 2.87808 1.728C2.87808 2.22862 2.47092 2.63579 1.9704 2.63579Z" fill="#373737"/>
<path d="M9.87587 4.33594C9.25241 4.33594 8.63792 4.48622 8.08763 4.76735C8.06894 4.55811 7.89323 4.39394 7.67908 4.39394H5.04297C4.81653 4.39394 4.63281 4.57765 4.63281 4.80409V13.5906C4.63281 13.8172 4.81653 14.0008 5.04297 14.0008H7.67908C7.90562 14.0008 8.08923 13.8172 8.08923 13.5906V8.75804C8.08923 8.1364 8.59509 7.63065 9.21674 7.63065C9.83838 7.63065 10.344 8.1364 10.344 8.75804V13.5906C10.344 13.8172 10.5277 14.0008 10.7542 14.0008H13.3902C13.6167 14.0008 13.8003 13.8172 13.8003 13.5906V8.26041C13.8003 6.09641 12.0399 4.33594 9.87587 4.33594ZM12.98 13.1805H11.1644V8.75804C11.1644 7.68405 10.2907 6.81033 9.21684 6.81033C8.14275 6.81033 7.26892 7.68405 7.26892 8.75804V13.1805H5.45323V5.21425H7.26892V5.51727C7.26892 5.67503 7.35939 5.8188 7.50166 5.88705C7.64383 5.95531 7.81259 5.93587 7.93575 5.83728C8.49117 5.39177 9.16216 5.15625 9.87587 5.15625C11.5875 5.15625 12.98 6.54875 12.98 8.26041V13.1805Z" fill="#373737"/>
</g>
<defs>
<clipPath id="clip0_1053_3275">
<rect width="14" height="14" fill="white"/>
</clipPath>
</defs>
</svg>

