<svg width="9" height="14" viewBox="0 0 9 14" fill="none" xmlns="http://www.w3.org/2000/svg">
<path fill-rule="evenodd" clip-rule="evenodd" d="M0 4.74101C0 2.12682 2.01869 0 4.5 0C6.98129 0 8.99995 2.12682 9 4.74101C9 7.98531 4.97294 12.7481 4.80149 12.9493C4.64073 13.1379 4.35956 13.1383 4.19851 12.9493C4.02706 12.7481 0 7.98531 0 4.74101ZM2.23594 4.741C2.23594 6.05628 3.25157 7.12634 4.49998 7.12634C5.74836 7.12634 6.76399 6.05631 6.76399 4.74103C6.76399 3.42575 5.74836 2.35569 4.49998 2.35569C3.25159 2.35569 2.23594 3.42572 2.23594 4.741Z" fill="#373737"/>
</svg>

