<svg width="186" height="27" viewBox="0 0 186 27" fill="none" xmlns="http://www.w3.org/2000/svg">
<g id="Logo Copy">
<g id="Group 3">
<mask id="mask0_627_6959" style="mask-type:luminance" maskUnits="userSpaceOnUse" x="0" y="0" width="24" height="27">
<path id="Clip 2" fill-rule="evenodd" clip-rule="evenodd" d="M0 0.136719H23.6324V26.6599H0V0.136719Z" fill="white"/>
</mask>
<g mask="url(#mask0_627_6959)">
<path id="Fill 1" fill-rule="evenodd" clip-rule="evenodd" d="M23.163 12.0003L21.465 24.7335C18.8633 25.9426 15.2498 26.6601 12.0337 26.6601C4.3365 26.6601 0 22.5041 0 15.1746C0 6.18102 6.468 0.136719 16.0455 0.136719C19.1887 0.136719 21.7905 0.778946 23.6325 1.34589L21.5018 8.37432C20.2005 7.92029 18.5018 7.46626 16.4062 7.46626C10.9493 7.46626 9.14325 10.6029 9.14325 14.0783C9.14325 17.9324 11.3468 19.3306 13.5518 19.3306C13.9132 19.3306 14.166 19.2922 14.4165 19.2553L15.3938 12.0003H23.163Z" fill="white"/>
</g>
</g>
<path id="Fill 4" fill-rule="evenodd" clip-rule="evenodd" d="M60.8776 7.02662L60.5956 9.20814H69.5001L68.6213 15.7182H59.7154L59.4341 18.011H69.6068L68.6564 25H50L53.3451 0H72L71.0496 7.02662H60.8776Z" fill="white"/>
<path id="Fill 6" fill-rule="evenodd" clip-rule="evenodd" d="M81.8776 7.02662L81.5949 9.20814H90.5014L89.6211 15.7182H80.7153L80.4333 18.011H90.6073L89.6569 25H71L74.3446 0H93L92.0495 7.02662H81.8776Z" fill="white"/>
<path id="Fill 8" fill-rule="evenodd" clip-rule="evenodd" d="M119 0L115.741 25H107.714L102.466 12.168L100.785 25H93L96.2578 0H104.73L109.568 12.7591L111.214 0H119Z" fill="white"/>
<g id="Group 12">
<mask id="mask1_627_6959" style="mask-type:luminance" maskUnits="userSpaceOnUse" x="121" y="0" width="25" height="27">
<path id="Clip 11" fill-rule="evenodd" clip-rule="evenodd" d="M121.5 0.140625H145.92V26.5026H121.5V0.140625Z" fill="white"/>
</mask>
<g mask="url(#mask1_627_6959)">
<path id="Fill 10" fill-rule="evenodd" clip-rule="evenodd" d="M132.125 12.9208C133.621 13.0352 137.017 12.8049 137.017 9.8222C137.017 7.52561 134.133 7.2572 132.855 7.44858L132.125 12.9208ZM145.92 8.97915C145.92 17.5127 137.742 20.4192 131.246 19.8459L130.37 26.5029H121.5C124.932 0.791801 124.969 0.75289 124.969 0.75289C126.574 0.485272 129.493 0.140625 133.472 0.140625C139.204 0.140625 145.92 2.09177 145.92 8.97915Z" fill="white"/>
</g>
</g>
<path id="Fill 13" fill-rule="evenodd" clip-rule="evenodd" d="M178.025 17.9741H186L185.114 25H169L172.118 0H180.257L178.025 17.9741Z" fill="white"/>
<path id="Fill 15" fill-rule="evenodd" clip-rule="evenodd" d="M153.656 14.4223L156.344 7.28516L157.272 15.53C155.742 14.8245 154.47 14.5375 153.656 14.4223ZM162.457 0H152.147L141 25H149.702L151.69 19.6337C157.039 21.3055 158.334 25 158.334 25H167L162.457 0Z" fill="white"/>
<g id="Group 19">
<mask id="mask2_627_6959" style="mask-type:luminance" maskUnits="userSpaceOnUse" x="24" y="0" width="25" height="27">
<path id="Clip 18" fill-rule="evenodd" clip-rule="evenodd" d="M24.1406 0.136719H48.9247V26.66H24.1406V0.136719Z" fill="white"/>
</mask>
<g mask="url(#mask2_627_6959)">
<path id="Fill 17" fill-rule="evenodd" clip-rule="evenodd" d="M42.3641 16.7531C40.149 12.9789 39.1823 6.40529 34.7656 5.40627C35.877 5.7466 37.2035 6.29551 38.5535 10.1755C39.2618 12.1461 39.6709 14.8531 40.5437 17.2024C40.3224 17.2142 40.0997 17.2134 39.874 17.1953C37.6126 17.0158 35.8027 15.3557 35.2634 13.204C33.3262 4.97969 29.6777 3.49763 29.6777 3.49763C40.7285 3.13535 45.4414 7.83011 45.4414 11.7392C45.4452 11.9132 45.4399 12.0897 45.4277 12.2661C45.2777 14.2689 44.0846 15.9281 42.4406 16.717C46.0687 15.4224 48.9247 13.0009 48.9247 7.88187C48.9247 1.72386 42.9376 0.136719 36.6974 0.136719C33.5944 0.136719 29.6156 0.514684 27.5717 0.891865L24.1406 26.1677H32.8641L33.9596 18.1967C34.1058 18.1967 34.252 18.1967 34.3982 18.1591C37.0611 24.7335 38.9232 26.6601 42.4649 26.6601C44.5815 26.6601 46.1141 26.319 47.4285 25.9042L48.2323 19.7831C46.8452 19.7831 44.5793 20.5272 42.3641 16.7531Z" fill="white"/>
</g>
</g>
</g>
</svg>
