<svg width="161" height="24" viewBox="0 0 161 24" fill="none" xmlns="http://www.w3.org/2000/svg">
<g id="Logo">
<g id="Group 3">
<mask id="mask0_434_6855" style="mask-type:luminance" maskUnits="userSpaceOnUse" x="0" y="0" width="20" height="24">
<path id="Clip 2" fill-rule="evenodd" clip-rule="evenodd" d="M0 0.119141H19.6648V23.0887H0V0.119141Z" fill="white"/>
</mask>
<g mask="url(#mask0_434_6855)">
<path id="Fill 1" fill-rule="evenodd" clip-rule="evenodd" d="M19.2743 10.3932L17.8613 21.4204C15.6964 22.4675 12.6895 23.0889 10.0135 23.0889C3.60847 23.0889 0 19.4897 0 13.1422C0 5.35362 5.38212 0.119141 13.3517 0.119141C15.9672 0.119141 18.1322 0.675321 19.665 1.16631L17.8919 7.25305C16.8091 6.85986 15.3956 6.46666 13.6519 6.46666C9.11104 6.46666 7.60824 9.18305 7.60824 12.1928C7.60824 15.5306 9.4418 16.7414 11.2766 16.7414C11.5774 16.7414 11.7877 16.7081 11.9962 16.6762L12.8094 10.3932H19.2743Z" fill="white"/>
</g>
</g>
<path id="Fill 4" fill-rule="evenodd" clip-rule="evenodd" d="M52.3181 6.18056L52.0749 8.09941H59.7539L58.996 13.8256H51.3158L51.0732 15.8423H59.8459L59.0262 21.9898H42.9375L45.8222 0H61.9097L61.0901 6.18056H52.3181Z" fill="white"/>
<path id="Fill 6" fill-rule="evenodd" clip-rule="evenodd" d="M70.2868 6.18056L70.043 8.09941H77.7238L76.9646 13.8256H69.2844L69.0413 15.8423H77.8151L76.9954 21.9898H60.9062L63.7905 0H79.8785L79.0588 6.18056H70.2868Z" fill="white"/>
<path id="Fill 8" fill-rule="evenodd" clip-rule="evenodd" d="M103.841 0L100.963 21.9898H93.8725L89.2365 10.7029L87.7517 21.9898H80.875L83.7527 0H91.2363L95.5095 11.2228L96.9634 0H103.841Z" fill="white"/>
<g id="Group 12">
<mask id="mask1_434_6855" style="mask-type:luminance" maskUnits="userSpaceOnUse" x="104" y="0" width="21" height="23">
<path id="Clip 11" fill-rule="evenodd" clip-rule="evenodd" d="M104.266 0.119141H124.748V22.6628H104.266V0.119141Z" fill="white"/>
</mask>
<g mask="url(#mask1_434_6855)">
<path id="Fill 10" fill-rule="evenodd" clip-rule="evenodd" d="M113.172 11.0487C114.427 11.1465 117.275 10.9496 117.275 8.39887C117.275 6.43493 114.856 6.20539 113.784 6.36905L113.172 11.0487ZM124.748 7.67749C124.748 14.9751 117.889 17.4606 112.44 16.9702L111.706 22.6631H104.266C107.144 0.676001 107.175 0.642724 107.175 0.642724C108.522 0.413869 110.97 0.119141 114.307 0.119141C119.115 0.119141 124.748 1.78768 124.748 7.67749Z" fill="white"/>
</g>
</g>
<path id="Fill 13" fill-rule="evenodd" clip-rule="evenodd" d="M153.733 15.8099H160.759L159.979 21.9898H145.781L148.529 0H155.699L153.733 15.8099Z" fill="white"/>
<path id="Fill 15" fill-rule="evenodd" clip-rule="evenodd" d="M132 12.686L134.374 6.4082L135.194 13.6603C133.843 13.0398 132.719 12.7873 132 12.686ZM139.781 0H130.675L120.828 21.9898H128.515L130.271 17.2696C134.996 18.7402 136.14 21.9898 136.14 21.9898H143.794L139.781 0Z" fill="white"/>
<g id="Group 19">
<mask id="mask2_434_6855" style="mask-type:luminance" maskUnits="userSpaceOnUse" x="20" y="0" width="21" height="24">
<path id="Clip 18" fill-rule="evenodd" clip-rule="evenodd" d="M20.0859 0.121094H40.8741V23.0907H20.0859V0.121094Z" fill="white"/>
</mask>
<g mask="url(#mask2_434_6855)">
<path id="Fill 17" fill-rule="evenodd" clip-rule="evenodd" d="M35.3713 14.5112C33.5133 11.2427 32.7025 5.54979 28.9979 4.68462C29.9301 4.97935 31.0427 5.45472 32.1751 8.81489C32.7692 10.5215 33.1123 12.8657 33.8443 14.9003C33.6588 14.9105 33.472 14.9098 33.2826 14.8942C31.3858 14.7387 29.8678 13.301 29.4154 11.4376C27.7906 4.3152 24.7303 3.0317 24.7303 3.0317C33.9994 2.71796 37.9524 6.78371 37.9524 10.169C37.9556 10.3198 37.9511 10.4726 37.941 10.6254C37.8152 12.3598 36.8144 13.7967 35.4355 14.4799C38.4786 13.3587 40.8741 11.2617 40.8741 6.82853C40.8741 1.49559 35.8523 0.121094 30.6182 0.121094C28.0155 0.121094 24.6782 0.448418 22.9638 0.775064L20.0859 22.6644H27.403L28.3218 15.7614C28.4444 15.7614 28.5671 15.7614 28.6897 15.7288C30.9233 21.4223 32.4851 23.0909 35.4558 23.0909C37.2312 23.0909 38.5167 22.7955 39.6192 22.4362L40.2934 17.1352C39.1299 17.1352 37.2293 17.7796 35.3713 14.5112Z" fill="white"/>
</g>
</g>
</g>
</svg>
