<svg width="35" height="35" viewBox="0 0 35 35" fill="none" xmlns="http://www.w3.org/2000/svg">
<g id="Pinterest" opacity="0.6">
<circle id="Oval" cx="17.5" cy="17.5" r="17" stroke="white"/>
<g id="pinterest" opacity="0.6" transform="translate(11.5, 10)">
<path id="Shape" d="M10.4025 1.51425C9.27587 0.511093 7.82029 -0.0271038 6.3225 0.00567935C4.57644 -0.067478 2.87356 0.568561 1.59 1.7733C0.601636 2.7159 0.0285354 4.02309 0 5.39997C0 7.04568 0.705 8.31044 1.89 8.7752C1.96681 8.80439 2.048 8.81985 2.13 8.82092C2.37679 8.82601 2.59305 8.65407 2.6475 8.40949C2.685 8.26473 2.7825 7.89901 2.82 7.74663C2.90883 7.50625 2.83985 7.2351 2.6475 7.06854C2.29873 6.66608 2.11843 6.14119 2.145 5.60568C2.16059 4.57351 2.59074 3.59265 3.33568 2.89055C4.08062 2.18846 5.07564 1.82613 6.09 1.88758C8.115 1.88758 9.3825 3.00758 9.3825 4.8133C9.40742 5.85031 9.16159 6.87553 8.67 7.78473C8.33812 8.46482 7.67551 8.91453 6.93 8.96568C6.57887 8.97615 6.24117 8.82833 6.0075 8.56187C5.80966 8.31152 5.74266 7.97969 5.8275 7.67044C5.9175 7.29711 6.0375 6.90854 6.1575 6.5352C6.38463 5.94144 6.52854 5.31821 6.585 4.68377C6.6152 4.29386 6.48008 3.9094 6.21363 3.62708C5.94718 3.34476 5.57475 3.19144 5.19 3.20568C4.1325 3.20568 3.3075 4.24949 3.3075 5.58282C3.3078 6.03974 3.39437 6.49236 3.5625 6.91616C3.435 7.46473 2.64 10.7181 2.49 11.3352C2.4 11.6933 1.8825 14.5276 2.745 14.7562C3.72 15.0076 4.59 12.2495 4.68 11.9371C4.7475 11.6857 5.0025 10.7257 5.1525 10.1314C5.6998 10.6079 6.39671 10.87 7.1175 10.8704C8.48416 10.8827 9.77973 10.2528 10.6275 9.16377C11.524 7.96019 11.9896 6.482 11.9475 4.9733C11.9288 3.65211 11.3689 2.39861 10.4025 1.51425Z" fill="white"/>
</g>
</g>
</svg>
