<svg width="21" height="23" viewBox="0 0 21 23" fill="none" xmlns="http://www.w3.org/2000/svg">
  <g id="playstore">
    <path id="Union_5" d="M14.5879 15.6045L3.11914 22.2295C2.80395 22.4127 2.44564 22.5099 2.08105 22.5107C1.85952 22.5097 1.63926 22.4722 1.42969 22.4004L11.2676 12.1406L14.5879 15.6045ZM10.3467 11.1875L0.361328 21.6045C0.124906 21.2588 -0.00140061 20.8495 0 20.4307V2.07715C-0.00181717 1.62672 0.144048 1.18792 0.415039 0.828125L10.3467 11.1875ZM19.0088 9.45703C19.6537 9.82689 20.0517 10.5134 20.0518 11.2568C20.0518 12.0002 19.6536 12.6867 19.0088 13.0566L15.7646 14.9268L12.1797 11.1875L15.6797 7.53516L19.0088 9.45703ZM1.52344 0.0761719C2.05951 -0.0736984 2.63364 -0.000477967 3.11426 0.280273L14.502 6.85547L11.2637 10.2344L1.52344 0.0761719Z" fill="white"/>
  </g>
</svg>
