<svg width="80" height="80" viewBox="0 0 80 80" fill="none" xmlns="http://www.w3.org/2000/svg">
<circle cx="40" cy="40" r="40" fill="#0E4971"/>
<path d="M74.7406 20.1562C74.7406 28.8172 71.2297 36.6578 65.5547 42.3344C59.8781 48.0094 52.0375 51.5203 43.3766 51.5203H36.6297C19.3078 51.5203 5.26562 37.4781 5.26562 20.1562C12.1594 8.11406 25.1344 0 40.0031 0C51.2375 0 61.3922 4.63281 68.6562 12.0922L71.5781 15.4437C72.7391 16.9328 73.7969 18.5078 74.7406 20.1562Z" fill="#186090"/>
<g clip-path="url(#clip0_442_8285)" filter="url(#filter0_d_442_8285)">
<path d="M23.8838 16H39.7829C40.7368 16 41.5 16.7696 41.5 17.6848V27.3775C41.5 28.3135 40.7156 29.0623 39.7829 29.0623H28.8231L26.3428 31.5167C26.2368 31.6207 26.1096 31.6831 25.9612 31.6831C25.6645 31.6831 25.4101 31.4543 25.4101 31.1423V29.0623H23.8838C22.9298 29.0623 22.1667 28.2927 22.1667 27.3775V17.6848C22.1667 16.7488 22.951 16 23.8838 16Z" fill="#F7941E"/>
<mask id="mask0_442_8285" style="mask-type:luminance" maskUnits="userSpaceOnUse" x="22" y="16" width="20" height="16">
<path d="M23.8838 16H39.7829C40.7368 16 41.5 16.7696 41.5 17.6848V27.3775C41.5 28.3135 40.7156 29.0623 39.7829 29.0623H28.8231L26.3428 31.5167C26.2368 31.6207 26.1096 31.6831 25.9612 31.6831C25.6645 31.6831 25.4101 31.4543 25.4101 31.1423V29.0623H23.8838C22.9298 29.0623 22.1667 28.2927 22.1667 27.3775V17.6848C22.1667 16.7488 22.951 16 23.8838 16Z" fill="white"/>
</mask>
<g mask="url(#mask0_442_8285)">
<path fill-rule="evenodd" clip-rule="evenodd" d="M27.3516 11.5547L15.8187 16.6987L24.3229 35.834L35.8558 30.6899L27.3516 11.5547Z" fill="#FBB040"/>
</g>
<path d="M27.431 26.0468C27.1911 26.0468 26.9554 26.0154 26.7237 25.9528C26.4921 25.8874 26.2822 25.7824 26.0942 25.638C25.9062 25.4936 25.7563 25.3014 25.6445 25.0616C25.5328 24.8218 25.4769 24.5247 25.4769 24.1704H26.3681C26.3681 24.3912 26.3981 24.5751 26.458 24.7223C26.5207 24.8695 26.6038 24.9853 26.7074 25.0698C26.811 25.1543 26.9254 25.2142 27.0508 25.2496C27.1761 25.2851 27.3029 25.3028 27.431 25.3028C27.6517 25.3028 27.8384 25.266 27.991 25.1924C28.1436 25.1188 28.2594 25.0153 28.3385 24.8817C28.4202 24.7482 28.4611 24.5928 28.4611 24.4157C28.4611 24.2576 28.4271 24.1173 28.3589 23.9946C28.2908 23.8693 28.1791 23.7562 28.0237 23.6553C27.8711 23.5518 27.6653 23.4564 27.4064 23.3692C27.0576 23.2547 26.7551 23.1212 26.4989 22.9686C26.2455 22.8132 26.0492 22.6225 25.9102 22.3963C25.7713 22.1701 25.7018 21.8907 25.7018 21.5582C25.7018 21.223 25.7767 20.9328 25.9266 20.6875C26.0765 20.4422 26.2863 20.2542 26.5561 20.1234C26.8259 19.9898 27.1434 19.9231 27.5086 19.9231C27.882 19.9231 28.2036 19.998 28.4734 20.1479C28.7432 20.2951 28.9503 20.5117 29.0947 20.7979C29.2419 21.084 29.3155 21.4315 29.3155 21.8403H28.4284C28.4284 21.4887 28.348 21.2053 28.1872 20.99C28.0264 20.7747 27.7975 20.6671 27.5005 20.6671C27.2961 20.6671 27.1257 20.7052 26.9895 20.7815C26.8559 20.8551 26.7564 20.9587 26.691 21.0922C26.6256 21.223 26.5929 21.3756 26.5929 21.5501C26.5929 21.7136 26.6256 21.8566 26.691 21.9793C26.7564 22.0992 26.8668 22.2082 27.0222 22.3063C27.1802 22.4044 27.3955 22.5025 27.6681 22.6007C28.0223 22.7206 28.3249 22.8582 28.5756 23.0135C28.8263 23.1662 29.0184 23.3542 29.152 23.5777C29.2882 23.8011 29.3564 24.0778 29.3564 24.4075C29.3564 24.7618 29.276 25.0602 29.1152 25.3028C28.9544 25.5453 28.7296 25.7307 28.4407 25.8587C28.1545 25.9841 27.818 26.0468 27.431 26.0468ZM27.1407 26.8194V25.7279H27.7621V26.8194H27.1407ZM27.2143 20.2828V19.0482H27.8398V20.2828H27.2143ZM34.2047 25.9609H30.2516V25.3396L32.1934 23.2016C32.4196 22.9509 32.5954 22.7369 32.7207 22.5598C32.8488 22.3799 32.9374 22.2191 32.9865 22.0774C33.0382 21.933 33.0641 21.7885 33.0641 21.6441C33.0641 21.3606 32.981 21.1235 32.8148 20.9328C32.6513 20.7393 32.4182 20.6425 32.1157 20.6425C31.8732 20.6425 31.6701 20.6916 31.5066 20.7897C31.3458 20.8878 31.2246 21.0241 31.1428 21.1985C31.0638 21.3702 31.0243 21.5691 31.0243 21.7953H30.1331C30.1331 21.4519 30.2094 21.1385 30.362 20.8551C30.5174 20.5717 30.7422 20.3468 31.0365 20.1806C31.3336 20.0116 31.6947 19.9271 32.1198 19.9271C32.7003 19.9271 33.1513 20.0743 33.4729 20.3686C33.7972 20.663 33.9594 21.0554 33.9594 21.546C33.9594 21.7885 33.9076 22.0297 33.8041 22.2695C33.7005 22.5094 33.5601 22.7478 33.383 22.9849C33.2059 23.222 33.0055 23.4591 32.7821 23.6962L31.3513 25.2455H34.2047V25.9609ZM36.8864 26.0427C36.5212 26.0427 36.1928 25.9773 35.9012 25.8465C35.6096 25.7157 35.3793 25.5249 35.2103 25.2742C35.0413 25.0207 34.9568 24.71 34.9568 24.3421C34.9568 24.0233 35.0386 23.7412 35.2021 23.4959C35.3684 23.2479 35.5959 23.0544 35.8848 22.9154C36.1737 22.7764 36.5048 22.7069 36.8782 22.7069C37.2488 22.7069 37.5799 22.7764 37.8715 22.9154C38.1632 23.0544 38.3921 23.2479 38.5583 23.4959C38.7273 23.7412 38.8118 24.0233 38.8118 24.3421C38.8118 24.71 38.7273 25.0207 38.5583 25.2742C38.3894 25.5249 38.1591 25.7157 37.8675 25.8465C37.5786 25.9773 37.2515 26.0427 36.8864 26.0427ZM36.8864 25.3273C37.1017 25.3273 37.2856 25.2864 37.4382 25.2047C37.5936 25.1229 37.7121 25.0057 37.7939 24.8531C37.8784 24.7005 37.9206 24.5179 37.9206 24.3053C37.9206 24.0982 37.877 23.917 37.7898 23.7616C37.7026 23.6036 37.5799 23.4809 37.4219 23.3937C37.2665 23.3038 37.0853 23.2588 36.8782 23.2588C36.6683 23.2588 36.4857 23.3038 36.3304 23.3937C36.1778 23.4809 36.0592 23.6036 35.9747 23.7616C35.8903 23.917 35.848 24.0982 35.848 24.3053C35.848 24.5179 35.8903 24.7005 35.9747 24.8531C36.0592 25.0057 36.1791 25.1229 36.3345 25.2047C36.4898 25.2864 36.6738 25.3273 36.8864 25.3273ZM36.8864 23.1035C36.5375 23.1035 36.2268 23.0367 35.9543 22.9032C35.6845 22.7696 35.4719 22.587 35.3166 22.3554C35.164 22.1237 35.0877 21.8607 35.0877 21.5664C35.0877 21.2176 35.164 20.9219 35.3166 20.6793C35.4719 20.434 35.6859 20.2474 35.9584 20.1193C36.2309 19.9912 36.5389 19.9271 36.8823 19.9271C37.2311 19.9271 37.5404 19.9912 37.8102 20.1193C38.08 20.2474 38.2912 20.434 38.4439 20.6793C38.5992 20.9219 38.6769 21.2176 38.6769 21.5664C38.6769 21.8607 38.5992 22.1237 38.4439 22.3554C38.2885 22.587 38.0759 22.7696 37.8061 22.9032C37.5363 23.0367 37.2297 23.1035 36.8864 23.1035ZM36.8864 22.5393C37.0689 22.5393 37.227 22.5012 37.3606 22.4249C37.4941 22.3458 37.5977 22.2355 37.6712 22.0937C37.7475 21.9493 37.7857 21.7831 37.7857 21.595C37.7857 21.4097 37.7475 21.2462 37.6712 21.1045C37.5977 20.96 37.4927 20.8469 37.3565 20.7652C37.2229 20.6834 37.0649 20.6425 36.8823 20.6425C36.6997 20.6425 36.5402 20.682 36.404 20.7611C36.2704 20.8374 36.1669 20.9464 36.0933 21.0881C36.0197 21.2298 35.9829 21.3988 35.9829 21.595C35.9829 21.7831 36.0197 21.9493 36.0933 22.0937C36.1669 22.2355 36.2718 22.3458 36.4081 22.4249C36.5443 22.5012 36.7038 22.5393 36.8864 22.5393Z" fill="white"/>
</g>
<g clip-path="url(#clip1_442_8285)" filter="url(#filter1_d_442_8285)">
<path d="M56.5292 18.8984H39.5875C38.571 18.8984 37.7578 19.729 37.7578 20.7167V31.1776C37.7578 32.1878 38.5936 32.9959 39.5875 32.9959H51.266L53.9089 35.6448C54.0218 35.7571 54.1574 35.8244 54.3155 35.8244C54.6317 35.8244 54.9028 35.5775 54.9028 35.2408V32.9959H56.5292C57.5457 32.9959 58.3589 32.1654 58.3589 31.1776V20.7167C58.3589 19.7066 57.5231 18.8984 56.5292 18.8984Z" fill="#00A3E7"/>
<mask id="mask1_442_8285" style="mask-type:luminance" maskUnits="userSpaceOnUse" x="37" y="18" width="22" height="18">
<path d="M56.5292 18.8984H39.5875C38.571 18.8984 37.7578 19.729 37.7578 20.7167V31.1776C37.7578 32.1878 38.5936 32.9959 39.5875 32.9959H51.266L53.9089 35.6448C54.0218 35.7571 54.1574 35.8244 54.3155 35.8244C54.6317 35.8244 54.9028 35.5775 54.9028 35.2408V32.9959H56.5292C57.5457 32.9959 58.3589 32.1654 58.3589 31.1776V20.7167C58.3589 19.7066 57.5231 18.8984 56.5292 18.8984Z" fill="white"/>
</mask>
<g mask="url(#mask1_442_8285)">
<path opacity="0.11113" fill-rule="evenodd" clip-rule="evenodd" d="M52.8984 14.1328L65.1876 19.6142L56.0094 40.2659L43.7202 34.7846L52.8984 14.1328Z" fill="black"/>
</g>
<path d="M43.1199 29.2167C42.8801 29.2167 42.6444 29.1854 42.4127 29.1227C42.1811 29.0573 41.9712 28.9524 41.7832 28.8079C41.5951 28.6635 41.4452 28.4713 41.3335 28.2315C41.2218 27.9917 41.1659 27.6946 41.1659 27.3403H42.0571C42.0571 27.5611 42.087 27.745 42.147 27.8922C42.2097 28.0394 42.2928 28.1552 42.3964 28.2397C42.4999 28.3242 42.6144 28.3841 42.7398 28.4196C42.8651 28.455 42.9918 28.4727 43.1199 28.4727C43.3407 28.4727 43.5274 28.4359 43.68 28.3623C43.8326 28.2887 43.9484 28.1852 44.0275 28.0516C44.1092 27.9181 44.1501 27.7628 44.1501 27.5856C44.1501 27.4276 44.116 27.2872 44.0479 27.1646C43.9798 27.0392 43.868 26.9261 43.7127 26.8253C43.5601 26.7217 43.3543 26.6263 43.0954 26.5391C42.7466 26.4246 42.4441 26.2911 42.1879 26.1385C41.9344 25.9831 41.7382 25.7924 41.5992 25.5662C41.4602 25.34 41.3907 25.0606 41.3907 24.7282C41.3907 24.3929 41.4657 24.1027 41.6156 23.8574C41.7655 23.6121 41.9753 23.4241 42.2451 23.2933C42.5149 23.1597 42.8324 23.093 43.1976 23.093C43.571 23.093 43.8926 23.1679 44.1624 23.3178C44.4322 23.465 44.6393 23.6816 44.7837 23.9678C44.9309 24.254 45.0045 24.6014 45.0045 25.0102H44.1174C44.1174 24.6587 44.037 24.3752 43.8762 24.1599C43.7154 23.9446 43.4865 23.837 43.1894 23.837C42.985 23.837 42.8147 23.8751 42.6784 23.9514C42.5449 24.025 42.4454 24.1286 42.38 24.2621C42.3146 24.3929 42.2819 24.5456 42.2819 24.72C42.2819 24.8835 42.3146 25.0266 42.38 25.1492C42.4454 25.2691 42.5558 25.3781 42.7111 25.4762C42.8692 25.5744 43.0845 25.6725 43.357 25.7706C43.7113 25.8905 44.0138 26.0281 44.2646 26.1835C44.5153 26.3361 44.7074 26.5241 44.841 26.7476C44.9772 26.9711 45.0454 27.2477 45.0454 27.5774C45.0454 27.9317 44.965 28.2302 44.8042 28.4727C44.6434 28.7153 44.4185 28.9006 44.1297 29.0287C43.8435 29.154 43.5069 29.2167 43.1199 29.2167ZM42.8297 29.9893V28.8978H43.4511V29.9893H42.8297ZM42.9033 23.4527V22.2182H43.5287V23.4527H42.9033ZM47.6371 25.7379C47.8797 25.7379 48.0813 25.697 48.2421 25.6152C48.4029 25.5308 48.5228 25.4163 48.6019 25.2718C48.6809 25.1274 48.7204 24.9612 48.7204 24.7731C48.7204 24.5714 48.685 24.3998 48.6141 24.258C48.5433 24.1136 48.437 24.0032 48.2953 23.9269C48.1535 23.8506 47.9737 23.8125 47.7557 23.8125C47.5649 23.8125 47.3946 23.8506 47.2447 23.9269C47.0975 24.0005 46.9817 24.1068 46.8972 24.2458C46.8127 24.382 46.7705 24.5442 46.7705 24.7322H45.8752C45.8752 24.4188 45.9542 24.1395 46.1123 23.8942C46.2731 23.6489 46.4938 23.4554 46.7745 23.3137C47.058 23.1693 47.3823 23.0971 47.7475 23.0971C48.1208 23.0971 48.4465 23.1611 48.7245 23.2892C49.0052 23.4146 49.2232 23.6026 49.3786 23.8533C49.5339 24.1041 49.6116 24.4134 49.6116 24.7813C49.6116 24.9448 49.5748 25.1124 49.5012 25.2841C49.4276 25.4558 49.3145 25.6152 49.1619 25.7624C49.012 25.9068 48.8212 26.024 48.5896 26.114C48.3579 26.2039 48.0854 26.2489 47.772 26.2489H47.073V25.7379H47.6371ZM47.073 25.9423H47.772C48.1345 25.9423 48.4397 25.9859 48.6877 26.0731C48.9357 26.1576 49.1333 26.272 49.2805 26.4165C49.4303 26.5609 49.538 26.7244 49.6034 26.907C49.6688 27.0896 49.7015 27.2763 49.7015 27.4671C49.7015 27.8377 49.6157 28.1538 49.444 28.4155C49.275 28.6744 49.042 28.872 48.7449 29.0082C48.4506 29.1445 48.1195 29.2126 47.7516 29.2126C47.4927 29.2126 47.2474 29.1772 47.0157 29.1063C46.7841 29.0327 46.5783 28.9265 46.3985 28.7875C46.2186 28.6458 46.0769 28.4713 45.9733 28.2642C45.8725 28.0544 45.8221 27.8132 45.8221 27.5407H46.7132C46.7132 27.7287 46.7568 27.8949 46.844 28.0394C46.9313 28.1811 47.0525 28.2928 47.2079 28.3746C47.3632 28.4563 47.5472 28.4972 47.7597 28.4972C48.0868 28.4972 48.343 28.41 48.5283 28.2356C48.7163 28.0612 48.8103 27.8077 48.8103 27.4752C48.8103 27.2381 48.7626 27.0446 48.6673 26.8948C48.5719 26.7421 48.4356 26.6304 48.2585 26.5595C48.0841 26.486 47.8769 26.4492 47.6371 26.4492H47.073V25.9423ZM54.5825 23.6735L52.1706 29.1309H51.2304L53.6423 23.8942H50.5027V23.1788H54.5825V23.6735Z" fill="white"/>
</g>
<g clip-path="url(#clip2_442_8285)" filter="url(#filter2_d_442_8285)">
<path d="M46.8027 27.623H29.861C28.8445 27.623 28.0312 28.4536 28.0312 29.4414V39.9022C28.0312 40.9124 28.867 41.7206 29.861 41.7206H41.5394L44.1823 44.3694C44.2953 44.4817 44.4308 44.549 44.5889 44.549C44.9052 44.549 45.1762 44.3021 45.1762 43.9654V41.7206H46.8027C47.8192 41.7206 48.6324 40.89 48.6324 39.9022V29.4414C48.6324 28.4312 47.7966 27.623 46.8027 27.623Z" fill="#FF9000"/>
<mask id="mask2_442_8285" style="mask-type:luminance" maskUnits="userSpaceOnUse" x="28" y="27" width="21" height="18">
<path d="M46.8027 27.623H29.861C28.8445 27.623 28.0312 28.4536 28.0312 29.4414V39.9022C28.0312 40.9124 28.867 41.7206 29.861 41.7206H41.5394L44.1823 44.3694C44.2953 44.4817 44.4308 44.549 44.5889 44.549C44.9052 44.549 45.1762 44.3021 45.1762 43.9654V41.7206H46.8027C47.8192 41.7206 48.6324 40.89 48.6324 39.9022V29.4414C48.6324 28.4312 47.7966 27.623 46.8027 27.623Z" fill="white"/>
</mask>
<g mask="url(#mask2_442_8285)">
<path opacity="0.11113" fill-rule="evenodd" clip-rule="evenodd" d="M43.1719 22.8594L55.461 28.3407L46.2828 48.9925L33.9937 43.5112L43.1719 22.8594Z" fill="black"/>
</g>
<path d="M33.3074 37.4784C33.0676 37.4784 32.8319 37.4471 32.6002 37.3844C32.3686 37.319 32.1587 37.2141 31.9707 37.0696C31.7826 36.9252 31.6327 36.7331 31.521 36.4932C31.4093 36.2534 31.3534 35.9563 31.3534 35.6021H32.2446C32.2446 35.8228 32.2745 36.0068 32.3345 36.1539C32.3972 36.3011 32.4803 36.4169 32.5839 36.5014C32.6874 36.5859 32.8019 36.6458 32.9273 36.6813C33.0526 36.7167 33.1793 36.7344 33.3074 36.7344C33.5282 36.7344 33.7149 36.6976 33.8675 36.624C34.0201 36.5505 34.1359 36.4469 34.215 36.3134C34.2967 36.1798 34.3376 36.0245 34.3376 35.8473C34.3376 35.6893 34.3035 35.5489 34.2354 35.4263C34.1673 35.3009 34.0555 35.1878 33.9002 35.087C33.7476 34.9834 33.5418 34.888 33.2829 34.8008C32.9341 34.6864 32.6316 34.5528 32.3754 34.4002C32.1219 34.2449 31.9257 34.0541 31.7867 33.8279C31.6477 33.6017 31.5782 33.3224 31.5782 32.9899C31.5782 32.6547 31.6532 32.3644 31.8031 32.1191C31.953 31.8739 32.1628 31.6858 32.4326 31.555C32.7024 31.4215 33.0199 31.3547 33.3851 31.3547C33.7585 31.3547 34.0801 31.4296 34.3499 31.5795C34.6197 31.7267 34.8268 31.9434 34.9712 32.2295C35.1184 32.5157 35.192 32.8631 35.192 33.2719H34.3049C34.3049 32.9204 34.2245 32.6369 34.0637 32.4216C33.9029 32.2063 33.674 32.0987 33.3769 32.0987C33.1725 32.0987 33.0022 32.1369 32.8659 32.2132C32.7324 32.2867 32.6329 32.3903 32.5675 32.5238C32.5021 32.6547 32.4694 32.8073 32.4694 32.9817C32.4694 33.1452 32.5021 33.2883 32.5675 33.4109C32.6329 33.5308 32.7433 33.6399 32.8986 33.738C33.0567 33.8361 33.272 33.9342 33.5445 34.0323C33.8988 34.1522 34.2013 34.2898 34.4521 34.4452C34.7028 34.5978 34.8949 34.7858 35.0285 35.0093C35.1647 35.2328 35.2329 35.5094 35.2329 35.8392C35.2329 36.1935 35.1525 36.4919 34.9917 36.7344C34.8309 36.977 34.606 37.1623 34.3172 37.2904C34.031 37.4157 33.6944 37.4784 33.3074 37.4784ZM33.0172 38.251V37.1596H33.6386V38.251H33.0172ZM33.0908 31.7144V30.4799H33.7162V31.7144H33.0908ZM40.1915 36.0354H35.8951L35.8787 35.504L38.4828 31.4405H39.2022L38.4378 32.7977L36.8353 35.32H40.1915V36.0354ZM39.4148 37.3926H38.5236V31.4405H39.4148V37.3926ZM41.1563 34.4206L41.471 31.4405H44.6106V32.2213H42.215L42.0474 33.7461C42.1456 33.6862 42.2764 33.6303 42.4399 33.5785C42.6061 33.524 42.7955 33.4968 43.0081 33.4968C43.3787 33.4968 43.6962 33.5785 43.9606 33.7421C44.2277 33.9028 44.4321 34.1318 44.5738 34.4288C44.7182 34.7259 44.7904 35.0802 44.7904 35.4917C44.7904 35.8623 44.7196 36.1975 44.5779 36.4973C44.4389 36.7971 44.2277 37.0356 43.9442 37.2127C43.6608 37.3871 43.3024 37.4743 42.8691 37.4743C42.6238 37.4743 42.3908 37.4403 42.1701 37.3721C41.9493 37.3013 41.7517 37.195 41.5773 37.0533C41.4029 36.9116 41.2612 36.7371 41.1522 36.53C41.0432 36.3202 40.9791 36.0763 40.9601 35.7983H41.8226C41.8608 36.109 41.9698 36.3474 42.1496 36.5137C42.3322 36.6772 42.5707 36.7589 42.865 36.7589C43.0912 36.7589 43.2806 36.7058 43.4333 36.5995C43.5886 36.4932 43.7044 36.3433 43.7807 36.1498C43.8598 35.9563 43.8993 35.7315 43.8993 35.4753C43.8993 35.2382 43.857 35.027 43.7726 34.8417C43.6881 34.6564 43.5627 34.5092 43.3965 34.4002C43.2329 34.2912 43.0285 34.2367 42.7833 34.2367C42.5407 34.2367 42.3568 34.2708 42.2314 34.3389C42.1088 34.4043 41.9875 34.4915 41.8676 34.6005L41.1563 34.4206Z" fill="white"/>
</g>
<path d="M52.2123 47.5986C51.4892 46.4378 50.2143 45.6619 48.7329 45.6391L31.8617 47.1164C28.296 47.1168 26.346 49.019 24.7004 50.6827L23.0547 52.3481L33.6807 62.0361C34.5035 61.2042 35.0188 60.6112 36.3902 60.6112H50.3786C53.2059 60.6112 55.5688 59.1997 57.2426 56.7492C59.1275 53.9896 62.6567 48.8264 64.2159 46.5913C64.7834 45.7777 65.1468 44.8463 65.1818 43.8779C65.2166 42.9096 64.8854 41.9015 64.1243 41.1321C63.3661 40.3656 62.365 39.9785 61.3665 39.9785C60.3679 39.9785 59.3669 40.3656 58.6087 41.1321C56.4766 43.2876 54.3444 45.4431 52.2123 47.5986Z" fill="#FFBCAB"/>
<path d="M21.603 50.1265L16.6794 55.0464C16.3569 55.3669 16.3569 55.8883 16.6794 56.2087L28.9314 68.891C29.2515 69.2088 29.7684 69.2088 30.0885 68.891L35.0122 63.971C35.3304 63.6513 35.3304 63.1348 35.0122 62.8151L22.7602 50.1265C22.4541 49.8207 21.9917 49.7381 21.603 50.1265Z" fill="#00A3E7"/>
<path d="M53.0654 47.0703C52.6704 47.4443 52.2754 47.8183 51.8805 48.1923C52.2737 48.7916 52.5108 49.4954 52.5108 50.2622C52.5108 52.4406 50.686 54.1745 48.3853 54.1745H39.3056C38.1065 54.0726 38.1065 55.8335 39.3056 55.7315H48.3853C51.572 55.7315 54.1617 53.2795 54.1617 50.2622C54.1617 49.0697 53.7514 47.9697 53.0654 47.0703V47.0703Z" fill="#FF9478"/>
<defs>
<filter id="filter0_d_442_8285" x="20.7687" y="16" width="22.1266" height="18.4743" filterUnits="userSpaceOnUse" color-interpolation-filters="sRGB">
<feFlood flood-opacity="0" result="BackgroundImageFix"/>
<feColorMatrix in="SourceAlpha" type="matrix" values="0 0 0 0 0 0 0 0 0 0 0 0 0 0 0 0 0 0 127 0" result="hardAlpha"/>
<feOffset dy="1.39535"/>
<feGaussianBlur stdDeviation="0.697674"/>
<feColorMatrix type="matrix" values="0 0 0 0 0 0 0 0 0 0 0 0 0 0 0 0 0 0 0.101874 0"/>
<feBlend mode="normal" in2="BackgroundImageFix" result="effect1_dropShadow_442_8285"/>
<feBlend mode="normal" in="SourceGraphic" in2="effect1_dropShadow_442_8285" result="shape"/>
</filter>
<filter id="filter1_d_442_8285" x="36.3625" y="18.8984" width="23.3923" height="19.7165" filterUnits="userSpaceOnUse" color-interpolation-filters="sRGB">
<feFlood flood-opacity="0" result="BackgroundImageFix"/>
<feColorMatrix in="SourceAlpha" type="matrix" values="0 0 0 0 0 0 0 0 0 0 0 0 0 0 0 0 0 0 127 0" result="hardAlpha"/>
<feOffset dy="1.39535"/>
<feGaussianBlur stdDeviation="0.697674"/>
<feColorMatrix type="matrix" values="0 0 0 0 0 0 0 0 0 0 0 0 0 0 0 0 0 0 0.101874 0"/>
<feBlend mode="normal" in2="BackgroundImageFix" result="effect1_dropShadow_442_8285"/>
<feBlend mode="normal" in="SourceGraphic" in2="effect1_dropShadow_442_8285" result="shape"/>
</filter>
<filter id="filter2_d_442_8285" x="26.6359" y="27.623" width="23.3923" height="19.7165" filterUnits="userSpaceOnUse" color-interpolation-filters="sRGB">
<feFlood flood-opacity="0" result="BackgroundImageFix"/>
<feColorMatrix in="SourceAlpha" type="matrix" values="0 0 0 0 0 0 0 0 0 0 0 0 0 0 0 0 0 0 127 0" result="hardAlpha"/>
<feOffset dy="1.39535"/>
<feGaussianBlur stdDeviation="0.697674"/>
<feColorMatrix type="matrix" values="0 0 0 0 0 0 0 0 0 0 0 0 0 0 0 0 0 0 0.101874 0"/>
<feBlend mode="normal" in2="BackgroundImageFix" result="effect1_dropShadow_442_8285"/>
<feBlend mode="normal" in="SourceGraphic" in2="effect1_dropShadow_442_8285" result="shape"/>
</filter>
<clipPath id="clip0_442_8285">
<rect width="19.3333" height="15.6831" fill="white" transform="matrix(-1 0 0 1 41.5 16)"/>
</clipPath>
<clipPath id="clip1_442_8285">
<rect width="20.6011" height="16.926" fill="white" transform="translate(37.7578 18.8984)"/>
</clipPath>
<clipPath id="clip2_442_8285">
<rect width="20.6011" height="16.926" fill="white" transform="translate(28.0312 27.623)"/>
</clipPath>
</defs>
</svg>
