<svg width="80" height="80" viewBox="0 0 80 80" fill="none" xmlns="http://www.w3.org/2000/svg">
<circle cx="40" cy="40" r="40" fill="#0E4971"/>
<path d="M74.7406 20.1562C74.7406 28.8172 71.2297 36.6578 65.5547 42.3344C59.8781 48.0094 52.0375 51.5203 43.3766 51.5203H36.6297C19.3078 51.5203 5.26562 37.4781 5.26562 20.1562C12.1594 8.11406 25.1344 0 40.0031 0C51.2375 0 61.3922 4.63281 68.6562 12.0922L71.5781 15.4437C72.7391 16.9328 73.7969 18.5078 74.7406 20.1562Z" fill="#186090"/>
<path d="M15.3774 5.53906C9.93952 5.53906 5.53125 9.94734 5.53125 15.3852C5.53125 9.94734 9.93952 5.53906 15.3774 5.53906V5.53906Z" fill="#D1D3D4"/>
<path d="M75.0727 15.3852C75.0727 9.94734 70.6644 5.53906 65.2266 5.53906C70.6644 5.53906 75.0727 9.94734 75.0727 15.3852Z" fill="#D1D3D4"/>
<path d="M5.53125 65.2305C5.53125 70.6683 9.93952 75.0766 15.3774 75.0766C9.93952 75.0766 5.53125 70.6683 5.53125 65.2305Z" fill="#D1D3D4"/>
<path d="M56 49.5903C56 48.2592 54.9255 47.1801 53.6 47.1801H46.4V39.9493C46.4 38.6182 45.3255 37.5391 44 37.5391H41.6V41.1544C41.6 45.1479 38.3765 48.3852 34.4 48.3852H32V64.0519L32.7776 64.4411C35.4364 65.7705 38.3659 66.4623 41.336 66.4621H51.2C52.5255 66.4621 53.6 65.383 53.6 64.0519C53.6 62.7207 52.5255 61.6416 51.2 61.6416H52.4C53.7255 61.6416 54.8 60.5625 54.8 59.2314C54.8 57.9002 53.7255 56.8211 52.4 56.8211C53.7255 56.8211 54.8 55.742 54.8 54.4109C54.8 53.0797 53.7255 52.0006 52.4 52.0006H53.6C54.9255 52.0006 56 50.9215 56 49.5903Z" fill="#FFBCAB"/>
<path d="M45.1969 39.9493V47.1801H46.3969V39.9493C46.3969 38.6182 45.3224 37.5391 43.9969 37.5391H42.7969C44.1224 37.5391 45.1969 38.6182 45.1969 39.9493Z" fill="#FF9478"/>
<path d="M51.2 65.256H41.336C38.3659 65.2561 35.4364 64.5643 32.7776 63.235L32 62.8457V64.0508L32.7776 64.4401C35.4364 65.7695 38.3659 66.4613 41.336 66.4611H51.2C52.5255 66.4611 53.6 65.382 53.6 64.0508C53.5975 63.8471 53.5689 63.6446 53.5148 63.4483C53.242 64.5092 52.291 65.2519 51.2 65.256Z" fill="#FF9478"/>
<path d="M54.8 59.2315C54.7992 60.2535 54.1538 61.1629 53.192 61.4971C52.9375 61.588 52.67 61.6368 52.4 61.6417H50V60.4366H52.4C53.4915 60.433 54.4431 59.6903 54.716 58.6289C54.7683 58.8256 54.7965 59.0279 54.8 59.2315Z" fill="#FF9478"/>
<path d="M54.8 54.4092C54.7992 55.4313 54.1538 56.3407 53.192 56.6748C52.9375 56.7657 52.67 56.8145 52.4 56.8195H50V55.6143H52.4C53.4915 55.6108 54.4431 54.868 54.716 53.8066C54.7683 54.0033 54.7965 54.2057 54.8 54.4092Z" fill="#FF9478"/>
<path d="M56 49.5889C55.9992 50.611 55.3538 51.5203 54.392 51.8545C54.1375 51.9454 53.87 51.9942 53.6 51.9991H50V50.794H53.6C54.6915 50.7905 55.6431 50.0477 55.916 48.9863C55.9683 49.183 55.9965 49.3854 56 49.5889Z" fill="#FF9478"/>
<path d="M23.387 46.1543C22.7073 46.1543 22.1562 46.7053 22.1562 47.3851V65.2312C22.1562 65.911 22.7073 66.462 23.387 66.462H30.7716C31.4514 66.462 32.0024 65.911 32.0024 65.2312V64.0728V48.5434V47.3851C32.0024 46.7053 31.4514 46.1543 30.7716 46.1543H23.387Z" fill="#00A3E7"/>
<path d="M35.6586 23.4656C36.0807 23.7741 36.2575 24.3214 36.0966 24.8211L34.8933 28.5673C34.7321 29.0669 34.9086 29.6142 35.3304 29.9229C35.7523 30.2317 36.3235 30.2316 36.7453 29.9227L39.9078 27.6071C40.3296 27.2981 40.9011 27.2981 41.3229 27.6071L44.4854 29.9227C44.9072 30.2316 45.4784 30.2317 45.9003 29.9229C46.3221 29.6142 46.4986 29.0669 46.3375 28.5673L45.1341 24.8211C44.9732 24.3214 45.15 23.7741 45.5721 23.4656L48.7346 21.15C49.1579 20.8402 49.334 20.2904 49.1703 19.7898C49.0065 19.2892 48.5405 18.9525 48.0174 18.9568H44.1076C43.5863 18.9568 43.1243 18.6186 42.9632 18.1191L41.7598 14.3729C41.5975 13.8753 41.1364 13.5391 40.6166 13.5391C40.0967 13.5391 39.6357 13.8753 39.4733 14.3729L38.27 18.1191C38.1089 18.6186 37.6469 18.9568 37.1255 18.9568H33.2037C32.6823 18.9567 32.2202 19.2949 32.059 19.7944C31.8979 20.294 32.0743 20.8413 32.4961 21.15L35.6586 23.4656Z" fill="#FF9811"/>
<path d="M69.5564 28.1873H65.6466C65.1253 28.1873 64.6633 27.8491 64.5022 27.3496L63.2988 23.6033C63.1365 23.1058 62.6755 22.7695 62.1556 22.7695C61.6358 22.7695 61.1747 23.1058 61.0124 23.6033L59.809 27.3496C59.6479 27.8491 59.1859 28.1873 58.6646 28.1873H54.7428C54.2214 28.1872 53.7593 28.5254 53.5981 29.0249C53.4369 29.5245 53.6134 30.0717 54.0352 30.3805L57.1977 32.6961C57.6197 33.0046 57.7966 33.5518 57.6357 34.0515L56.4323 37.7978C56.2711 38.2974 56.4476 38.8447 56.8695 39.1534C57.2913 39.4622 57.8626 39.4621 58.2843 39.1532L61.4468 36.8376C61.8687 36.5286 62.4401 36.5286 62.862 36.8376L66.0245 39.1532C66.4463 39.4621 67.0175 39.4622 67.4393 39.1534C67.8612 38.8447 68.0377 38.2974 67.8765 37.7978L66.6731 34.0515C66.5122 33.5518 66.6891 33.0046 67.1112 32.6961L70.2737 30.3805C70.6969 30.0707 70.873 29.5209 70.7093 29.0203C70.5456 28.5197 70.0796 28.183 69.5564 28.1873Z" fill="#FF9811"/>
<path d="M24.1804 37.7978L22.9767 34.0515C22.8158 33.5518 22.9927 33.0046 23.4149 32.6961L26.5783 30.3805C27.0009 30.0712 27.1772 29.5227 27.0147 29.0226C26.8523 28.5225 26.3881 28.1851 25.8657 28.1873H21.9547C21.4333 28.1873 20.9711 27.8491 20.81 27.3496L19.6063 23.6033C19.4439 23.1058 18.9827 22.7695 18.4627 22.7695C17.9428 22.7695 17.4816 23.1058 17.3192 23.6033L16.1155 27.3496C15.9543 27.8491 15.4922 28.1873 14.9707 28.1873H11.0478C10.5263 28.1872 10.064 28.5254 9.90279 29.0249C9.74157 29.5245 9.91809 30.0717 10.34 30.3805L13.5034 32.6961C13.9256 33.0046 14.1025 33.5518 13.9415 34.0515L12.7378 37.7978C12.5766 38.2974 12.7531 38.8447 13.1751 39.1534C13.5971 39.4622 14.1685 39.4621 14.5904 39.1532L17.7537 36.8376C18.1757 36.5286 18.7473 36.5286 19.1693 36.8376L22.3327 39.1532C22.7547 39.458 23.3231 39.4559 23.7429 39.148C24.1626 38.8401 24.339 38.2958 24.1804 37.7978Z" fill="#FF9811"/>
</svg>
