<svg width="80" height="80" viewBox="0 0 80 80" fill="none" xmlns="http://www.w3.org/2000/svg">
<circle cx="40" cy="40" r="40" fill="#0E4971"/>
<path d="M74.7406 20.1562C74.7406 28.8172 71.2297 36.6578 65.5547 42.3344C59.8781 48.0094 52.0375 51.5203 43.3766 51.5203H36.6297C19.3078 51.5203 5.26562 37.4781 5.26562 20.1562C12.1594 8.11406 25.1344 0 40.0031 0C51.2375 0 61.3922 4.63281 68.6562 12.0922L71.5781 15.4437C72.7391 16.9328 73.7969 18.5078 74.7406 20.1562Z" fill="#186090"/>
<path d="M49.1448 36.8545C49.3737 37.2904 49.08 38.3825 48.9245 38.7668C48.5531 39.6714 47.9701 40.9369 47.5987 41.8461L47.3828 39.1914L47.5987 37.2107C47.7941 36.9543 48.0427 36.7519 48.3243 36.6202C48.461 36.5301 48.6256 36.5042 48.7803 36.5484C48.935 36.5926 49.0666 36.7031 49.1448 36.8545Z" fill="#F7A3A0"/>
<path d="M49.1448 21.8662C49.3737 22.3068 49.08 23.3942 48.9245 23.7785C48.5531 24.6878 47.9701 25.9533 47.5987 26.8579L47.3828 24.2032L47.5987 22.2271C47.7939 21.9694 48.0426 21.7654 48.3243 21.6319C48.461 21.5419 48.6256 21.516 48.7803 21.5601C48.935 21.6043 49.0666 21.7148 49.1448 21.8662Z" fill="#F7A3A0"/>
<path d="M49.1448 26.8623C49.3737 27.3029 49.08 28.3903 48.9245 28.7746C48.5531 29.6839 47.9701 30.9494 47.5987 31.854L47.3828 29.1993L47.5987 27.2232C47.7927 26.9641 48.0417 26.7599 48.3243 26.628C48.461 26.538 48.6256 26.5121 48.7803 26.5562C48.935 26.6004 49.0666 26.7109 49.1448 26.8623Z" fill="#F7A3A0"/>
<path d="M49.1448 31.8584C49.3737 32.2943 49.08 33.3864 48.9245 33.7707C48.5531 34.6753 47.9701 35.9408 47.5987 36.85L47.3828 34.1954L47.5987 32.2146C47.7941 31.9582 48.0427 31.7558 48.3243 31.6241C48.461 31.534 48.6256 31.5081 48.7803 31.5523C48.935 31.5965 49.0666 31.707 49.1448 31.8584Z" fill="#F7A3A0"/>
<path d="M19.7187 66.463C20.5649 53.4534 19.2086 40.5179 21.8455 27.7494C22.0062 26.9946 22.285 26.0746 23.041 25.9001C23.953 25.683 24.3358 26.1737 24.6193 26.754C24.8272 27.1833 25.0587 28.8769 25.2525 30.9575L40.3828 52.3099C40.6899 55.6637 36.4698 63.264 37.5377 66.463H19.7187Z" fill="#FFBCAB"/>
<path d="M25.5642 50.463L26.4675 31.9954L25.5614 30.9099C25.3349 28.8474 25.0642 27.1684 24.8211 26.7429C24.5365 26.249 24.1636 25.8243 23.3906 25.8487C24.768 31.9065 25.5642 50.463 25.5642 50.463Z" fill="#F7A3A0"/>
<path d="M40.4518 52.1804L40.0772 51.6934L27.0781 52.1804L40.6166 53.5395C40.5468 53.0348 40.4906 52.5746 40.4518 52.1804Z" fill="#F7A3A0"/>
<path d="M47.3804 15.193V19.2142L36.1337 19.6929L25.2266 19.2142V15.193C25.2259 14.7545 25.3958 14.3338 25.6986 14.024C26.0015 13.7142 26.4122 13.5407 26.8402 13.542L45.7607 13.5391C46.1901 13.5365 46.6026 13.7098 46.9068 14.0203C47.2109 14.3309 47.3814 14.7531 47.3804 15.193Z" fill="#7A8D9D"/>
<path d="M47.3781 46.6438L36.1972 46.1562L25.2266 46.65V50.6616C25.2276 51.5723 25.9501 52.3101 26.8409 52.3101H36.3037H40.1808H45.7665C46.6584 52.3088 47.3807 51.5691 47.3804 50.6573L47.3781 46.6438Z" fill="#7A8D9D"/>
<path d="M34.0163 15.9226C33.9166 15.9136 33.8404 15.8084 33.8439 15.6845C33.8473 15.5605 33.9292 15.4621 34.0292 15.4617H37.9653C38.0681 15.4617 38.1514 15.565 38.1514 15.6925C38.1514 15.8199 38.0681 15.9232 37.9653 15.9232H34.0163V15.9226Z" fill="#354E5A"/>
<path d="M47.3804 46.7624L25.2266 46.7685V19.0776L47.3799 19.0762L47.3804 46.7624Z" fill="#CCDDE7"/>
<g opacity="0.2">
<path d="M47.3852 50.7289L47.3828 46.8995V39.7378C47.2089 39.7188 47.0332 39.7188 46.8593 39.7378C46.3367 39.818 45.8758 40.1025 45.5927 40.5196C45.3097 40.9367 45.2315 41.4466 45.3778 41.9209C41.8453 36.5193 38.7316 33.8028 37.7629 34.5969C36.6567 35.5059 39.8985 39.4291 42.0684 43.894L42.0097 43.9199C40.8907 44.7706 40.0335 45.8821 39.5252 47.1416C38.997 48.4917 39.1319 49.9898 39.8941 51.239C40.0473 51.487 40.3183 51.8663 40.6451 52.3071H45.6948C46.6292 52.3058 47.3858 51.5995 47.3852 50.7289Z" fill="#0B3442"/>
</g>
<path d="M43.3734 43.1838L43.4297 43.1508C40.8759 38.7798 37.3597 35.0777 38.3174 34.032C39.1577 33.1183 42.4204 35.5958 46.3732 40.791C46.1825 40.3184 46.2023 39.7866 46.4274 39.3295C46.6525 38.8724 47.0615 38.5335 47.5515 38.3983C48.0914 38.2653 48.662 38.357 49.1335 38.6526C49.5612 38.9227 49.8765 39.3395 50.0208 39.8255C49.9407 39.4137 50.0275 38.987 50.2618 38.6396C50.4962 38.2922 50.8588 38.0528 51.2695 37.9744C51.7279 37.8953 52.1988 38.0029 52.5778 38.2735C52.9568 38.5441 53.2125 38.9552 53.2881 39.4157C53.1943 38.5349 53.4478 38.0309 54.0158 37.8661C54.6683 37.6824 55.2317 37.9791 55.7199 38.6008C58.1 41.62 65.4997 48.3115 69.105 64.194L53.5409 66.4611C53.5409 63.3524 47.7862 58.2325 46.1197 55.6655C45.6925 55.0061 44.3545 53.5224 43.317 52.3308H43.3124C42.8053 51.7467 42.3688 51.2286 42.1434 50.9178C41.2815 49.7109 40.9914 48.1851 41.3501 46.7446C41.6993 45.3992 42.3974 44.1707 43.3734 43.1838Z" fill="#FFBCAB"/>
<path d="M46.0093 49.2338C45.9402 49.2338 45.8807 49.1953 45.8669 49.1417C45.318 47.2762 44.3832 45.4955 43.1004 43.8716C43.0722 43.8361 43.0707 43.7912 43.0963 43.7546C43.122 43.7179 43.1709 43.6952 43.2238 43.6953C43.2768 43.6954 43.3254 43.7184 43.3508 43.7552C44.6504 45.4009 45.597 47.2056 46.1522 49.0962C46.1599 49.1264 46.1519 49.1577 46.13 49.1832C46.1081 49.2086 46.0743 49.226 46.036 49.2315C46.0272 49.2328 46.0183 49.2336 46.0093 49.2338Z" fill="#F7A3A0"/>
<path d="M37.0877 66.463H19.7109C20.5571 53.4534 19.2008 40.5179 21.8377 27.7494C21.9984 26.9946 22.2772 26.0746 23.0332 25.9001C23.9452 25.683 24.3279 26.1737 24.6115 26.754C24.8194 27.1833 25.0509 28.8769 25.2446 30.9575L40.375 52.3099C40.6821 55.6637 36.462 63.264 37.5299 66.463H37.0877Z" fill="#FFBCAB"/>
<path d="M25.5564 50.463L26.4597 31.9954L25.5536 30.9099C25.3271 28.8474 25.0564 27.1684 24.8133 26.7429C24.5287 26.249 24.1558 25.8243 23.3828 25.8487C24.7602 31.9065 25.5564 50.463 25.5564 50.463Z" fill="#F7A3A0"/>
<path d="M40.4518 52.1804L40.0772 51.6934L27.0781 52.1804L40.6166 53.5395C40.5468 53.0348 40.4906 52.5746 40.4518 52.1804Z" fill="#F7A3A0"/>
<path d="M47.3804 15.193V19.2142L36.1337 19.6929L25.2266 19.2142V15.193C25.2259 14.7545 25.3958 14.3338 25.6986 14.024C26.0015 13.7142 26.4122 13.5407 26.8402 13.542L45.7607 13.5391C46.1901 13.5365 46.6026 13.7098 46.9068 14.0203C47.2109 14.3309 47.3814 14.7531 47.3804 15.193Z" fill="#0E4971"/>
<path d="M47.3781 46.6438L36.1972 46.1562L25.2266 46.65V50.6616C25.2276 51.5723 25.9501 52.3101 26.8409 52.3101H36.3037H40.1808H45.7665C46.6584 52.3088 47.3807 51.5691 47.3804 50.6573L47.3781 46.6438Z" fill="#0E4971"/>
<path d="M34.0163 15.9226C33.9166 15.9136 33.8404 15.8084 33.8439 15.6845C33.8473 15.5605 33.9292 15.4621 34.0292 15.4617H37.9653C38.0681 15.4617 38.1514 15.565 38.1514 15.6925C38.1514 15.8199 38.0681 15.9232 37.9653 15.9232H34.0163V15.9226Z" fill="white" fill-opacity="0.340362"/>
<path d="M47.5913 46.7624L25.4375 46.7685V19.0776L47.5909 19.0762L47.5913 46.7624Z" fill="#DDEEF8"/>
<mask id="mask0_442_8489" style="mask-type:luminance" maskUnits="userSpaceOnUse" x="26" y="30" width="4" height="4">
<path fill-rule="evenodd" clip-rule="evenodd" d="M26.6641 30.1699H29.1661V33.2309H26.6641V30.1699Z" fill="white"/>
</mask>
<g mask="url(#mask0_442_8489)">
<path fill-rule="evenodd" clip-rule="evenodd" d="M29.1164 31.5391L28.9366 33.0086C28.6612 33.1481 28.2786 33.2309 27.9381 33.2309C27.1232 33.2309 26.6641 32.7513 26.6641 31.9054C26.6641 30.8675 27.3488 30.1699 28.3628 30.1699C28.6956 30.1699 28.9711 30.244 29.1661 30.3095L28.9405 31.1206C28.8027 31.0682 28.6229 31.0158 28.401 31.0158C27.8233 31.0158 27.6321 31.3778 27.6321 31.7789C27.6321 32.2237 27.8654 32.385 28.0988 32.385C28.1371 32.385 28.1639 32.3806 28.1904 32.3763L28.2938 31.5391H29.1164Z" fill="#0A3755"/>
</g>
<path fill-rule="evenodd" clip-rule="evenodd" d="M33.1126 30.9652L33.0827 31.217H34.0255L33.9324 31.9683H32.9895L32.9598 32.2329H34.0368L33.9361 33.0395H31.9609L32.3151 30.1543H34.2901L34.1895 30.9652H33.1126Z" fill="#0A3755"/>
<path fill-rule="evenodd" clip-rule="evenodd" d="M35.3313 30.9652L35.3014 31.217H36.2444L36.1511 31.9683H35.2083L35.1784 32.2329H36.2556L36.1549 33.0395H34.1797L34.5338 30.1543H36.5089L36.4083 30.9652H35.3313Z" fill="#0A3755"/>
<path fill-rule="evenodd" clip-rule="evenodd" d="M39.2605 30.1543L38.9155 33.0395H38.0657L37.51 31.5586L37.332 33.0395H36.5078L36.8527 30.1543H37.7497L38.2619 31.6268L38.4361 30.1543H39.2605Z" fill="#0A3755"/>
<mask id="mask1_442_8489" style="mask-type:luminance" maskUnits="userSpaceOnUse" x="39" y="30" width="4" height="4">
<path fill-rule="evenodd" clip-rule="evenodd" d="M39.5234 30.1699H42.1088V33.2123H39.5234V30.1699Z" fill="white"/>
</mask>
<g mask="url(#mask1_442_8489)">
<path fill-rule="evenodd" clip-rule="evenodd" d="M40.648 31.6449C40.8064 31.6581 41.1659 31.6315 41.1659 31.2873C41.1659 31.0222 40.8606 30.9913 40.7253 31.0133L40.648 31.6449ZM42.1088 31.19C42.1088 32.1748 41.2431 32.5102 40.5553 32.444L40.4626 33.2123H39.5234C39.8868 30.2451 39.8907 30.2406 39.8907 30.2406C40.0607 30.2097 40.3697 30.1699 40.7909 30.1699C41.3978 30.1699 42.1088 30.3951 42.1088 31.19Z" fill="#9AC540"/>
</g>
<path fill-rule="evenodd" clip-rule="evenodd" d="M45.5102 32.2286H46.3545L46.2607 33.0395H44.5547L44.8848 30.1543H45.7465L45.5102 32.2286Z" fill="#9AC540"/>
<path fill-rule="evenodd" clip-rule="evenodd" d="M42.9334 31.8188L43.2179 30.9951L43.3161 31.9466C43.1542 31.8652 43.0195 31.832 42.9334 31.8188ZM43.8654 30.1543H42.7739L41.5938 33.0395H42.5151L42.7256 32.4202C43.2919 32.6131 43.429 33.0395 43.429 33.0395H44.3464L43.8654 30.1543Z" fill="#9AC540"/>
<mask id="mask2_442_8489" style="mask-type:luminance" maskUnits="userSpaceOnUse" x="29" y="30" width="3" height="4">
<path fill-rule="evenodd" clip-rule="evenodd" d="M29.2266 30.1699H31.8505V33.2309H29.2266V30.1699Z" fill="white"/>
</mask>
<g mask="url(#mask2_442_8489)">
<path fill-rule="evenodd" clip-rule="evenodd" d="M31.1559 32.0876C30.9214 31.652 30.8191 30.8934 30.3515 30.7781C30.4691 30.8173 30.6096 30.8807 30.7525 31.3285C30.8275 31.5559 30.8708 31.8683 30.9632 32.1394C30.9398 32.1408 30.9162 32.1407 30.8923 32.1386C30.6529 32.1179 30.4613 31.9263 30.4042 31.678C30.1991 30.7288 29.8128 30.5578 29.8128 30.5578C30.9828 30.516 31.4817 31.0578 31.4817 31.5089C31.4821 31.529 31.4816 31.5494 31.4803 31.5697C31.4644 31.8009 31.3381 31.9924 31.164 32.0834C31.5481 31.934 31.8505 31.6545 31.8505 31.0638C31.8505 30.3531 31.2166 30.1699 30.556 30.1699C30.2275 30.1699 29.8062 30.2135 29.5898 30.2571L29.2266 33.1741H30.1501L30.2661 32.2542C30.2816 32.2542 30.2971 32.2542 30.3126 32.2498C30.5945 33.0086 30.7916 33.2309 31.1666 33.2309C31.3907 33.2309 31.553 33.1916 31.6921 33.1437L31.7772 32.4373C31.6304 32.4373 31.3905 32.5231 31.1559 32.0876Z" fill="#0A3755"/>
</g>
<g opacity="0.2">
<path d="M47.3774 50.7289L47.375 46.8995V39.7378C47.201 39.7188 47.0254 39.7188 46.8514 39.7378C46.3289 39.818 45.868 40.1025 45.5849 40.5196C45.3019 40.9367 45.2237 41.4466 45.37 41.9209C41.8375 36.5193 38.7238 33.8028 37.7551 34.5969C36.6489 35.5059 39.8907 39.4291 42.0606 43.894L42.0019 43.9199C40.8829 44.7706 40.0257 45.8821 39.5174 47.1416C38.9892 48.4917 39.1241 49.9898 39.8863 51.239C40.0394 51.487 40.3105 51.8663 40.6373 52.3071H45.687C46.6214 52.3058 47.3779 51.5995 47.3774 50.7289Z" fill="#0B3442"/>
</g>
<path d="M43.3656 43.1838L43.4219 43.1508C40.8681 38.7798 37.3519 35.0777 38.3096 34.032C39.1499 33.1183 42.4126 35.5958 46.3653 40.791C46.1747 40.3184 46.1944 39.7866 46.4195 39.3295C46.6447 38.8724 47.0537 38.5335 47.5437 38.3983C48.0836 38.2653 48.6542 38.357 49.1257 38.6526C49.5534 38.9227 49.8687 39.3395 50.013 39.8255C49.9329 39.4137 50.0197 38.987 50.254 38.6396C50.4883 38.2922 50.851 38.0528 51.2617 37.9744C51.7201 37.8953 52.191 38.0029 52.57 38.2735C52.949 38.5441 53.2046 38.9552 53.2803 39.4157C53.1864 38.5349 53.4399 38.0309 54.008 37.8661C54.6605 37.6824 55.2238 37.9791 55.7121 38.6008C58.0922 41.62 64.0765 48.3115 67.6818 64.194L53.5331 66.4611C53.5331 63.3524 47.7784 58.2325 46.1118 55.6655C45.6846 55.0061 44.3467 53.5224 43.3092 52.3308H43.3045C42.7975 51.7467 42.3609 51.2286 42.1356 50.9178C41.2737 49.7109 40.9836 48.1851 41.3422 46.7446C41.6915 45.3992 42.3896 44.1707 43.3656 43.1838Z" fill="#FFBCAB"/>
<rect x="51.6328" y="65.6523" width="18.4615" height="7.38462" rx="0.615385" transform="rotate(-29 51.6328 65.6523)" fill="#00A3E7"/>
<rect x="17.8516" y="58.8027" width="22.1538" height="7.38462" rx="0.615385" transform="rotate(8 17.8516 58.8027)" fill="#00A3E7"/>
<path d="M46.0093 49.2338C45.9402 49.2338 45.8807 49.1953 45.8669 49.1417C45.318 47.2762 44.3832 45.4955 43.1004 43.8716C43.0722 43.8361 43.0707 43.7912 43.0963 43.7546C43.122 43.7179 43.1709 43.6952 43.2238 43.6953C43.2768 43.6954 43.3254 43.7184 43.3508 43.7552C44.6504 45.4009 45.597 47.2056 46.1522 49.0962C46.1599 49.1264 46.1519 49.1577 46.13 49.1832C46.1081 49.2086 46.0743 49.226 46.036 49.2315C46.0272 49.2328 46.0183 49.2336 46.0093 49.2338Z" fill="#F7A3A0"/>
</svg>
