<svg width="51" height="15" viewBox="0 0 51 15" fill="none" xmlns="http://www.w3.org/2000/svg">
<path id="Forma_1_copy_2 Copy 9" fill-rule="evenodd" clip-rule="evenodd" d="M49.5771 14.616C49.6171 14.5889 49.6571 14.5617 49.6977 14.5312C49.8053 14.4584 49.9033 14.3724 49.9895 14.275C50.0272 14.2438 50.061 14.2083 50.0904 14.1691C50.1058 14.1482 50.12 14.1342 50.1354 14.1134C50.2253 13.9935 50.2963 13.8606 50.3459 13.7191C50.4011 13.5268 50.4207 13.3704 50.4114 13.2144C50.4208 13.1945 50.4247 13.1724 50.4227 13.1504L50.1532 5.15438C50.158 4.76911 49.9976 4.40055 49.7128 4.14243C49.428 3.88432 49.0463 3.76151 48.6647 3.80525C47.6373 4.17095 47.773 4.86668 47.8128 5.6398L48.2075 11.3938C45.2423 8.69426 41.9879 6.33296 38.5036 4.35311C23.8968 -2.98758 7.83932 -1.35928 0.228273 11.6341C-0.158931 12.2056 -0.045089 12.979 0.490087 13.4128C0.546518 13.4555 0.606744 13.493 0.670007 13.5247C1.39932 13.8323 2.24299 13.536 2.62297 12.8389C9.1224 0.888272 23.9101 -0.598561 37.2333 6.0962C40.7094 7.89083 43.93 10.1445 46.8091 12.7973L39.2063 12.8227C38.4473 12.7313 37.4556 12.8275 37.4836 13.6681C37.424 13.9786 37.5021 14.2995 37.6975 14.5472C37.8929 14.7949 38.1863 14.9448 38.501 14.9577L48.6719 14.8206C48.8107 14.8329 48.9505 14.825 49.0871 14.7971C49.2667 14.7641 49.4282 14.7022 49.5771 14.616Z" fill="#3A647D"/>
</svg>
