<svg width="20" height="20" viewBox="0 0 20 20" fill="none" xmlns="http://www.w3.org/2000/svg">
<path opacity="0.8" fill-rule="evenodd" clip-rule="evenodd" d="M15.9784 15.0881L19.7934 18.813C20.069 19.0845 20.069 19.525 19.7928 19.7964C19.5172 20.0679 19.0699 20.0679 18.7943 19.7964L14.9575 16.0497C13.3793 17.3093 11.3702 18.067 9.17961 18.067C4.10968 18.067 0 14.0228 0 9.03348C0 4.04411 4.10968 0 9.17961 0C14.2495 0 18.3592 4.04411 18.3599 9.03348C18.3599 11.3658 17.4535 13.4854 15.9784 15.0881ZM1.41406 9.03523C1.41406 13.2567 4.89155 16.6789 9.18126 16.6789C13.471 16.6789 16.9485 13.2567 16.9485 9.03523C16.9485 4.81376 13.471 1.3916 9.18126 1.3916C4.89155 1.3916 1.41406 4.81376 1.41406 9.03523Z" fill="#373737"/>
</svg>

