<svg width="16" height="17" viewBox="0 0 16 17" fill="none" xmlns="http://www.w3.org/2000/svg">
<g clip-path="url(#clip0_1053_3480)">
<path d="M9.08129 16.0001H6.51402C6.0852 16.0001 5.73638 15.6512 5.73638 15.2224V9.43181H4.23858C3.80976 9.43181 3.46094 9.08286 3.46094 8.65417V6.17288C3.46094 5.74407 3.80976 5.39524 4.23858 5.39524H5.73638V4.1527C5.73638 2.92068 6.12324 1.87249 6.85502 1.12164C7.5901 0.367356 8.61737 -0.03125 9.82579 -0.03125L11.7837 -0.02807C12.2118 -0.0273361 12.56 0.32149 12.56 0.749572V3.05339C12.56 3.4822 12.2113 3.83103 11.7826 3.83103L10.4644 3.83152C10.0623 3.83152 9.95996 3.91212 9.93807 3.93683C9.90198 3.9778 9.85905 4.09363 9.85905 4.41347V5.39512H11.6835C11.8209 5.39512 11.954 5.429 12.0683 5.49285C12.315 5.63069 12.4684 5.89133 12.4684 6.17301L12.4674 8.65429C12.4674 9.08286 12.1186 9.43169 11.6898 9.43169H9.85905V15.2224C9.85905 15.6512 9.51011 16.0001 9.08129 16.0001ZM6.6762 15.0602H8.91911V9.01107C8.91911 8.72474 9.15211 8.49187 9.43831 8.49187H11.5276L11.5285 6.33507H9.43819C9.15198 6.33507 8.91911 6.10219 8.91911 5.81586V4.41347C8.91911 4.04629 8.95641 3.62873 9.23356 3.31488C9.56845 2.93548 10.0962 2.8917 10.4641 2.8917L11.6202 2.89121V0.911509L9.82505 0.908574C7.88303 0.908574 6.6762 2.15172 6.6762 4.1527V5.81586C6.6762 6.10207 6.44333 6.33507 6.15712 6.33507H4.40076V8.49187H6.15712C6.44333 8.49187 6.6762 8.72474 6.6762 9.01107V15.0602Z" fill="#373737"/>
</g>
<defs>
<clipPath id="clip0_1053_3480">
<rect width="16" height="16.0313" fill="white"/>
</clipPath>
</defs>
</svg>

