<svg width="14" height="14" viewBox="0 0 14 14" fill="none" xmlns="http://www.w3.org/2000/svg">
<g clip-path="url(#clip0_1053_3502)">
<path d="M3.28824 4.39258H0.652344C0.425797 4.39258 0.242188 4.57629 0.242188 4.80273V13.5893C0.242188 13.8158 0.425797 13.9994 0.652344 13.9994H3.28824C3.51479 13.9994 3.69839 13.8158 3.69839 13.5893V4.80273C3.69839 4.57629 3.51479 4.39258 3.28824 4.39258ZM2.87808 13.1791H1.0625V5.21289H2.87808V13.1791Z" fill="#373737"/>
<path d="M1.9704 0C1.01743 0 0.242188 0.775238 0.242188 1.728C0.242188 2.68097 1.01743 3.4561 1.9704 3.4561C2.92326 3.4561 3.69839 2.68086 3.69839 1.728C3.69839 0.775238 2.92326 0 1.9704 0ZM1.9704 2.63579C1.46977 2.63579 1.0625 2.22862 1.0625 1.728C1.0625 1.22748 1.46977 0.820312 1.9704 0.820312C2.47092 0.820312 2.87808 1.22748 2.87808 1.728C2.87808 2.22862 2.47092 2.63579 1.9704 2.63579Z" fill="#373737"/>
<path d="M9.87587 4.33496C9.25241 4.33496 8.63792 4.48524 8.08763 4.76637C8.06894 4.55713 7.89323 4.39296 7.67908 4.39296H5.04297C4.81653 4.39296 4.63281 4.57668 4.63281 4.80312V13.5896C4.63281 13.8162 4.81653 13.9998 5.04297 13.9998H7.67908C7.90562 13.9998 8.08923 13.8162 8.08923 13.5896V8.75706C8.08923 8.13542 8.59509 7.62967 9.21674 7.62967C9.83838 7.62967 10.344 8.13542 10.344 8.75706V13.5896C10.344 13.8162 10.5277 13.9998 10.7542 13.9998H13.3902C13.6167 13.9998 13.8003 13.8162 13.8003 13.5896V8.25943C13.8003 6.09543 12.0399 4.33496 9.87587 4.33496ZM12.98 13.1795H11.1644V8.75706C11.1644 7.68307 10.2907 6.80936 9.21684 6.80936C8.14275 6.80936 7.26892 7.68307 7.26892 8.75706V13.1795H5.45323V5.21327H7.26892V5.5163C7.26892 5.67406 7.35939 5.81783 7.50166 5.88608C7.64383 5.95433 7.81259 5.93489 7.93575 5.8363C8.49117 5.39079 9.16216 5.15527 9.87587 5.15527C11.5875 5.15527 12.98 6.54778 12.98 8.25943V13.1795Z" fill="#373737"/>
</g>
<defs>
<clipPath id="clip0_1053_3502">
<rect width="14" height="14" fill="white"/>
</clipPath>
</defs>
</svg>

