<svg width="17" height="16" viewBox="0 0 17 16" fill="none" xmlns="http://www.w3.org/2000/svg">
<g id="star (1)">
<path id="Shape" d="M16.305 7.08099C16.633 6.76813 16.7488 6.30898 16.6073 5.88215C16.4655 5.45533 16.0961 5.15064 15.6422 5.08598L11.6067 4.5122C11.4349 4.4877 11.2863 4.38222 11.2096 4.22972L9.40544 0.651831C9.20287 0.249825 8.79171 0 8.3335 0C7.87562 0 7.46447 0.249825 7.26189 0.651831L5.45742 4.23004C5.38066 4.38255 5.23181 4.48803 5.05994 4.51252L1.02448 5.08631C0.570943 5.15064 0.20117 5.45565 0.0593347 5.88248C-0.0821668 6.3093 0.0336375 6.76846 0.361694 7.08131L3.2815 9.86629C3.40598 9.98516 3.46305 10.1563 3.43368 10.3235L2.74486 14.256C2.68379 14.6022 2.77656 14.9389 3.0055 15.2044C3.36126 15.6181 3.98233 15.7442 4.47892 15.4888L8.08787 13.632C8.23872 13.5546 8.42861 13.5552 8.57912 13.632L12.1884 15.4888C12.364 15.5793 12.5512 15.625 12.7444 15.625C13.0972 15.625 13.4316 15.4715 13.6615 15.2044C13.8908 14.9389 13.9832 14.6015 13.9221 14.256L13.233 10.3235C13.2036 10.156 13.2607 9.98516 13.3852 9.86629L16.305 7.08099Z" fill="#ECCD00"/>
</g>
</svg>
