<svg width="17" height="17" viewBox="0 0 17 17" fill="none" xmlns="http://www.w3.org/2000/svg">
<path d="M15.8201 7.36075C16.1384 7.03553 16.2508 6.55824 16.1135 6.11455C15.9759 5.67086 15.6174 5.35413 15.177 5.28692L11.2616 4.69047C11.0948 4.66501 10.9507 4.55536 10.8763 4.39683L9.12576 0.677584C8.9292 0.259695 8.53028 0 8.08569 0C7.64143 0 7.2425 0.259695 7.04595 0.677584L5.29513 4.39717C5.22066 4.5557 5.07624 4.66535 4.90948 4.69081L0.994017 5.28726C0.553965 5.35413 0.195188 5.6712 0.0575703 6.11489C-0.0797235 6.55858 0.0326372 7.03587 0.350938 7.36109L3.18392 10.2561C3.3047 10.3797 3.36007 10.5575 3.33157 10.7314L2.66324 14.8193C2.60398 15.1791 2.694 15.5291 2.91613 15.8051C3.26131 16.2352 3.86391 16.3662 4.34573 16.1008L7.84737 14.1705C7.99373 14.0901 8.17798 14.0908 8.32401 14.1705L11.826 16.1008C11.9963 16.1948 12.1779 16.2423 12.3654 16.2423C12.7077 16.2423 13.0322 16.0828 13.2553 15.8051C13.4777 15.5291 13.5674 15.1784 13.5081 14.8193L12.8395 10.7314C12.811 10.5572 12.8664 10.3797 12.9871 10.2561L15.8201 7.36075Z" fill="#C3C7CD"/>
</svg>

