<svg width="14" height="14" viewBox="0 0 14 14" fill="none" xmlns="http://www.w3.org/2000/svg">
<g clip-path="url(#clip0_1053_3261)">
<path d="M5.3339 14C4.3148 14 3.35367 13.6749 2.55441 13.0596C2.40512 12.9448 2.26156 12.8193 2.12758 12.687C1.19461 11.7649 0.725116 10.5369 0.80578 9.22906C0.866756 8.24059 1.26488 7.28766 1.92742 6.54582C2.80488 5.56336 4.01457 5.02223 5.33418 5.02223C5.56086 5.02223 5.78972 5.03918 6.01504 5.07254L6.36504 5.12449V8.23047L5.82609 8.05246C5.66914 8.00051 5.5059 7.97426 5.34074 7.97426C4.92347 7.97426 4.53273 8.13777 4.24043 8.43445C3.94949 8.72976 3.79281 9.12023 3.79883 9.53449C3.80676 10.0685 4.08812 10.5525 4.55133 10.8298C4.76461 10.9572 5.00742 11.0318 5.25406 11.0455C5.44875 11.0562 5.64097 11.0307 5.82582 10.9698C6.45773 10.7611 6.88238 10.1749 6.88238 9.51125L6.88512 6.29016V0H9.85355L9.85711 0.406328C9.85875 0.590352 9.87761 0.774375 9.91316 0.952656C10.0526 1.65375 10.4458 2.27855 11.0203 2.71168C11.5303 3.09641 12.1389 3.29957 12.7799 3.29957C12.7949 3.29957 12.7949 3.29957 12.9319 3.30914L13.3134 3.33594V5.85156V6.26172L13.1766 6.26145H12.904C12.9018 6.26145 12.8996 6.26145 12.8972 6.26145H12.7662C12.7657 6.26145 12.7648 6.26145 12.764 6.26145C11.9735 6.26145 11.2328 6.11078 10.4986 5.80098C10.2798 5.70855 10.0668 5.60301 9.86121 5.48516L9.87051 9.52684C9.86558 10.7223 9.39308 11.8437 8.54023 12.6867C7.84816 13.3705 6.9748 13.8075 6.01449 13.9497C5.79054 13.983 5.56168 14 5.3339 14ZM5.3339 5.84254C4.25137 5.84254 3.25879 6.28633 2.5391 7.09215C1.99879 7.69727 1.67394 8.4741 1.62418 9.27938C1.55855 10.3471 1.94191 11.3501 2.70398 12.1032C2.81418 12.212 2.93203 12.3151 3.05453 12.4094C3.70914 12.9134 4.49746 13.1797 5.3339 13.1797C5.52148 13.1797 5.70988 13.1657 5.89445 13.1384C6.68113 13.0219 7.39672 12.664 7.96383 12.1034C8.66054 11.4149 9.04636 10.4997 9.05047 9.52629L9.03762 3.88281L9.70015 4.39387C10.0422 4.65773 10.4185 4.87703 10.818 5.04574C11.364 5.27625 11.9145 5.40422 12.4928 5.43457V4.10977C11.778 4.05617 11.1029 3.80215 10.5262 3.36711C9.79066 2.81258 9.28726 2.01195 9.10844 1.11316C9.0893 1.01664 9.07371 0.919023 9.06222 0.820586H7.70515V6.29043L7.70242 9.51152C7.70242 10.5295 7.05164 11.4286 6.08285 11.7485C5.80039 11.8418 5.50644 11.8806 5.20894 11.8645C4.82996 11.8437 4.45699 11.7291 4.12996 11.5336C3.42094 11.1095 2.99027 10.3666 2.97824 9.54652C2.96894 8.91105 3.2093 8.31168 3.65554 7.85859C4.10316 7.40414 4.70144 7.15395 5.34019 7.15395C5.40855 7.15395 5.47637 7.15695 5.54418 7.1627V5.84828C5.47418 5.84445 5.4039 5.84254 5.3339 5.84254Z" fill="#373737"/>
</g>
<defs>
<clipPath id="clip0_1053_3261">
<rect width="14" height="14" fill="white"/>
</clipPath>
</defs>
</svg>

