<svg width="16" height="16" viewBox="0 0 16 16" fill="none" xmlns="http://www.w3.org/2000/svg">
<g clip-path="url(#clip0_1053_4154)">
<path d="M15.0579 9.53689C14.7434 9.04769 14.4289 8.57597 14.1145 8.08677C14.0446 7.98195 14.0446 7.91206 14.1145 7.80723C14.4289 7.33551 14.726 6.86379 15.0404 6.39206C15.4073 5.83298 15.2152 5.29137 14.5862 5.06424C14.062 4.87206 13.5379 4.6624 13.0138 4.47022C12.9089 4.43528 12.8565 4.36539 12.8565 4.24309C12.8391 3.66654 12.8041 3.08999 12.7692 2.53091C12.7342 1.91942 12.2625 1.56999 11.6685 1.72723C11.1094 1.867 10.5503 2.02424 10.0087 2.18148C9.88642 2.21643 9.81653 2.18148 9.72917 2.09413C9.37975 1.63987 9.01285 1.20309 8.66343 0.766311C8.27906 0.277115 7.68503 0.277115 7.2832 0.766311C6.93377 1.20309 6.56687 1.63987 6.23492 2.07666C6.14757 2.19895 6.06021 2.21643 5.92044 2.18148C5.37883 2.02424 4.83722 1.88447 4.45285 1.77964C3.70159 1.60493 3.24734 1.90194 3.21239 2.53091C3.17745 3.10746 3.14251 3.68401 3.12504 4.27804C3.12504 4.40033 3.07262 4.45275 2.9678 4.50516C2.42619 4.71482 1.88458 4.92447 1.34297 5.13413C0.783888 5.36126 0.609176 5.90286 0.941129 6.40953C1.25561 6.89873 1.5701 7.37045 1.88458 7.85964C1.95446 7.96447 1.95446 8.03436 1.88458 8.15666C1.55262 8.64585 1.23814 9.13505 0.923656 9.64172C0.626645 10.1134 0.818828 10.6725 1.34297 10.8822C1.88458 11.0918 2.44366 11.3015 2.98526 11.5111C3.10756 11.5461 3.1425 11.616 3.1425 11.7383C3.15998 12.2973 3.22986 12.839 3.22986 13.398C3.22986 13.9571 3.71906 14.4638 4.40043 14.2541C4.94204 14.0794 5.48365 13.9571 6.02526 13.7999C6.13009 13.7649 6.19997 13.7824 6.26986 13.8872C6.63676 14.3415 6.98618 14.7783 7.35308 15.2325C7.75492 15.7217 8.33147 15.7217 8.71584 15.2325C9.08273 14.7783 9.43216 14.3415 9.79905 13.8872C9.86894 13.7999 9.92135 13.7649 10.0436 13.7999C10.6027 13.9571 11.1618 14.0969 11.7209 14.2541C12.2974 14.4114 12.7866 14.0619 12.8041 13.4679C12.8391 12.8914 12.874 12.3148 12.8915 11.7208C12.8915 11.581 12.9614 11.5286 13.0662 11.4937C13.5903 11.3015 14.1319 11.0918 14.6561 10.8822C15.2152 10.6026 15.3899 10.0436 15.0579 9.53689ZM10.8823 6.6716L7.38803 10.1659C7.30067 10.2532 7.17837 10.3231 7.05607 10.3406C7.02113 10.3406 6.96872 10.358 6.93377 10.358C6.77654 10.358 6.60182 10.2882 6.47952 10.1659L5.04688 8.73321C4.80228 8.48861 4.80228 8.08677 5.04688 7.84217C5.29147 7.59758 5.69331 7.59758 5.93791 7.84217L6.91631 8.82056L9.9563 5.78057C10.2009 5.53597 10.6027 5.53597 10.8473 5.78057C11.1269 6.02516 11.1269 6.427 10.8823 6.6716Z" fill="#8FB741"/>
</g>
<defs>
<clipPath id="clip0_1053_4154">
<rect width="16" height="16" fill="white"/>
</clipPath>
</defs>
</svg>

